<svg xmlns="http://www.w3.org/2000/svg" viewBox="0 0 500 500" enable-background="new 0 0 500 500"><style type="text/css">.st0{fill:#020202;}</style><path class="st0" d="M470.5 471.5l-101.6-136.1c67.1-69.1 77.2-178.9 18.3-258.1-38.7-48.8-97.6-77.3-160.6-77.3-42.7 0-83.3 14.2-117.9 40.7-87.4 65-105.7 189-38.6 276.4 38.6 50.8 95.5 79.3 158.5 79.3 36.6 0 73.2-10.2 103.7-30.5l101.6 134.1 36.6-28.5zm-363.8-182.9c-50.8-67.1-36.6-160.6 30.5-211.4 26.4-20.3 56.9-30.5 91.5-30.5 48.8 0 91.5 22.4 119.9 61 50.8 67.1 36.6 160.6-30.5 211.4-26.4 20.3-56.9 30.5-91.5 30.5-46.8 0-91.5-22.4-119.9-61z"/></svg>