<?xml version="1.0" encoding="UTF-8" standalone="no"?>
<svg width="512px" height="78px" id="Layer_1" data-name="Layer 1" xmlns="http://www.w3.org/2000/svg" viewBox="0 0 512 78">
  <defs>
    <style>
      .cls-1 {
        fill: #fff;
      }

      .cls-2 {
        fill: #fdb736;
      }
    </style>
  </defs>
  <title>logo</title>
  <g>
    <path class="cls-1" d="M114.08,77C102.73,77,95.8,69.65,95.8,58a21,21,0,0,1,5.54-14.84c3.28-3.5,7.58-5.17,13-5.17a21.16,21.16,0,0,1,9,1.94c1.94.86,3,2.1,3.77,2.1.43,0,.86-.48,1.23-.48s.49.37.54,1.07l.54,5.59a9.73,9.73,0,0,1,0,1.08c0,.59-.11.91-.59.91-1,0-1.13-1.66-2.15-3.33-3.07-4.84-7.53-7.42-12.37-7.42-8.28,0-14.14,6.5-14.14,16.35,0,11.56,6.35,19.3,14.68,19.3a15.76,15.76,0,0,0,10.65-4.3c2.1-2,2.42-4.14,3.33-4.14.27,0,.48.32.48.75a4.21,4.21,0,0,1-.16.86l-1.07,4.41A22.53,22.53,0,0,1,114.08,77Zm23.13-31.3c0-2.31-.1-3.71-1.66-4.84s-3.23-.48-3.23-1.5c0-.65.32-.81,1.13-.81,1,0,2.85.32,5.49.32a55.58,55.58,0,0,0,5.91-.32c.54,0,.86.32.86.7,0,1.08-1.77.75-3.06,1.83s-1.3,2.42-1.3,4.62v8.23c0,1.24.22,1.35,1.4,1.35h17.86c1.18,0,1.45-.11,1.45-1.35V45.72c0-2.31-.11-3.71-1.67-4.84s-3.22-.54-3.22-1.56c0-.64.32-.75,1.13-.75,1.45,0,3.44.32,6,.32a52.06,52.06,0,0,0,5.44-.32c.54,0,.86.32.86.7,0,1.07-1.78.7-3.07,1.77s-1.29,2.42-1.29,4.63V69c0,2.41.22,3.92,1.72,5s3.17.43,3.17,1.56c0,.65-.32.75-1.12.75-1.72,0-3.66-.32-5.81-.32-3.28,0-5.22.32-5.65.32a.74.74,0,0,1-.81-.7c0-1,1.56-.81,2.91-2s1.45-2.58,1.45-4.73V58.52c0-1-.43-1.13-1.45-1.13h-17.9c-1,0-1.4.16-1.4,1.13V69c0,2.42.22,3.93,1.72,5.06s3.17.43,3.17,1.56c0,.64-.32.75-1.13.75-1.72,0-3.65-.32-5.8-.32a55.16,55.16,0,0,0-5.6.32c-.53,0-.86-.27-.86-.7,0-1,1.56-.81,2.9-2s1.45-2.58,1.45-4.74Zm55.62-7.42c.27-.54.43-.75.86-.75s.48.32.7.86l12.21,31c1,2.64,2,4.36,3.71,5.06,1.23.53,2.47.21,2.47,1.12,0,.49-.21.65-.7.65-.75,0-2.85-.32-6.18-.32a41.89,41.89,0,0,0-5,.37.67.67,0,0,1-.59-.64c0-.65.48-.7,1.24-1,1.18-.43,1.77-.91,1.77-1.88a5.61,5.61,0,0,0-.54-2L200,63.52c-.48-1.24-.91-1.67-2.31-1.67h-12.1c-1.45,0-1.82.7-2.42,2l-2.63,5.7a6.94,6.94,0,0,0-.8,2.74c0,1,.64,1.83,2,2.37.91.37,1.93,0,1.93,1,0,.49-.27.65-.86.65-1,0-3.12-.32-6.13-.32a27.23,27.23,0,0,0-3,.32.71.71,0,0,1-.65-.7c0-.75,1.24-.7,2.15-1.4a10.77,10.77,0,0,0,2.8-4.09ZM197,59.7c.64,0,1-.22,1-.54a2.9,2.9,0,0,0-.27-.91l-4.89-12.59c-.16-.43-.43-.64-.65-.64s-.48.16-.7.59L185.68,58a2.08,2.08,0,0,0-.33,1c0,.48.43.7,1.35.7Zm25.2-17.37c0-1-.38-1.35-1.51-1.35h-7.47c-2,0-3.12,1-4,3.07-.59,1.45-.48,2.63-1.34,2.63-.43,0-.54-.21-.54-.7a7,7,0,0,1,.06-.91l.59-5.43c.11-1.08.48-1.13,1.77-1.13s3.28.32,6.35.32h16.78c3.39,0,5.7-.32,6.88-.32.75,0,1.08.27,1.13.91l.38,4.9v.37c0,.65-.16,1-.65,1-1,0-.59-1.4-1.18-2.52a4.65,4.65,0,0,0-4.36-2.2h-7c-1.23,0-1.66.26-1.66,1.4V69.65c0,2.69.1,3.71,2,4.57s3,.37,3,1.34c0,.54-.38.8-1.18.8-1.56,0-3.61-.37-6.14-.37-3.06,0-5.05.48-6,.48-.65,0-1-.27-1-.75,0-1.18,1.72-.75,3.18-1.4,1.93-.86,1.93-2,1.93-4.9Zm35.45,0c0-1-.38-1.35-1.51-1.35h-7.48c-2,0-3.11,1-4,3.07-.59,1.45-.48,2.63-1.34,2.63-.43,0-.54-.21-.54-.7a6.94,6.94,0,0,1,.05-.91l.59-5.43c.11-1.08.49-1.13,1.78-1.13s3.28.32,6.34.32h16.78c3.39,0,5.7-.32,6.89-.32.75,0,1.07.27,1.12.91l.38,4.9v.37c0,.65-.16,1-.65,1-1,0-.59-1.4-1.18-2.52A4.63,4.63,0,0,0,270.5,41h-7c-1.24,0-1.67.26-1.67,1.4V69.65c0,2.69.11,3.71,2,4.57s3,.37,3,1.34c0,.54-.37.8-1.18.8-1.56,0-3.6-.37-6.13-.37-3.07,0-5.06.48-6,.48-.65,0-1-.27-1-.75,0-1.18,1.72-.75,3.17-1.4,1.94-.86,1.94-2,1.94-4.9Zm33-4.09c.27-.54.42-.75.86-.75s.48.32.7.86l12.2,31.08c1,2.64,2,4.36,3.71,5.06,1.24.54,2.48.22,2.48,1.13,0,.48-.22.64-.7.64-.76,0-2.85-.32-6.19-.32a39.92,39.92,0,0,0-5,.38.7.7,0,0,1-.59-.65c0-.64.49-.7,1.24-1,1.18-.44,1.78-.92,1.78-1.89a5.83,5.83,0,0,0-.54-2l-2.8-7.26c-.48-1.24-.91-1.67-2.31-1.67h-12.1c-1.45,0-1.83.7-2.42,2l-2.63,5.7a6.78,6.78,0,0,0-.8,2.74,2.65,2.65,0,0,0,2,2.37c.92.38,1.94.06,1.94,1,0,.48-.27.64-.86.64-1,0-3.12-.32-6.13-.32-1,.06-2,.17-3,.32a.7.7,0,0,1-.65-.7c0-.75,1.24-.7,2.15-1.4a11,11,0,0,0,2.8-4.08Zm4.14,21.46c.64,0,1-.22,1-.54a2.9,2.9,0,0,0-.27-.91l-4.89-12.59c-.17-.43-.44-.64-.65-.64s-.48.16-.7.59L283.46,58a2.07,2.07,0,0,0-.32,1c0,.48.43.7,1.34.7Zm23.3-6.45c.05-1,.05-1.89.05-2.75,0-4.19-.43-7-2.31-8.92S312,40.39,312,39.21c0-.54.33-.65,1-.65.43,0,1.24.11,2.31.11h1.46a1.67,1.67,0,0,1,1.66.65L344,68.09c.27.27.43.43.6.43s.16-.32.16-.92V49.27c0-4.52-.27-7.16-1.94-8.23-1.88-1.18-3.87-.81-3.87-1.78a.67.67,0,0,1,.59-.7,39.74,39.74,0,0,0,4.36.44c2.58,0,4.35-.44,5.21-.44.65,0,1,.27,1,.65,0,1-1,.59-1.89,1.34s-1.45,2.58-1.45,5.11V75.24c0,.92,0,1.4-.64,1.4-.27,0-.59-.27-1-.7L321,48.68c-.32-.38-.54-.54-.59-.54a.64.64,0,0,0-.32.59l-.49,19c0,.81-.05,1.51-.05,2.15,0,2.59.32,3.82,2.15,4.73,1.29.65,2.58.06,2.58,1,0,.64-.38.75-1.24.75-1.29,0-3.33-.32-6.13-.32-1.56,0-2.69.32-3.28.32s-.7-.16-.7-.59c0-1.07,1.13-.81,2.32-1.51,2.2-1.34,2.2-3.12,2.31-7Zm38.78-9.79a18.72,18.72,0,0,1,13.71-5.7c5.81,0,10.59,1.88,14.2,5.65A19.44,19.44,0,0,1,390,57.06a20.55,20.55,0,0,1-4.84,13.5,18.88,18.88,0,0,1-14.53,6.62c-11.62,0-19.52-8-19.52-19.69a20,20,0,0,1,5.7-14ZM358.66,68c2.85,4.79,7.1,7.32,12.32,7.32,9.09,0,14.95-6.24,14.95-16.62a23.11,23.11,0,0,0-4-12.69A13.72,13.72,0,0,0,370,39.64c-8.82,0-14.84,6.29-14.84,16.18A23.3,23.3,0,0,0,358.66,68Zm40.56-24.57a18.72,18.72,0,0,1,13.71-5.7c5.81,0,10.6,1.88,14.2,5.65A19.42,19.42,0,0,1,432.4,57a20.51,20.51,0,0,1-4.83,13.5A18.87,18.87,0,0,1,413,77.18c-11.62,0-19.52-8-19.52-19.69a20,20,0,0,1,5.69-14ZM401.05,68c2.85,4.79,7.1,7.32,12.31,7.32,9.09,0,14.95-6.24,14.95-16.62a23.11,23.11,0,0,0-4-12.69,13.72,13.72,0,0,0-11.89-6.4c-8.81,0-14.84,6.29-14.84,16.18A23.28,23.28,0,0,0,401,68Zm64-6.88a2.78,2.78,0,0,0-1.83-3c-1-.43-2.26-.16-2.26-1.07,0-.65.32-.76,1.08-.76s2.74.33,5.54.33a36.69,36.69,0,0,0,3.92-.27c.38,0,.54.16.54.53,0,.92-.75.76-1.45,1.3A3.07,3.07,0,0,0,469.51,61v8.34c0,.27.06.64.06,1.13,0,1.29-.86,1.18-2.37,2-3.6,2-7.42,4.41-13.61,4.41-10.8,0-17.9-7.42-17.9-18.93a21,21,0,0,1,5.59-14.9c3.39-3.55,7.58-5.16,13.12-5.16A22.7,22.7,0,0,1,464,40c1.66.75,2.63,1.56,3.33,1.56.43,0,.86-.49,1.24-.49s.48.38.54,1.08l.53,5.59a7.07,7.07,0,0,1,.06,1.13c0,.59-.11.86-.59.86-1,0-1-2-2.9-4.52a15.5,15.5,0,0,0-12.05-5.86c-8.12,0-14.14,6.61-14.14,16.4C440.05,67.2,446.61,75,455,75a14,14,0,0,0,8-2.58c1.56-1.13,2-2.63,2-5Zm26.2-22.91c.27-.54.43-.75.86-.75s.48.32.7.86L505,69.43c1,2.64,2,4.36,3.71,5.06,1.24.53,2.48.21,2.48,1.12,0,.49-.22.65-.7.65-.76,0-2.85-.32-6.19-.32a41.89,41.89,0,0,0-5,.37.67.67,0,0,1-.59-.64c0-.65.48-.7,1.24-1,1.18-.43,1.77-.91,1.77-1.88a5.61,5.61,0,0,0-.54-2l-2.79-7.26c-.49-1.24-.92-1.67-2.32-1.67H484c-1.45,0-1.83.7-2.42,2L479,69.56a7,7,0,0,0-.81,2.74c0,1,.65,1.83,2,2.37.92.37,1.94,0,1.94,1,0,.49-.27.65-.86.65-1,0-3.12-.32-6.13-.32-1,.06-2,.16-3,.32a.7.7,0,0,1-.65-.7c0-.75,1.24-.7,2.15-1.4a11,11,0,0,0,2.8-4.09Zm4.13,21.46c.65,0,1-.21,1-.54a3.26,3.26,0,0,0-.26-.91l-4.9-12.58c-.16-.44-.43-.65-.64-.65s-.49.16-.71.59L484.09,58a2.07,2.07,0,0,0-.32,1c0,.48.43.7,1.34.7Z"/>
    <path class="cls-1" d="M39.42,50.4H74.53L68.59,76.3H25.79c-12.1,0-18.92-2.09-22.79-7C.08,65.63-.71,60.78.64,54.91L8.66,20A21.27,21.27,0,0,1,20.58,5c4.91-2.32,11.21-3.4,19.83-3.4H85.7l-7.57,33h-35Zm1-45c-8,0-13.82,1-18.2,3a17.3,17.3,0,0,0-9.83,12.38l-8,34.94C3.29,60.53,3.82,64.17,6,66.93c3.06,3.86,9,5.51,19.78,5.51H65.53l4.18-18.18H34.6l7-30.64h7.9l-1.62,7.07H75.07l5.8-25.26Z"/>
    <path class="cls-2" d="M77.53,8.1,73,28H51.25l1.63-7H39.52L31.26,57H66.37l-3,12.84H25.77C11.65,69.77,4.51,67.06,7,56.41l8-34.95C17.37,11.07,26.44,8.1,40.44,8.1Z"/>
    <path class="cls-1" d="M509.78,30.31H97.21a.61.61,0,0,0-.61.61h0a.61.61,0,0,0,.61.61H509.78a.62.62,0,0,0,0-1.23Z"/>
    <path class="cls-1" d="M100.56,1.72c-.85-.68-1.76-.25-1.76-1,0-.33.19-.39.62-.39s1.56.16,3.09.16a32,32,0,0,0,3.25-.16c.29,0,.46.13.46.36,0,.74-1,.42-1.63,1s-.59,1.53-.59,3v8c0,3.06,0,5.3,1.11,7a6.23,6.23,0,0,0,5.53,2.6c2.6,0,4.49-.74,5.76-2.4s1.34-4,1.34-7V4.65c0-1.52-.14-2.31-1-2.93s-2-.29-2-.91c0-.39.2-.45.68-.45.75,0,1.63.16,2.64.16,1.5,0,2.44-.16,2.73-.16s.42.13.42.36c0,.71-.91.52-1.53,1.14S119,3.36,119,4.65v7.23c0,3.74,0,6.5-1.75,8.68a8.42,8.42,0,0,1-7,3.06c-3.12,0-5.46-.85-7-2.54-1.82-2-2-4.58-2-8.13V4.65C101.47,3.29,101.44,2.41,100.56,1.72ZM126,9.24V7.58c0-2.54-.26-4.26-1.4-5.4s-2.34-.71-2.34-1.43c0-.33.19-.39.59-.39s.74.06,1.4.06h.87a1,1,0,0,1,1,.4l15.52,17.4c.16.16.26.26.36.26s.1-.2.1-.55V6.83c0-2.73-.16-4.33-1.17-5s-2.34-.49-2.34-1.08a.39.39,0,0,1,.35-.42,26.21,26.21,0,0,0,2.64.26c1.56,0,2.63-.26,3.15-.26s.62.16.62.39c0,.58-.62.36-1.14.81a4.3,4.3,0,0,0-.88,3.09v17.9c0,.55,0,.84-.38.84-.17,0-.36-.16-.59-.42L127.78,6.48c-.19-.23-.32-.33-.36-.33a.38.38,0,0,0-.19.36L126.94,18v1.3c0,1.56.2,2.31,1.3,2.86.78.39,1.56,0,1.56.62,0,.39-.22.46-.74.46-.79,0-2-.2-3.71-.2-1,0-1.63.2-2,.2s-.42-.1-.42-.36c0-.65.68-.49,1.4-.91,1.33-.81,1.33-1.89,1.4-4.26Zm24.81-4.59c0-1.4-.06-2.24-1-2.93S148,1.47,148,.72c0-.33.2-.42.65-.42s1.63.2,3.26.2a33.59,33.59,0,0,0,3.61-.2.47.47,0,0,1,.52.41h0c0,.65-1.11.45-1.89,1.11s-.75,1.46-.75,2.8V18.77c0,1.46.1,2.38,1,3.06s1.92.26,1.92.94c0,.39-.19.46-.68.46-1.05,0-2.18-.2-3.52-.2a32.33,32.33,0,0,0-3.41.2c-.33,0-.52-.16-.52-.42,0-.62.94-.49,1.75-1.2s.88-1.56.88-2.87Zm9.5-.94a4.68,4.68,0,0,0-1.6-2.24c-.65-.4-1.23-.1-1.23-.69,0-.33.19-.42.55-.42s1.2.16,2.8.16c1.37,0,2.18-.16,2.47-.16s.56.13.56.39c0,.49-1.3.36-1.3,1.59a5.48,5.48,0,0,0,.55,1.86l6.08,14.51c.13.32.29.52.46.52s.32-.2.45-.52l4.75-11.62a15.24,15.24,0,0,0,1.37-4.81,1.08,1.08,0,0,0-.91-1c-.65-.16-1.14-.16-1.14-.58s.23-.36.68-.36,1.43.13,2.54.13a19,19,0,0,0,2-.13c.32,0,.52.1.52.39s-.65.49-1,.84a14.84,14.84,0,0,0-2,4l-7.48,17.71c-.13.29-.32.45-.52.45s-.39-.16-.52-.52ZM184,4.65c0-1.4-.06-2.24-.94-2.93s-1.83-.29-1.83-.91c0-.39.17-.48.62-.48s2.25.2,6,.2c4.72,0,7.32-.3,7.84-.3s.65.1.65.65v.43L196.05,4c0,.46-.1.68-.39.68s-.43-.19-.43-.58V3.74c0-1.72-1.2-2.15-4-2.15H189c-1.85,0-2.5.13-2.5,1.3v6.7c0,1,0,1.24,1.1,1.24h2.67c1.63,0,2.64-.13,3.26-1,.45-.65.32-1.5.84-1.5.23,0,.4.23.4.72s-.14,1.43-.14,3a18.6,18.6,0,0,0,.17,2.24c0,.43-.23.69-.46.69-.62,0-.39-.82-.68-1.6-.39-1-1.4-1.23-3.12-1.23h-3c-.85,0-1,.2-1,1.07v6.64c0,1.66.58,2,2.67,2a13.47,13.47,0,0,0,6.7-1.56c1.23-.78,1.46-1.82,1.92-1.82.16,0,.29.19.29.55a5,5,0,0,1-1,2.5,3.93,3.93,0,0,1-3.52,1.69c-1.07,0-3-.2-5.72-.2-3.61,0-5.47.23-5.76.23a.42.42,0,0,1-.36-.39c0-.69.85-.52,1.53-1.24a3.85,3.85,0,0,0,.75-2.89Zm18.47,0c0-1.4-.06-2.24-.94-2.93s-1.79-.29-1.79-.91c0-.39.16-.45.62-.45s1.59.16,3.15.16c1,0,2.67-.16,4.92-.16,4.45,0,6.93,2.15,6.93,5.5a6.19,6.19,0,0,1-4.07,5.66L215,17.21c1.56,2.38,2.6,4.1,3.94,4.78.78.4,1.46.2,1.46.66s-.55.58-1.79.58c-2.6,0-3.84-1.53-5.5-4.16l-3.38-5.37c-.81-1.27-1.56-1.34-3.19-1.34-1.14,0-1.56.14-1.56,1.14v5.27c0,1.46.1,2.38,1.11,3.06s2.11.26,2.11.94c0,.36-.16.46-.62.46-.68,0-1.88-.2-3.64-.2a33.45,33.45,0,0,0-3.61.2c-.33,0-.52-.16-.52-.42,0-.62,1-.49,1.79-1.2s.84-1.56.84-2.87ZM205,10.54c0,.72.52.75,1.79.75h.33c4,0,5.79-1.27,5.79-4.56s-2.22-5.27-6.15-5.27c-1.3,0-1.76.17-1.76,1.18Zm15.87,7.09a2.25,2.25,0,0,1-.07-.58c0-.36.13-.52.4-.52.55,0,.55.94,1.33,2.5a6.12,6.12,0,0,0,5.66,3.29c3.35,0,5.43-2,5.43-4.95s-1.82-3.84-5.4-4.88c-4.55-1.33-6.7-2.86-6.7-6.54,0-3.41,2.77-5.95,7.16-5.95a13.45,13.45,0,0,1,4.46,1c.39,0,.68-.36.88-.36s.19.16.22.45l.46,4a3.09,3.09,0,0,1,0,.43c0,.29-.1.45-.39.45-.62,0-.49-.84-1.2-1.95A5.48,5.48,0,0,0,228,1c-2.8,0-4.81,1.72-4.81,4,0,2.64,1.72,3.32,4.78,4.3,2.28.71,4.1,1.3,5.24,2.34a6.41,6.41,0,0,1,2.08,5c0,4.07-2.93,6.8-8,6.8-3.22,0-5.5-1-5.73-2.21Zm20-13c0-1.4-.07-2.24-1-2.93S238,1.46,238,.75c0-.33.2-.42.65-.42s1.63.2,3.25.2a33.45,33.45,0,0,0,3.61-.2c.33,0,.52.2.52.42,0,.65-1.1.45-1.88,1.11s-.75,1.46-.75,2.8V18.77c0,1.46.1,2.38,1,3.06s1.92.26,1.92.94c0,.39-.2.46-.69.46-1,0-2.17-.2-3.51-.2a32.68,32.68,0,0,0-3.42.2c-.32,0-.51-.16-.51-.42,0-.62.94-.49,1.75-1.2s.88-1.56.88-2.87Zm15.9-2c0-.62-.23-.82-.91-.82h-4.52a2.5,2.5,0,0,0-2.44,1.86c-.36.87-.3,1.6-.82,1.6-.25,0-.32-.14-.32-.43a5,5,0,0,1,0-.55L248.14,1c.06-.65.29-.68,1.07-.68s2,.2,3.84.2H263.2c2.05,0,3.45-.2,4.17-.2.45,0,.65.16.68.55l.23,3V4.1c0,.39-.1.62-.39.62-.59,0-.36-.85-.72-1.53a2.8,2.8,0,0,0-2.63-1.34h-4.23c-.75,0-1,.17-1,.85V19.16c0,1.63.06,2.25,1.23,2.77s1.79.23,1.79.81c0,.33-.23.49-.71.49-.95,0-2.18-.23-3.71-.23-1.86,0-3.06.3-3.61.3-.39,0-.62-.17-.62-.46,0-.72,1-.46,1.92-.85,1.17-.52,1.17-1.23,1.17-3Zm20.52,10.8a3.57,3.57,0,0,0-.45-2l-5-8a4.52,4.52,0,0,0-1.93-2.08c-.58-.23-1.13,0-1.13-.59,0-.32.16-.45.58-.45s1.5.16,3.09.16,2.41-.16,2.7-.16.46.13.46.39c0,.49-.23.42-.62.55a.9.9,0,0,0-.71.88,2.6,2.6,0,0,0,.48,1.37L278.9,10c.13.19.22.29.29.29a.52.52,0,0,0,.36-.19l3.57-5.6a4.3,4.3,0,0,0,.79-2,1.27,1.27,0,0,0-1-1.17c-.75-.23-1.43,0-1.43-.62,0-.29.16-.42.55-.42.56,0,1.43.16,2.54.16,1.6,0,2.51-.16,2.77-.16a.38.38,0,0,1,.42.42c0,.58-.62.49-1,.81a18.62,18.62,0,0,0-2.24,3.06l-4.1,6.25a3.09,3.09,0,0,0-.62,1.92v5.95c0,1.53,0,2.44.88,3.09s1.72.26,1.72.91c0,.36-.16.46-.62.46-.91,0-2-.2-3.22-.2s-2.28.08-3.42.2c-.32,0-.51-.16-.51-.42,0-.66,1.07-.52,1.82-1.14s.81-1.5.81-2.93Zm62.5-10.8c0-.62-.23-.82-.91-.82h-4.51a2.5,2.5,0,0,0-2.44,1.86c-.36.87-.3,1.6-.82,1.6-.26,0-.32-.14-.32-.43a5,5,0,0,1,0-.55L331.17,1c.06-.65.29-.68,1.07-.68s2,.2,3.84.2h10.15c2,0,3.45-.2,4.17-.2.45,0,.65.16.68.55l.23,3V4.1c0,.39-.1.62-.39.62-.59,0-.36-.85-.72-1.53a2.82,2.82,0,0,0-2.64-1.34h-4.23c-.75,0-1,.17-1,.85V19.16c0,1.63.07,2.25,1.24,2.77s1.79.23,1.79.81c0,.33-.23.49-.72.49-.94,0-2.18-.23-3.71-.23-1.85,0-3.06.3-3.61.3-.39,0-.62-.17-.62-.46,0-.72,1-.46,1.92-.85,1.17-.52,1.17-1.23,1.17-3Zm15.61,2c0-1.4-.07-2.24-.94-2.93s-1.82-.29-1.82-.91c0-.39.16-.48.61-.48s2.25.2,6,.2c4.72,0,7.32-.3,7.84-.3s.65.1.65.65v.43L367.47,4c0,.46-.1.68-.39.68s-.43-.19-.43-.58V3.74c0-1.72-1.2-2.15-4-2.15h-2.28c-1.86,0-2.5.13-2.5,1.3v6.7c0,1,0,1.24,1.1,1.24h2.67c1.62,0,2.64-.13,3.25-1,.46-.65.33-1.5.85-1.5.23,0,.39.23.39.72s-.13,1.43-.13,3a18.6,18.6,0,0,0,.16,2.24c0,.43-.23.69-.46.69-.61,0-.38-.82-.68-1.6-.39-1-1.4-1.23-3.12-1.23h-3.06c-.84,0-1,.2-1,1.07v6.64c0,1.66.58,2,2.66,2a13.47,13.47,0,0,0,6.7-1.56c1.24-.78,1.46-1.82,1.92-1.82.17,0,.3.19.3.55a5,5,0,0,1-1,2.5A4,4,0,0,1,365,23.19c-1.07,0-3-.2-5.73-.2-3.61,0-5.46.23-5.75.23a.42.42,0,0,1-.36-.39c0-.69.84-.52,1.53-1.24s.75-1.59.75-2.86Zm18.5,4.59V7.56c0-2.54-.26-4.26-1.4-5.4s-2.34-.71-2.34-1.43c0-.33.2-.39.59-.39s.75.06,1.4.06H373a1,1,0,0,1,1,.4l15.52,17.4c.16.16.26.26.36.26s.1-.2.1-.55V6.83c0-2.73-.16-4.33-1.17-5S386.5,1.34,386.5.75a.39.39,0,0,1,.35-.42,26.21,26.21,0,0,0,2.64.26c1.56,0,2.63-.26,3.15-.26s.62.16.62.39c0,.58-.62.36-1.14.81a4.3,4.3,0,0,0-.88,3.09v17.9c0,.55,0,.84-.38.84-.16,0-.36-.16-.59-.42L375.72,6.48c-.2-.23-.32-.33-.35-.33a.39.39,0,0,0-.2.36L374.87,18v1.3c0,1.56.2,2.31,1.3,2.86.78.39,1.56,0,1.56.62,0,.39-.23.46-.75.46-.78,0-2-.2-3.71-.2-.94,0-1.63.2-2,.2s-.42-.1-.42-.36c0-.65.68-.49,1.4-.91,1.33-.81,1.33-1.89,1.4-4.26Zm24.69,0V7.56c0-2.54-.26-4.26-1.4-5.4s-2.34-.71-2.34-1.43c0-.33.2-.39.58-.39s.75.06,1.4.06h.88a1,1,0,0,1,1,.4l15.53,17.4c.16.16.26.26.36.26s.1-.2.1-.55V6.83c0-2.73-.17-4.33-1.17-5s-2.35-.49-2.35-1.08a.41.41,0,0,1,.36-.42,25.73,25.73,0,0,0,2.63.26c1.57,0,2.64-.26,3.16-.26s.62.16.62.39c0,.58-.62.36-1.14.81S416,3.12,416,4.65v17.9c0,.55,0,.84-.39.84-.16,0-.36-.16-.58-.42L400.41,6.48c-.2-.23-.33-.33-.36-.33a.39.39,0,0,0-.2.36L399.56,18v1.3c0,1.56.2,2.31,1.29,2.86.78.39,1.56,0,1.56.62,0,.39-.22.46-.74.46-.79,0-2-.2-3.71-.2-.95,0-1.63.2-2,.2s-.42-.1-.42-.36c0-.65.69-.49,1.4-.91,1.33-.81,1.33-1.89,1.4-4.26ZM423,4.65c0-1.4-.06-2.24-.94-2.93s-1.82-.29-1.82-.91c0-.39.16-.48.61-.48s2.25.2,6,.2c4.72,0,7.32-.3,7.84-.3s.65.1.65.65v.43L435.11,4c0,.46-.1.68-.39.68s-.42-.19-.42-.58V3.74c0-1.72-1.2-2.15-4-2.15H428c-1.85,0-2.5.13-2.5,1.3v6.7c0,1,0,1.24,1.11,1.24h2.67c1.62,0,2.63-.13,3.25-1,.45-.65.33-1.5.85-1.5.23,0,.39.23.39.72s-.13,1.43-.13,3a18.6,18.6,0,0,0,.16,2.24c0,.43-.23.69-.46.69-.62,0-.39-.82-.68-1.6-.39-1-1.4-1.23-3.13-1.23H426.5c-.85,0-1,.2-1,1.07v6.64c0,1.66.59,2,2.67,2a13.47,13.47,0,0,0,6.7-1.56c1.24-.78,1.46-1.82,1.92-1.82.16,0,.29.19.29.55a4.86,4.86,0,0,1-1,2.5,3.91,3.91,0,0,1-3.51,1.69c-1.08,0-3-.2-5.73-.2-3.61,0-5.46.23-5.76.23a.42.42,0,0,1-.35-.39c0-.69.84-.52,1.52-1.24a3.78,3.78,0,0,0,.76-2.86Zm15.87,13a1.88,1.88,0,0,1-.06-.58c0-.36.13-.52.39-.52.55,0,.55.94,1.33,2.5a6.13,6.13,0,0,0,5.67,3.29c3.35,0,5.43-2,5.43-4.95s-1.82-3.84-5.4-4.88c-4.55-1.33-6.7-2.86-6.7-6.54,0-3.41,2.77-5.95,7.16-5.95a13.33,13.33,0,0,1,4.45,1c.4,0,.69-.36.88-.36s.2.16.23.45l.46,4a3.09,3.09,0,0,1,0,.43c0,.29-.1.45-.39.45-.62,0-.49-.84-1.21-1.95A5.48,5.48,0,0,0,446,1c-2.8,0-4.82,1.72-4.82,4,0,2.64,1.73,3.32,4.78,4.3,2.28.71,4.1,1.3,5.24,2.34a6.37,6.37,0,0,1,2.09,5c0,4.07-2.93,6.8-8,6.8-3.22,0-5.5-1-5.73-2.21Zm17.24,0a2.25,2.25,0,0,1-.07-.58c0-.36.13-.52.4-.52.55,0,.55.94,1.33,2.5a6.12,6.12,0,0,0,5.66,3.29c3.35,0,5.43-2,5.43-4.95s-1.82-3.84-5.4-4.88c-4.55-1.33-6.7-2.86-6.7-6.54,0-3.43,2.8-6,7.24-6a13.45,13.45,0,0,1,4.46,1c.39,0,.68-.36.88-.36s.2.16.22.45l.46,4a3.09,3.09,0,0,1,0,.43c0,.29-.1.45-.4.45-.61,0-.48-.84-1.2-1.95a5.48,5.48,0,0,0-5.1-3c-2.8,0-4.82,1.72-4.82,4,0,2.64,1.72,3.32,4.78,4.3,2.28.71,4.1,1.3,5.24,2.34a6.36,6.36,0,0,1,2.08,5c0,4.07-2.93,6.8-8,6.8-3.22,0-5.5-1-5.72-2.21Zm19.66-13c0-1.4-.07-2.24-.95-2.93S473,1.43,473,.81c0-.39.16-.48.62-.48.29,0,2.24.2,6,.2,4.72,0,7.32-.3,7.84-.3s.65.1.65.65v.43L487.86,4c0,.46-.1.68-.39.68s-.42-.19-.42-.58V3.74c0-1.72-1.2-2.15-4-2.15h-2.28c-1.85,0-2.5.13-2.5,1.3v6.7c0,1,0,1.24,1.11,1.24h2.67c1.62,0,2.63-.13,3.25-1,.46-.65.33-1.5.85-1.5.22,0,.39.23.39.72s-.13,1.43-.13,3a18.6,18.6,0,0,0,.16,2.24c0,.43-.23.69-.46.69-.61,0-.39-.82-.68-1.6-.39-1-1.4-1.23-3.12-1.23h-3.06c-.84,0-1,.2-1,1.07v6.64c0,1.66.59,2,2.67,2a13.47,13.47,0,0,0,6.7-1.56c1.23-.78,1.46-1.82,1.92-1.82.16,0,.29.19.29.55a4.86,4.86,0,0,1-1,2.5,3.91,3.91,0,0,1-3.51,1.69c-1.08,0-3-.2-5.73-.2-3.61,0-5.46.23-5.76.23a.42.42,0,0,1-.35-.39c0-.69.84-.52,1.52-1.24a3.78,3.78,0,0,0,.76-2.86Zm18.27,0c0-1.4-.06-2.24-.94-2.93s-1.82-.29-1.82-.91c0-.39.16-.48.62-.48.29,0,2.24.2,6,.2,4.72,0,7.32-.3,7.84-.3s.65.1.65.65v.43L506.14,4c0,.46-.1.68-.39.68s-.42-.19-.42-.58V3.74c0-1.72-1.2-2.15-4-2.15h-2.27c-1.86,0-2.5.13-2.5,1.3v6.7c0,1,0,1.24,1.1,1.24h2.67c1.63,0,2.63-.13,3.25-1,.46-.65.33-1.5.85-1.5.23,0,.39.23.39.72s-.13,1.43-.13,3a18.6,18.6,0,0,0,.16,2.24c0,.43-.23.69-.45.69-.62,0-.39-.82-.69-1.6-.39-1-1.4-1.23-3.12-1.23h-3.06c-.85,0-1,.2-1,1.07v6.64c0,1.66.59,2,2.67,2a13.47,13.47,0,0,0,6.7-1.56c1.24-.78,1.47-1.82,1.92-1.82.17,0,.3.19.3.55a4.89,4.89,0,0,1-1.05,2.5,3.9,3.9,0,0,1-3.51,1.69c-1.07,0-3-.2-5.72-.2-3.61,0-5.47.23-5.76.23a.42.42,0,0,1-.36-.39c0-.69.85-.52,1.53-1.24a3.78,3.78,0,0,0,.75-2.86Z"/>
    <path class="cls-1" d="M309.13,5.26a9.28,9.28,0,0,0-13,0,9.27,9.27,0,0,0-2.64,6.52c0,5.47,3.64,9.14,9.07,9.14a8.73,8.73,0,0,0,6.74-3.07,9.42,9.42,0,0,0,2.25-6.27A9,9,0,0,0,309.13,5.26Zm.27,7.11c0,4.58-2.55,7.43-6.67,7.43a6.2,6.2,0,0,1-5.49-3.26,10.54,10.54,0,0,1-1.57-5.49c0-4.4,2.6-7.24,6.62-7.24a6.13,6.13,0,0,1,5.29,2.86A10.45,10.45,0,0,1,309.4,12.37ZM322,2.91a9.36,9.36,0,0,0-1.18.06c-.93.07-2.19.16-3.85.16h-1.15c-2.1,0-3.42-.09-4-.13h-.33c-.33,0-.63.06-.63.53s.33.44.63.5a1.71,1.71,0,0,1,.81.31c.58.45.65,1,.65,2.09V17a2.9,2.9,0,0,1-.5,2.06,1.9,1.9,0,0,1-.61.4c-.26.12-.54.24-.54.58a.46.46,0,0,0,.43.5h.35a15.19,15.19,0,0,1,1.91-.12c.56,0,1.1,0,1.57.09s.8.06,1.15.06.68,0,.68-.5-.36-.47-.68-.53a1.79,1.79,0,0,1-.83-.31c-.6-.45-.7-1-.7-2.18V12.81c0-.61,0-.65.55-.65h2.33c1.4,0,2,.22,2.21.83a2.9,2.9,0,0,1,.12.57c.05.35.1.74.55.74.24,0,.5-.24.5-.68v-.34a6.84,6.84,0,0,1-.11-1.28,11.35,11.35,0,0,1,.06-1.51,3.45,3.45,0,0,0,0-.8c0-.22,0-.72-.4-.72s-.47.35-.56.65a1.89,1.89,0,0,1-.23.55c-.41.61-1.08.72-2.32.72h-2c-.68,0-.68,0-.68-.78V5.05c0-.7.26-.82,1.73-.82h1.72c2.15,0,2.84.36,2.84,1.46v.1a.49.49,0,0,0,0,.17c0,.55.32.6.45.6.43,0,.46-.46.48-.66l.17-2V3.54C322.62,3.07,322.47,2.91,322,2.91Z"/>
  </g>
</svg>
