<?xml version="1.0" encoding="utf-8"?>
<!-- Generator: Adobe Illustrator 22.1.0, SVG Export Plug-In . SVG Version: 6.00 Build 0)  -->
<svg width="512px" height="78px" version="1.1" id="Layer_1" xmlns="http://www.w3.org/2000/svg" xmlns:xlink="http://www.w3.org/1999/xlink" x="0px" y="0px"
	 viewBox="0 0 624.5 78" style="enable-background:new 0 0 624.5 78;" xml:space="preserve">
<style type="text/css">
	.st0{fill:#112E51;}
	.st1{fill:#FFFFFF;}
	.st2{fill:#FDB736;}
</style>
<title>UTC Wordmark</title>
<g>
	<path class="st0" d="M108.7,16.1c0.1,2.3,0.2,2.7,0.7,3.5c0.6,0.8,1.4,1.2,2.6,1.3c0.5,0,0.6,0.1,0.6,0.5c0,0.3-0.1,0.4-0.5,0.4
		c-0.1,0-0.1,0-1.5-0.1c-2-0.2-2-0.2-2.5-0.2c-0.7,0-0.9,0-2.8,0.1l-2,0.1c-0.4,0-0.6,0.1-0.8,0.1c-0.3,0-0.4-0.1-0.4-0.4
		c0-0.5,0.2-0.6,0.7-0.6c1.8-0.3,2.6-1.3,2.4-3.6V4.3c0-1.3-0.2-1.5-1.5-1.5c-2.1,0-3.4,0.2-4.1,0.6S98.8,4.2,98.4,6
		c-0.2,0.8-0.4,1-0.6,1s-0.5-0.2-0.5-0.5c0-0.1,0-0.1,0.1-0.7c0.1-0.4,0.1-0.4,0.2-1.7c0.1-0.5,0.1-0.9,0.2-1.3
		c0.1-0.4,0.1-0.6,0.1-0.9c0-0.5,0.2-0.6,0.6-0.6c0.1,0,0.4,0,0.6,0c0.3,0,0.9,0,1.7,0.1h3c2.9,0,2.9,0,3.7,0c1.7,0,5.7-0.1,7.3-0.2
		h1.1c0.7,0,0.7,0,0.9,1.7c0.1,0.7,0.1,1.1,0.1,1.2c0.1,0.4,0.1,1.1,0.1,1.3c0,0.3-0.1,0.5-0.4,0.5c-0.3,0-0.4-0.1-0.5-0.6
		c-0.2-0.8-0.7-1.7-1.3-2.1c-0.6-0.4-1.2-0.6-2.6-0.6c-2.9,0-3.3,0.3-3.3,2.1L108.7,16.1L108.7,16.1z"/>
	<path class="st0" d="M127.2,11.5c-1.4,0-1.6,0.3-1.6,1.7v3.7c-0.1,2.7,0.8,3.9,2.8,3.9c0.4,0,0.6,0.1,0.6,0.4
		c0,0.4-0.2,0.5-0.7,0.5c-0.2,0-0.5,0-1.1-0.1c-1-0.1-2.5-0.2-3.1-0.2c-0.6,0-1.3,0.1-3.5,0.3h-0.2c-0.3,0-0.5-0.2-0.5-0.6
		c0-0.2,0.1-0.3,0.4-0.4c0.8-0.1,1.6-0.8,1.8-1.7c0.1-0.4,0.1-0.5,0.1-2.3V4.9c0.1-1.9-0.6-2.7-2.8-3c-0.4-0.1-0.5-0.1-0.5-0.4
		c0-0.4,0.2-0.5,0.5-0.5c0.2,0,0.6,0,1,0.1c0.6,0.1,1.9,0.2,2.9,0.2c0.3,0,0.3,0,2.2-0.2c0.6-0.1,1.5-0.1,1.7-0.1
		c0.3,0,0.5,0.2,0.5,0.4c0,0.3-0.1,0.4-0.5,0.5c-1.3,0.2-1.8,0.8-1.7,2.2v3.8c-0.1,1.9,0.1,2,1.7,2h7c1.2,0,1.4-0.4,1.3-2.4V4.8
		c0.1-1.9-0.6-2.7-2.8-2.9c-0.4-0.1-0.5-0.2-0.5-0.4c0-0.4,0.2-0.5,0.5-0.5c0.2,0,0.6,0,1,0.1c0.7,0.1,1.9,0.2,3.1,0.2
		c0.2,0,0.9-0.1,2-0.2c0.6-0.1,1.4-0.1,1.7-0.1c0.4,0,0.6,0.1,0.6,0.5c0,0.2-0.1,0.4-0.5,0.4c-1.3,0.2-1.8,0.8-1.7,2.2v12.8
		c-0.1,2.7,0.8,3.9,2.8,3.9c0.5,0,0.6,0.1,0.6,0.4c0,0.4-0.2,0.5-0.7,0.5c-0.2,0-0.5,0-1.1-0.1c-1-0.1-2.5-0.2-3.1-0.2
		c-0.6,0-1.3,0.1-3.5,0.3h-0.2c-0.3,0-0.5-0.2-0.5-0.6c0-0.2,0.1-0.3,0.4-0.4c0.8-0.1,1.6-0.8,1.8-1.7c0.1-0.4,0.1-0.5,0.1-2.3v-3.2
		c0-1.9-0.1-2.1-1.3-2.1h-7V11.5z"/>
	<path class="st0" d="M151.6,8c0,1.9,0.2,2.1,1.2,2.1h1.1h1.3c1.2,0,1.8-0.6,2.7-2.4c0.1-0.3,0.2-0.3,0.5-0.3c0.2,0,0.4,0.1,0.4,0.4
		c0,0.1,0,0.4-0.1,0.7c0,0.3,0,0.5,0,0.7s0,0.3,0.2,2.2c0.1,0.8,0.1,1.9,0.1,2.8c0,0.3-0.1,0.4-0.3,0.4c-0.3,0-0.4-0.2-0.5-0.6
		c-0.6-2.3-1-2.6-4.6-2.5c-1,0-1.4,0.1-1.5,0.6c-0.1,0.5-0.2,0.7-0.2,2.9v1.4c0,1.2,0.2,2.6,0.4,3c0.4,0.9,0.7,1.2,1.7,1.2
		c2.8,0,4.8-0.6,6.3-1.7c0.6-0.6,1.3-1.3,1.6-1.9c0.1-0.1,0.1-0.2,0.2-0.2c0.3,0,0.4,0.2,0.4,0.4c0,1-0.5,2.5-1.1,3.3
		c-0.9,1.3-2,1.7-3.9,1.7c-0.9,0-1.1,0-3.9-0.3c-0.6-0.1-1.5-0.1-2.5-0.1c-1.1,0-1.2,0-3.4,0.1h-0.9c-0.3,0-0.4-0.1-0.4-0.4
		c0-0.2,0.1-0.3,0.4-0.4c1.4-0.4,1.8-1.4,1.8-4.1V5.3c0-2.3-0.6-2.8-2.8-3.1c-0.3,0-0.4-0.1-0.4-0.5c0-0.2,0.2-0.4,0.5-0.4h0.5h0.7
		c2.6,0.1,3.9,0.1,7.6,0.1c1.4,0,4.8-0.1,5.5-0.1h0.3c0.3,0,0.4,0.1,0.4,0.5c0,0.3,0.1,0.7,0.1,1.2c0.1,1.4,0.1,1.5,0.1,1.8
		c0,0.7-0.3,1.2-0.6,1.2c-0.2,0-0.3-0.1-0.3-0.6c0-1.9-1.5-2.8-4.7-2.8h-1.4c-1.9,0-2.1,0.2-2.1,2.2V8H151.6z"/>
	<path class="st0" d="M177.2,4.6c0-1.7-0.4-2.2-2.6-2.7c-0.5-0.1-0.6-0.2-0.6-0.5s0.1-0.4,0.5-0.4c0.1,0,0.5,0,0.6,0.1
		c1.6,0.2,2,0.2,2.9,0.2s2-0.1,3.2-0.2c0.6,0,0.8-0.1,1-0.1c0.6,0,0.7,0.1,0.7,0.5c0,0.3-0.1,0.4-0.6,0.5c-0.7,0.1-0.9,0.2-1.2,0.6
		c-0.2,0.3-0.3,0.8-0.4,1.7c-0.1,1.4-0.2,2.6-0.3,3.8c0,7.2,0.1,7.4,0.7,8.8c1,2.1,3.2,3.4,6,3.4c1.4,0,2.9-0.5,4-1.3
		c1.7-1.2,2.4-3,2.6-6.9c0.1-1.3,0.1-2.5,0.1-4.3c0-2.3-0.1-3.4-0.3-4c-0.3-1.1-1.4-1.9-2.8-1.9c-0.5,0-0.6-0.1-0.6-0.5
		c0-0.3,0.1-0.4,0.3-0.4c0.1,0,0.2,0,0.4,0c0.3,0,2.4,0.2,2.9,0.2c0.5,0,1.7-0.1,2.6-0.2c0.2,0,0.4,0,0.5,0c0.3,0,0.5,0.1,0.5,0.4
		s0,0.3-0.9,0.5c-0.8,0.1-1.2,0.8-1.2,2.4v1.5c0,1.3-0.1,4.6-0.2,6.5c-0.2,3.5-1.1,6-2.7,7.4c-1.6,1.5-3.9,2.3-6.7,2.3
		c-2.8,0-5.1-0.7-6.4-1.9c-1.5-1.4-2.2-3.8-2.2-7.2l0.2-5.5L177.2,4.6z"/>
	<path class="st0" d="M216.8,13.5c1.2,1.4,1.6,1.7,1.8,1.7c0.2,0,0.3-0.2,0.4-0.4c0-0.3,0.2-5.2,0.2-7c0-4.5-0.7-5.7-3.5-6
		c-0.4,0-0.5-0.1-0.5-0.4s0.1-0.4,0.5-0.4c0.5,0,0.6,0,1.7,0.2c0.5,0.1,0.9,0.1,1.3,0.1c0.6,0,1.9-0.1,3.3-0.3c0.2,0,0.4,0,0.5,0
		c0.3,0,0.5,0.1,0.5,0.4s-0.1,0.4-0.5,0.5c-1.4,0.3-2,1.6-1.9,4.1l-0.2,9.3c-0.1,1.7-0.1,1.8-0.1,2.3c0,1.4,0,2.8,0.1,3.4v0.2
		c0,0.3-0.1,0.4-0.3,0.4c-0.2,0-0.4-0.2-0.6-0.4L206,6.2c-0.4-0.4-0.4-0.4-0.5-0.4c-0.3,0-0.4,0.3-0.4,1.1v5.8
		c0.1,7,0.4,7.6,3.3,8.1c0.4,0,0.5,0.2,0.5,0.4c0,0.3-0.2,0.5-0.5,0.5c-0.1,0-0.4,0-0.6-0.1c-0.7-0.1-2-0.2-2.8-0.2
		c-0.7,0-2.1,0.1-2.7,0.2c-0.3,0.1-0.6,0.1-0.7,0.1c-0.3,0-0.4-0.1-0.4-0.4c0-0.2,0.1-0.3,0.5-0.4c1.9-0.8,2-1.1,2.2-7.6v-1.7V6.9
		c0.1-2.8-1.2-4.7-3.4-4.8c-0.4,0-0.5-0.1-0.5-0.4s0.2-0.5,0.5-0.5h1c1.2,0,2.2,0,3.1-0.1c0.3,0,0.6-0.1,0.8-0.1
		c0.6,0,0.6,0.1,1.6,1.1c0.2,0.2,0.2,0.2,1.1,1.4c0.6,0.7,0.8,1,0.9,1.1L216.8,13.5z"/>
	<path class="st0" d="M232.1,16.4c0,3.2,0.6,4.2,2.8,4.4c0.6,0,0.7,0.1,0.7,0.5c0,0.4-0.2,0.5-0.9,0.5c-0.3,0-0.7,0-1.2-0.1
		c-1.7-0.2-2.1-0.2-3.2-0.2c-0.9,0-1.7,0.1-2.3,0.2c-0.5,0.1-0.9,0.2-1.1,0.2c-0.3,0-0.5-0.2-0.5-0.5c0-0.2,0.1-0.3,0.5-0.3
		c0.6-0.1,1.4-0.7,1.6-1.3c0.2-0.6,0.2-0.7,0.2-2.8v-0.8V5.8c0.1-2.4-0.4-3-2.2-3.3c-1-0.2-1.2-0.3-1.2-0.6c0-0.3,0.1-0.4,0.4-0.4
		c0.2,0,0.5,0.1,0.8,0.1c0.4,0.1,1,0.1,1.8,0.1c0.7,0,1.4,0,3.1-0.2c1-0.1,1.7-0.1,2.4-0.1c0.4,0,0.5,0.1,0.5,0.4
		c0,0.4-0.1,0.5-0.5,0.5c-1.6,0.3-1.7,0.6-1.7,2.8L232.1,16.4L232.1,16.4z"/>
	<path class="st0" d="M248.9,16.8c0.2,0.5,0.3,0.6,0.4,0.6c0.2,0,0.2-0.1,0.4-0.5l3.3-7.4c1-2.2,1.7-4.2,1.7-5.2
		c0-0.6-0.4-1.4-0.8-1.7c-0.4-0.3-0.8-0.5-1.7-0.6c-0.4-0.1-0.6-0.2-0.6-0.5s0.1-0.4,0.4-0.4c0.2,0,0.2,0,2.4,0.1
		c0.7,0,1.2,0.1,1.6,0.1c0.6,0,1.4-0.1,2.3-0.2c0.5-0.1,0.6-0.1,0.6-0.1c0.2,0,0.3,0.2,0.3,0.4c0,0.3-0.1,0.4-0.5,0.5
		c-1.5,0.4-1.5,0.4-5.1,9l-3.9,8.5c-0.6,1-0.8,1.7-0.9,1.9c-0.2,0.5-0.4,0.6-0.7,0.6c-0.3,0-0.3,0-0.8-1.1l-0.4-0.9l-3.5-8
		c-0.4-0.7-0.6-1.6-1-2.3c-0.3-0.6-0.7-1.7-1.2-2.9c-1.3-3.5-1.7-4.2-3.2-4.7c-0.5-0.1-0.6-0.3-0.6-0.6c0-0.3,0.1-0.4,0.5-0.4h0.5
		c0.3,0,3.5,0.2,4,0.2c0.8,0,0.9,0,1.8-0.1c0.6,0,1.1-0.1,1.4-0.1s0.4,0.1,0.4,0.5c0,0.3-0.2,0.4-0.6,0.5c-0.7,0.2-1.1,0.6-1.1,1.3
		c0,1,0.4,2.2,1.7,5.3L248.9,16.8z"/>
	<path class="st0" d="M267.6,8c0,1.9,0.2,2.1,1.2,2.1h1.1h1.3c1.2,0,1.8-0.6,2.7-2.4c0.1-0.3,0.2-0.3,0.5-0.3c0.2,0,0.4,0.1,0.4,0.4
		c0,0.1,0,0.4-0.1,0.7c0,0.3,0,0.5,0,0.7s0,0.3,0.2,2.2c0.1,0.8,0.1,1.9,0.1,2.8c0,0.3-0.1,0.4-0.3,0.4c-0.3,0-0.4-0.2-0.5-0.6
		c-0.6-2.3-1-2.6-4.6-2.5c-1,0-1.4,0.1-1.5,0.6c-0.1,0.5-0.2,0.7-0.2,2.9v1.4c0,1.2,0.2,2.6,0.4,3c0.4,0.9,0.7,1.2,1.7,1.2
		c2.8,0,4.8-0.6,6.3-1.7c0.6-0.6,1.3-1.3,1.6-1.9c0.1-0.1,0.1-0.2,0.2-0.2c0.3,0,0.4,0.2,0.4,0.4c0,1-0.5,2.5-1.1,3.3
		c-0.9,1.3-2,1.7-3.9,1.7c-0.9,0-1.1,0-3.9-0.3c-0.6-0.1-1.5-0.1-2.5-0.1c-1.1,0-1.2,0-3.4,0.1h-0.9c-0.3,0-0.4-0.1-0.4-0.4
		c0-0.2,0.1-0.3,0.4-0.4c1.4-0.4,1.8-1.4,1.8-4.1V5.3c0-2.3-0.6-2.8-2.8-3.1c-0.3,0-0.4-0.1-0.4-0.5c0-0.2,0.2-0.4,0.5-0.4h0.5h0.7
		c2.6,0.1,3.9,0.1,7.6,0.1c1.4,0,4.8-0.1,5.5-0.1h0.3c0.3,0,0.4,0.1,0.4,0.5c0,0.3,0.1,0.7,0.1,1.2c0.1,1.4,0.1,1.5,0.1,1.8
		c0,0.7-0.3,1.2-0.6,1.2c-0.2,0-0.3-0.1-0.3-0.6c0-1.9-1.5-2.8-4.7-2.8h-1.7c-1.9,0-2.1,0.2-2.1,2.2V8z"/>
	<path class="st0" d="M287.4,8.9c0,1.2,0,1.2,0.2,1.5c0.2,0.4,0.5,0.5,1.2,0.5c3.7,0,3.9,0,4.6-0.7c0.7-0.6,1.1-1.5,1.1-2.6
		c0-3-2.2-5.2-5.1-5.2c-1.4,0-1.8,0.5-1.8,1.9L287.4,8.9L287.4,8.9z M287.4,15.8c0,3.8,0.5,4.7,2.6,5c0.5,0,0.6,0.2,0.6,0.5
		s-0.1,0.4-0.5,0.4h-0.6c-0.9-0.1-1.7-0.1-2.5-0.1c-1,0-1.6,0-3,0.2c-0.8,0.1-1.4,0.1-1.7,0.1c-0.4,0-0.5-0.1-0.5-0.5
		c0-0.3,0-0.3,0.3-0.4c1.6-0.5,1.8-1,1.8-3.9v-0.6V5.8c0.1-2.4-0.6-3.2-2.8-3.6c-0.5-0.1-0.6-0.2-0.6-0.6c0-0.3,0.1-0.4,0.4-0.4
		c0.1,0,0.4,0,0.6,0c0.6,0.1,1.7,0.1,2.4,0.1c0.9,0,2.7-0.1,3.8-0.2c1.6-0.1,2.8-0.2,3.5-0.2c3.8,0,6.5,2.3,6.5,5.4
		c0,2-1.1,3.6-3.1,4.5c-0.2,0.1-0.3,0.2-0.3,0.3c0,0.1,0.1,0.2,0.2,0.4c0,0.1,0.2,0.4,0.4,0.7c0.5,0.7,1,1.7,1.3,2.4l1.6,2.7
		c1,1.8,1.7,2.5,2.8,2.5c0.2,0,0.5,0,0.6-0.1c0.2,0,0.3-0.1,0.4-0.1c0.2,0,0.3,0.2,0.3,0.4c0,0.6-2.1,1.6-3.3,1.6
		c-1.1,0-2.1-0.6-3-1.7c-0.6-0.8-2-3.2-3.1-5.5c-0.8-1.7-1.1-2-1.7-2.3c-0.5-0.2-0.8-0.2-2.3-0.2c-0.8,0-0.8,0.1-0.8,1.2L287.4,15.8
		L287.4,15.8z"/>
	<path class="st0" d="M316.3,3.3c0,0.5,0,0.6,0.2,2.1c0.1,0.6,0.2,1.5,0.2,1.7c0,0.4-0.1,0.6-0.4,0.6c-0.2,0-0.4-0.2-0.5-0.6
		c-0.6-2.8-3.2-5.1-5.9-5.1c-1.7,0-3.3,1.5-3.3,3c0,0.8,0.5,1.7,1.1,2.2c0.6,0.4,1,0.6,3.3,1.6c2.4,1,3.5,1.7,4.3,2.5
		c1,1.1,1.7,2.7,1.7,4.3c0,1.7-0.6,3.2-1.8,4.5c-1.2,1.2-2.8,1.9-4.3,1.9c-0.7,0-1.9-0.3-3.3-0.7c-1-0.4-1.1-0.4-1.6-0.5
		c-0.6-0.2-0.6-0.2-0.8-0.3c-0.1-0.1-0.2-0.2-0.2-0.8c0-0.4-0.3-1.3-0.5-2c-0.6-2-0.6-2-0.6-2.6c0-0.5,0.2-0.7,0.5-0.7
		c0.2,0,0.3,0.1,0.3,0.4c1,3.4,3.7,6.1,6.2,6.1c2.1,0,3.9-1.8,3.9-3.8c0-1-0.5-1.9-1.2-2.5c-0.6-0.4-0.6-0.4-3.9-1.8
		c-2.5-1.1-3.3-1.7-4.2-2.7c-0.8-0.9-1.3-2.1-1.3-3.6c0-3.2,2.5-5.7,5.6-5.7c1.2,0,1.7,0.1,3.7,0.9c0.5,0.2,0.7,0.3,0.9,0.3
		c0.2,0,0.2,0,1-0.4c0.1,0,0.2-0.1,0.3-0.1c0.3,0,0.3,0.1,0.3,0.6L316.3,3.3z"/>
	<path class="st0" d="M327.3,16.4c0,3.2,0.6,4.2,2.8,4.4c0.6,0,0.7,0.1,0.7,0.5c0,0.4-0.2,0.5-0.9,0.5c-0.3,0-0.7,0-1.2-0.1
		c-1.7-0.2-2.1-0.2-3.2-0.2c-0.9,0-1.7,0.1-2.3,0.2c-0.5,0.1-0.9,0.2-1.1,0.2c-0.3,0-0.5-0.2-0.5-0.5c0-0.2,0.1-0.3,0.5-0.3
		c0.6-0.1,1.4-0.7,1.6-1.3c0.2-0.6,0.2-0.7,0.2-2.8v-0.8V5.8c0.1-2.4-0.4-3-2.2-3.3c-1-0.2-1.2-0.3-1.2-0.6c0-0.3,0.1-0.4,0.4-0.4
		c0.2,0,0.5,0.1,0.8,0.1c0.4,0.1,1,0.1,1.8,0.1c0.7,0,1.4,0,3.1-0.2c1-0.1,1.7-0.1,2.4-0.1c0.4,0,0.5,0.1,0.5,0.4
		c0,0.4-0.1,0.5-0.5,0.5c-1.6,0.3-1.7,0.6-1.7,2.8L327.3,16.4L327.3,16.4z"/>
	<path class="st0" d="M344.3,16.1c0.1,2.3,0.2,2.7,0.7,3.5c0.6,0.8,1.4,1.2,2.6,1.3c0.5,0,0.6,0.1,0.6,0.5c0,0.3-0.1,0.4-0.5,0.4
		c-0.1,0-0.1,0-1.5-0.1c-2-0.2-2-0.2-2.5-0.2c-0.7,0-0.9,0-2.8,0.1l-2,0.1c-0.4,0-0.6,0.1-0.8,0.1c-0.3,0-0.4-0.1-0.4-0.4
		c0-0.5,0.2-0.6,0.7-0.6c1.8-0.3,2.6-1.3,2.4-3.6V4.3c0-1.3-0.2-1.5-1.5-1.5c-2.1,0-3.4,0.2-4.1,0.6S334.4,4.2,334,6
		c-0.2,0.8-0.4,1-0.6,1c-0.3,0-0.5-0.2-0.5-0.5c0-0.1,0-0.1,0.1-0.7c0.1-0.4,0.1-0.4,0.2-1.7c0.1-0.5,0.1-0.9,0.2-1.3
		c0.1-0.4,0.1-0.6,0.1-0.9c0-0.5,0.2-0.6,0.6-0.6c0.1,0,0.4,0,0.6,0c0.3,0,0.9,0,1.7,0.1h3c2.9,0,2.9,0,3.7,0c1.7,0,5.7-0.1,7.3-0.2
		h1.1c0.7,0,0.7,0,0.9,1.7c0.1,0.7,0.1,1.1,0.1,1.2c0.1,0.4,0.1,1.1,0.1,1.3c0,0.3-0.1,0.5-0.4,0.5s-0.4-0.1-0.5-0.6
		c-0.2-0.8-0.7-1.7-1.3-2.1c-0.6-0.4-1.2-0.6-2.6-0.6c-2.9,0-3.3,0.3-3.3,2.1L344.3,16.1L344.3,16.1z"/>
	<path class="st0" d="M365.3,17.5c-0.1,2.6,0.4,3,3,3.4c0.4,0,0.5,0.1,0.5,0.5c0,0.4-0.2,0.4-0.7,0.4c-0.3,0-0.3,0-2.8-0.2
		c-0.4,0-1-0.1-1.9-0.1c-1.6,0-2.8,0.1-3.5,0.2c-0.6,0.1-0.8,0.1-0.9,0.1c-0.2,0-0.3-0.1-0.3-0.4c0-0.3,0.1-0.4,0.4-0.5
		c2.3-0.5,2.8-1.1,2.8-3.9v-2.8c0-0.9-0.1-1.2-0.6-2.1c-0.6-0.8-1.1-1.8-1.7-3c-0.7-1.5-1.5-2.8-2.3-4.2c-1-1.8-1.8-2.5-3.1-2.8
		c-0.5-0.1-0.6-0.2-0.6-0.4c0-0.4,0.2-0.5,0.5-0.5c0.2,0,0.6,0,2.4,0.2c0.5,0,1,0.1,1.7,0.1c0.8,0,1.6,0,2.5-0.1
		c0.7-0.1,1-0.1,1.3-0.1c0.5,0,0.6,0.1,0.6,0.4c0,0.2-0.1,0.4-0.5,0.5c-0.7,0.2-1.2,0.6-1.2,1c0,0.6,0.2,1,1.1,2.7
		c0.3,0.6,1.3,2.6,2,3.9c0.4,0.7,0.6,1,0.9,1c0.4,0,0.6-0.4,1.3-1.6c0.6-1.2,0.9-1.7,1-1.8c1.3-2.4,1.7-3.1,1.7-3.7
		c0-0.9-1.1-1.7-2.4-1.8c-0.4,0-0.5-0.1-0.5-0.4c0-0.4,0.1-0.5,0.5-0.5c0.3,0,0.3,0,1.7,0.2c0.4,0.1,0.8,0.1,1.5,0.1
		c0.6,0,0.6,0,2.4-0.1c0.2,0,0.5,0,1,0h0.2c0.3,0,0.4,0.1,0.4,0.4s-0.2,0.4-0.6,0.5c-1.7,0.6-2.2,1.1-3.5,3.8c-1,2-2.7,4.8-3.5,6.1
		c-0.5,0.7-0.5,0.7-0.5,1.7v3.8H365.3z"/>
	<path class="st0" d="M389,10.2c0,6.3,3,10.6,7.6,10.6c1.9,0,3.8-0.9,4.9-2.3c1.1-1.6,1.8-4,1.8-6.5c0-2.8-1-5.8-2.7-7.7
		c-1.3-1.5-3.3-2.4-5.3-2.4C391.5,2.1,389,5.1,389,10.2 M406.8,10.7c0,3.4-1.4,6.7-3.6,8.8c-1.7,1.7-4.3,2.6-7.2,2.6
		c-6.4,0-10.5-4-10.5-10.4c0-3,1.3-6.1,3.3-8c2-1.8,4.8-2.8,7.8-2.8C402.7,0.9,406.8,4.8,406.8,10.7"/>
	<path class="st0" d="M416.8,8.7c0,1.1,0.2,1.4,1.1,1.4h0.6c3.1,0,3.6-0.3,4.4-2.4c0.1-0.3,0.2-0.4,0.4-0.4c0.4,0,0.4,0.1,0.4,0.4
		c0,0,0,0.2,0,0.4v0.6c0,0.7,0,1.3,0.3,3.8c0,0.6,0.1,1.6,0.1,1.7c0,0.2-0.1,0.3-0.4,0.3c-0.3,0-0.4-0.1-0.4-0.4
		c-0.4-2-1.1-2.7-3.4-2.7c-1.6,0-2.3,0.1-2.6,0.3c-0.4,0.2-0.4,0.2-0.4,2.7v0.7v1.7c0.1,3,0.8,3.9,3,4.1c0.4,0,0.5,0.2,0.5,0.4
		c0,0.3-0.1,0.4-0.3,0.4l-3-0.1h-1.7c-0.7,0-1.4,0-1.9,0.1c-0.6,0.1-1.3,0.2-1.5,0.2c-0.4,0-0.5-0.1-0.5-0.4c0-0.3,0-0.3,0.5-0.4
		c1.2-0.4,1.6-1.4,1.5-3.5V5.3c0-2.3-0.5-2.8-2.8-3.1c-0.3,0-0.4-0.1-0.4-0.4s0.1-0.4,0.6-0.4c0.1,0,0.5,0,0.7,0.1
		c0.6,0.1,1,0.1,1.7,0.1h2.8h3.9c0.8,0,4-0.2,5.1-0.2h0.1c0.4,0,0.4,0,0.5,1.8c0.2,1.5,0.2,1.5,0.2,1.7c0,0.8-0.2,1.2-0.6,1.2
		c-0.2,0-0.3-0.1-0.3-0.4c-0.1-1.1-0.1-1.2-0.4-1.7c-0.6-1-1.6-1.3-3.3-1.4h-2.3c-1,0-1.5,0.1-1.7,0.4s-0.3,0.4-0.3,1.6v3.9H416.8z"
		/>
	<path class="st0" d="M449.2,16.1c0.1,2.3,0.2,2.7,0.7,3.5c0.6,0.8,1.4,1.2,2.6,1.3c0.5,0,0.6,0.1,0.6,0.5c0,0.3-0.1,0.4-0.5,0.4
		c-0.1,0-0.1,0-1.5-0.1c-2-0.2-2-0.2-2.5-0.2c-0.7,0-0.9,0-2.8,0.1l-2,0.1c-0.4,0-0.6,0.1-0.8,0.1c-0.3,0-0.4-0.1-0.4-0.4
		c0-0.5,0.2-0.6,0.7-0.6c1.8-0.3,2.6-1.3,2.4-3.6V4.3c0-1.3-0.2-1.5-1.5-1.5c-2.1,0-3.4,0.2-4.1,0.6s-0.9,0.7-1.4,2.6
		c-0.2,0.8-0.4,1-0.6,1s-0.5-0.2-0.5-0.5c0-0.1,0-0.1,0.1-0.7c0.1-0.4,0.1-0.4,0.2-1.7c0.1-0.5,0.1-0.9,0.2-1.3
		c0.1-0.4,0.1-0.6,0.1-0.9c0-0.5,0.2-0.6,0.6-0.6c0.1,0,0.4,0,0.6,0c0.3,0,0.9,0,1.7,0.1h3c2.9,0,2.9,0,3.7,0c1.7,0,5.7-0.1,7.3-0.2
		h1.1c0.7,0,0.7,0,0.9,1.7c0.1,0.7,0.1,1.1,0.1,1.2c0.1,0.4,0.1,1.1,0.1,1.3c0,0.3-0.1,0.5-0.4,0.5c-0.3,0-0.4-0.1-0.5-0.6
		c-0.2-0.8-0.7-1.7-1.3-2.1c-0.6-0.4-1.2-0.6-2.6-0.6c-2.9,0-3.3,0.3-3.3,2.1L449.2,16.1L449.2,16.1z"/>
	<path class="st0" d="M466.2,8c0,1.9,0.2,2.1,1.2,2.1h1.1h1.3c1.2,0,1.8-0.6,2.7-2.4c0.1-0.3,0.2-0.3,0.5-0.3c0.2,0,0.4,0.1,0.4,0.4
		c0,0.1,0,0.4-0.1,0.7c0,0.3,0,0.5,0,0.7s0,0.3,0.2,2.2c0.1,0.8,0.1,1.9,0.1,2.8c0,0.3-0.1,0.4-0.3,0.4c-0.3,0-0.4-0.2-0.5-0.6
		c-0.6-2.3-1-2.6-4.6-2.5c-1,0-1.4,0.1-1.5,0.6s-0.2,0.7-0.2,2.9v1.4c0,1.2,0.2,2.6,0.4,3c0.4,0.9,0.7,1.2,1.7,1.2
		c2.8,0,4.8-0.6,6.3-1.7c0.6-0.6,1.3-1.3,1.6-1.9c0.1-0.1,0.1-0.2,0.2-0.2c0.3,0,0.4,0.2,0.4,0.4c0,1-0.5,2.5-1.1,3.3
		c-0.9,1.3-2,1.7-3.9,1.7c-0.9,0-1.1,0-3.9-0.3c-0.6-0.1-1.5-0.1-2.5-0.1c-1.1,0-1.2,0-3.4,0.1h-0.9c-0.3,0-0.4-0.1-0.4-0.4
		c0-0.2,0.1-0.3,0.4-0.4c1.4-0.4,1.8-1.4,1.8-4.1V5.3c0-2.3-0.6-2.8-2.8-3.1c-0.3,0-0.4-0.1-0.4-0.5c0-0.2,0.2-0.4,0.5-0.4h0.5h0.7
		c2.6,0.1,3.9,0.1,7.6,0.1c1.4,0,4.8-0.1,5.5-0.1h0.3c0.3,0,0.4,0.1,0.4,0.5c0,0.3,0.1,0.7,0.1,1.2c0.1,1.4,0.1,1.5,0.1,1.8
		c0,0.7-0.3,1.2-0.6,1.2c-0.2,0-0.3-0.1-0.3-0.6c0-1.9-1.5-2.8-4.7-2.8h-1.4c-1.9,0-2.1,0.2-2.1,2.2V8H466.2z"/>
	<path class="st0" d="M495.6,13.5c1.2,1.4,1.6,1.7,1.8,1.7c0.2,0,0.3-0.2,0.4-0.4c0-0.3,0.2-5.2,0.2-7c0-4.5-0.7-5.7-3.5-6
		c-0.4,0-0.5-0.1-0.5-0.4s0.1-0.4,0.5-0.4c0.5,0,0.6,0,1.7,0.2c0.5,0.1,0.9,0.1,1.3,0.1c0.6,0,1.9-0.1,3.3-0.3c0.2,0,0.4,0,0.5,0
		c0.3,0,0.5,0.1,0.5,0.4s-0.1,0.4-0.5,0.5c-1.4,0.3-2,1.6-1.9,4.1l-0.2,9.3c-0.1,1.7-0.1,1.8-0.1,2.3c0,1.4,0,2.8,0.1,3.4v0.2
		c0,0.3-0.1,0.4-0.3,0.4c-0.2,0-0.4-0.2-0.6-0.4l-13.6-15c-0.4-0.4-0.4-0.4-0.5-0.4c-0.3,0-0.4,0.3-0.4,1.1v5.8
		c0.1,7,0.4,7.6,3.3,8.1c0.4,0,0.5,0.2,0.5,0.4c0,0.3-0.2,0.5-0.5,0.5c-0.1,0-0.4,0-0.6-0.1c-0.7-0.1-2-0.2-2.8-0.2
		s-2.1,0.1-2.7,0.2c-0.3,0.1-0.6,0.1-0.7,0.1c-0.3,0-0.4-0.1-0.4-0.4c0-0.2,0.1-0.3,0.5-0.4c1.9-0.8,2-1.1,2.2-7.6v-1.7V6.9
		c0.1-2.8-1.2-4.7-3.4-4.8c-0.4,0-0.5-0.1-0.5-0.4s0.2-0.5,0.5-0.5h1c1.2,0,2.2,0,3.1-0.1c0.3,0,0.6-0.1,0.8-0.1
		c0.6,0,0.6,0.1,1.6,1.1c0.2,0.2,0.2,0.2,1.1,1.4c0.6,0.7,0.8,1,0.9,1.1L495.6,13.5z"/>
	<path class="st0" d="M520.6,13.5c1.2,1.4,1.6,1.7,1.8,1.7c0.2,0,0.3-0.2,0.4-0.4c0-0.3,0.2-5.2,0.2-7c0-4.5-0.7-5.7-3.5-6
		c-0.4,0-0.5-0.1-0.5-0.4s0.1-0.4,0.5-0.4c0.5,0,0.6,0,1.7,0.2c0.5,0.1,0.9,0.1,1.3,0.1c0.6,0,1.9-0.1,3.3-0.3c0.2,0,0.4,0,0.5,0
		c0.3,0,0.5,0.1,0.5,0.4s-0.1,0.4-0.5,0.5c-1.4,0.3-2,1.6-1.9,4.1l-0.2,9.3c-0.1,1.7-0.1,1.8-0.1,2.3c0,1.4,0,2.8,0.1,3.4v0.2
		c0,0.3-0.1,0.4-0.3,0.4s-0.4-0.2-0.6-0.4l-13.6-15c-0.4-0.4-0.4-0.4-0.5-0.4c-0.3,0-0.4,0.3-0.4,1.1v5.8c0.1,7,0.4,7.6,3.3,8.1
		c0.4,0,0.5,0.2,0.5,0.4c0,0.3-0.2,0.5-0.5,0.5c-0.1,0-0.4,0-0.6-0.1c-0.7-0.1-2-0.2-2.8-0.2s-2.1,0.1-2.7,0.2
		c-0.3,0.1-0.6,0.1-0.7,0.1c-0.3,0-0.4-0.1-0.4-0.4c0-0.2,0.1-0.3,0.5-0.4c1.9-0.8,2-1.1,2.2-7.6v-1.7V6.9c0.1-2.8-1.2-4.7-3.4-4.8
		c-0.4,0-0.5-0.1-0.5-0.4s0.2-0.5,0.5-0.5h1c1.2,0,2.2,0,3.1-0.1c0.3,0,0.6-0.1,0.8-0.1c0.6,0,0.6,0.1,1.6,1.1
		c0.2,0.2,0.2,0.2,1.1,1.4c0.6,0.7,0.8,1,0.9,1.1L520.6,13.5z"/>
	<path class="st0" d="M536,8c0,1.9,0.2,2.1,1.2,2.1h1.1h1.3c1.2,0,1.8-0.6,2.7-2.4c0.1-0.3,0.2-0.3,0.5-0.3c0.2,0,0.4,0.1,0.4,0.4
		c0,0.1,0,0.4-0.1,0.7c0,0.3,0,0.5,0,0.7s0,0.3,0.2,2.2c0.1,0.8,0.1,1.9,0.1,2.8c0,0.3-0.1,0.4-0.3,0.4c-0.3,0-0.4-0.2-0.5-0.6
		c-0.6-2.3-1-2.6-4.6-2.5c-1,0-1.4,0.1-1.5,0.6c-0.1,0.5-0.2,0.7-0.2,2.9v1.4c0,1.2,0.2,2.6,0.4,3c0.4,0.9,0.7,1.2,1.7,1.2
		c2.8,0,4.8-0.6,6.3-1.7c0.6-0.6,1.3-1.3,1.6-1.9c0.1-0.1,0.1-0.2,0.2-0.2c0.3,0,0.4,0.2,0.4,0.4c0,1-0.5,2.5-1.1,3.3
		c-0.9,1.3-2,1.7-3.9,1.7c-0.9,0-1.1,0-3.9-0.3c-0.6-0.1-1.5-0.1-2.5-0.1c-1.1,0-1.2,0-3.4,0.1H531c-0.3,0-0.4-0.1-0.4-0.4
		c0-0.2,0.1-0.3,0.4-0.4c1.4-0.4,1.8-1.4,1.8-4.1V5.3c0-2.3-0.6-2.8-2.8-3.1c-0.3,0-0.4-0.1-0.4-0.5c0-0.2,0.2-0.4,0.5-0.4h0.5h0.7
		c2.6,0.1,3.9,0.1,7.6,0.1c1.4,0,4.8-0.1,5.5-0.1h0.3c0.3,0,0.4,0.1,0.4,0.5c0,0.3,0.1,0.7,0.1,1.2c0.1,1.4,0.1,1.5,0.1,1.8
		c0,0.7-0.3,1.2-0.6,1.2c-0.2,0-0.3-0.1-0.3-0.6c0-1.9-1.5-2.8-4.7-2.8h-1.4c-1.9,0-2.1,0.2-2.1,2.2V8H536z"/>
	<path class="st0" d="M561.6,3.3c0,0.5,0,0.6,0.2,2.1c0.1,0.6,0.2,1.5,0.2,1.7c0,0.4-0.1,0.6-0.4,0.6c-0.2,0-0.4-0.2-0.5-0.6
		C560.5,4.3,558,2,555.3,2c-1.7,0-3.3,1.5-3.3,3c0,0.8,0.5,1.7,1.1,2.2c0.6,0.4,1,0.6,3.3,1.6c2.4,1,3.5,1.7,4.3,2.5
		c1,1.1,1.7,2.7,1.7,4.3c0,1.7-0.6,3.2-1.8,4.5c-1.2,1.2-2.8,1.9-4.3,1.9c-0.7,0-1.9-0.3-3.3-0.7c-1-0.4-1.1-0.4-1.6-0.5
		c-0.6-0.2-0.6-0.2-0.8-0.3c-0.1-0.1-0.2-0.2-0.2-0.8c0-0.4-0.3-1.3-0.5-2c-0.6-2-0.6-2-0.6-2.6c0-0.5,0.2-0.7,0.5-0.7
		c0.2,0,0.3,0.1,0.3,0.4c1,3.4,3.7,6.1,6.2,6.1c2.1,0,3.9-1.8,3.9-3.8c0-1-0.5-1.9-1.2-2.5c-0.6-0.4-0.6-0.4-3.9-1.8
		c-2.5-1.1-3.3-1.7-4.2-2.7c-0.8-0.9-1.3-2.1-1.3-3.6c0-3.2,2.5-5.7,5.6-5.7c1.2,0,1.7,0.1,3.7,0.9c0.5,0.2,0.7,0.3,0.9,0.3
		c0.2,0,0.2,0,1-0.4c0.1,0,0.2-0.1,0.3-0.1c0.3,0,0.3,0.1,0.3,0.6L561.6,3.3z"/>
	<path class="st0" d="M578.5,3.3c0,0.5,0,0.6,0.2,2.1c0.1,0.6,0.2,1.5,0.2,1.7c0,0.4-0.1,0.6-0.4,0.6c-0.2,0-0.4-0.2-0.5-0.6
		c-0.6-2.8-3.2-5.1-5.9-5.1c-1.7,0-3.3,1.5-3.3,3c0,0.8,0.5,1.7,1.1,2.2c0.6,0.4,1,0.6,3.3,1.6c2.4,1,3.5,1.7,4.3,2.5
		c1,1.1,1.7,2.7,1.7,4.3c0,1.7-0.6,3.2-1.8,4.5c-1.2,1.2-2.8,1.9-4.3,1.9c-0.7,0-1.9-0.3-3.3-0.7c-1-0.4-1.1-0.4-1.6-0.5
		c-0.6-0.2-0.6-0.2-0.8-0.3c-0.1-0.1-0.2-0.2-0.2-0.8c0-0.4-0.3-1.3-0.5-2c-0.6-2-0.6-2-0.6-2.6c0-0.5,0.2-0.7,0.5-0.7
		c0.2,0,0.3,0.1,0.3,0.4c1,3.4,3.7,6.1,6.2,6.1c2.1,0,3.9-1.8,3.9-3.8c0-1-0.5-1.9-1.2-2.5c-0.6-0.4-0.6-0.4-3.9-1.8
		c-2.5-1.1-3.3-1.7-4.2-2.7c-0.8-0.9-1.3-2.1-1.3-3.6c0-3.2,2.5-5.7,5.6-5.7c1.2,0,1.7,0.1,3.7,0.9c0.5,0.2,0.7,0.3,0.9,0.3
		s0.2,0,1-0.4c0.1,0,0.2-0.1,0.3-0.1c0.3,0,0.3,0.1,0.3,0.6L578.5,3.3z"/>
	<path class="st0" d="M589.4,8c0,1.9,0.2,2.1,1.2,2.1h1.1h1.3c1.2,0,1.8-0.6,2.7-2.4c0.1-0.3,0.2-0.3,0.5-0.3c0.2,0,0.4,0.1,0.4,0.4
		c0,0.1,0,0.4-0.1,0.7c0,0.3,0,0.5,0,0.7s0,0.3,0.2,2.2c0.1,0.8,0.1,1.9,0.1,2.8c0,0.3-0.1,0.4-0.3,0.4c-0.3,0-0.4-0.2-0.5-0.6
		c-0.6-2.3-1-2.6-4.6-2.5c-1,0-1.4,0.1-1.5,0.6c-0.1,0.5-0.2,0.7-0.2,2.9v1.4c0,1.2,0.2,2.6,0.4,3c0.4,0.9,0.7,1.2,1.7,1.2
		c2.8,0,4.8-0.6,6.3-1.7c0.6-0.6,1.3-1.3,1.6-1.9c0.1-0.1,0.1-0.2,0.2-0.2c0.3,0,0.4,0.2,0.4,0.4c0,1-0.5,2.5-1.1,3.3
		c-0.9,1.3-2,1.7-3.9,1.7c-0.9,0-1.1,0-3.9-0.3c-0.6-0.1-1.5-0.1-2.5-0.1c-1.1,0-1.2,0-3.4,0.1h-0.9c-0.3,0-0.4-0.1-0.4-0.4
		c0-0.2,0.1-0.3,0.4-0.4c1.4-0.4,1.8-1.4,1.8-4.1V5.3c0-2.3-0.6-2.8-2.8-3.1c-0.3,0-0.4-0.1-0.4-0.5c0-0.2,0.2-0.4,0.5-0.4h0.5h0.7
		c2.6,0.1,3.9,0.1,7.6,0.1c1.4,0,4.8-0.1,5.5-0.1h0.3c0.3,0,0.4,0.1,0.4,0.5c0,0.3,0.1,0.7,0.1,1.2c0.1,1.4,0.1,1.5,0.1,1.8
		c0,0.7-0.3,1.2-0.6,1.2c-0.2,0-0.3-0.1-0.3-0.6c0-1.9-1.5-2.8-4.7-2.8h-1.4c-1.9,0-2.1,0.2-2.1,2.2V8H589.4z"/>
	<path class="st0" d="M609.3,8c0,1.9,0.2,2.1,1.2,2.1h1.1h1.3c1.2,0,1.8-0.6,2.7-2.4c0.1-0.3,0.2-0.3,0.5-0.3c0.2,0,0.4,0.1,0.4,0.4
		c0,0.1,0,0.4-0.1,0.7c0,0.3,0,0.5,0,0.7s0,0.3,0.2,2.2c0.1,0.8,0.1,1.9,0.1,2.8c0,0.3-0.1,0.4-0.3,0.4c-0.3,0-0.4-0.2-0.5-0.6
		c-0.6-2.3-1-2.6-4.6-2.5c-1,0-1.4,0.1-1.5,0.6c-0.1,0.5-0.2,0.7-0.2,2.9v1.4c0,1.2,0.2,2.6,0.4,3c0.4,0.9,0.7,1.2,1.7,1.2
		c2.8,0,4.8-0.6,6.3-1.7c0.6-0.6,1.3-1.3,1.6-1.9c0.1-0.1,0.1-0.2,0.2-0.2c0.3,0,0.4,0.2,0.4,0.4c0,1-0.5,2.5-1.1,3.3
		c-0.9,1.3-2,1.7-3.9,1.7c-0.9,0-1.1,0-3.9-0.3c-0.6-0.1-1.5-0.1-2.5-0.1c-1.1,0-1.2,0-3.4,0.1h-0.9c-0.3,0-0.4-0.1-0.4-0.4
		c0-0.2,0.1-0.3,0.4-0.4c1.4-0.4,1.8-1.4,1.8-4.1V5.3c0-2.3-0.6-2.8-2.8-3.1c-0.3,0-0.4-0.1-0.4-0.5c0-0.2,0.2-0.4,0.5-0.4h0.5h0.7
		c2.6,0.1,3.9,0.1,7.6,0.1c1.4,0,4.8-0.1,5.5-0.1h0.3c0.3,0,0.4,0.1,0.4,0.5c0,0.3,0.1,0.7,0.1,1.2c0.1,1.4,0.1,1.5,0.1,1.8
		c0,0.7-0.3,1.2-0.6,1.2c-0.2,0-0.3-0.1-0.3-0.6c0-1.9-1.5-2.8-4.7-2.8h-1.4c-1.9,0-2.1,0.2-2.1,2.2V8H609.3z"/>
	<path class="st0" d="M137.1,39.9c0.1,1.3,0.1,1.5,0.6,3.9c0.1,0.6,0.2,1.4,0.2,1.8c0,0.8-0.4,1.3-0.9,1.3c-0.4,0-0.6-0.2-0.6-0.8
		c-0.4-2-3.3-6.6-5.7-8.8c-3.7-3.6-7.5-5.2-11.7-5.2c-3.6,0-6.3,1.2-8.9,4c-3.3,3.6-4.9,8.1-4.9,14c0,6.3,1.8,12,5.3,16.1
		c3,3.6,7.3,5.8,11.4,5.8c3.5,0,7.5-1.5,10.7-3.9c1.4-0.9,1.4-0.9,4-3.9c0.4-0.4,0.6-0.6,0.8-0.6c0.4,0,0.6,0.4,0.6,0.6
		c0,0.9-1.5,3.1-3.3,5c-4.3,4.4-10,6.9-16.1,6.9c-12.8,0-21.5-9-21.5-22.3c0-6.2,2.8-13.2,6.9-17.5c4-4.1,9.9-6.5,16-6.5
		c4.8,0,7.2,0.8,12.6,3.9c0.4,0.3,0.8,0.4,1.2,0.4c0.6,0,0.6,0,1.7-1.6c0.1-0.1,0.4-0.3,0.6-0.3c0.9,0,1,0.2,1.1,4.5L137.1,39.9
		L137.1,39.9z"/>
	<path class="st0" d="M159,53.2c-2.9-0.1-3.5,0.6-3.4,3.8v8.2c-0.1,5.9,1.8,8.5,6.3,8.7c0.8,0,1.2,0.2,1.2,0.8c0,0.7-0.4,1-1.7,1
		c-0.4,0-1.1-0.1-2.4-0.2c-2.2-0.3-5.5-0.5-6.9-0.5c-1.3,0-2.8,0.1-7.8,0.6h-0.4c-0.6,0-1-0.4-1-1.1c0-0.5,0.2-0.6,0.8-0.7
		c1.8-0.3,3.5-1.8,3.9-3.8c0.2-0.7,0.2-1,0.3-5v-26c0.1-4.2-1.4-5.9-6.1-6.6c-0.7-0.1-0.9-0.3-0.9-0.8c0-0.7,0.4-1.1,1.1-1.1
		c0.4,0,1.3,0.1,2.1,0.2c1.5,0.3,4.3,0.4,6.5,0.4c0.6,0,0.6,0,4.9-0.4c1.1-0.1,3.2-0.3,3.7-0.3c0.6,0,1.1,0.4,1.1,0.8
		s-0.3,0.8-0.9,0.9c-2.8,0.4-3.9,1.8-3.9,4.9v8.3c-0.1,4.2,0.1,4.5,3.6,4.5h15.2c2.6,0,2.9-0.7,2.8-5.2v-5.8c0.2-4.2-1.4-6-6.1-6.5
		c-0.7-0.1-0.9-0.4-0.9-0.8c0-0.7,0.4-1.1,1.1-1.1c0.4,0,1.3,0.1,2.1,0.2c1.7,0.3,4.2,0.4,6.9,0.4c0.4,0,2.1-0.1,4.5-0.4
		c1.3-0.1,3-0.3,3.6-0.3c0.8,0,1.1,0.3,1.1,0.9c0,0.5-0.3,0.7-0.9,0.8c-2.8,0.4-3.9,1.8-3.9,4.9V65c-0.2,5.8,1.8,8.6,6.3,8.7
		c0.9,0,1.3,0.2,1.3,0.8c0,0.7-0.4,1-1.7,1c-0.4,0-1.1-0.1-2.4-0.2c-2.1-0.3-5.5-0.5-6.9-0.5c-1.3,0-2.8,0.1-7.8,0.6h-0.4
		c-0.6,0-1-0.4-1-1.1c0-0.5,0.2-0.6,0.8-0.7c1.8-0.3,3.5-1.8,3.9-3.8c0.2-0.7,0.2-1,0.3-5v-7.2c0-4.1-0.3-4.6-2.8-4.6H159z"/>
	<path class="st0" d="M217.4,44.9c-0.9-2.2-1.8-3.6-2.2-3.6s-0.4,0-2.1,3.7l-3.9,8.7c-0.6,1.4-0.6,1.4-0.6,1.7
		c0,0.8,0.6,1.1,2.4,1.1h8.9c1.7,0,1.9-0.1,1.9-0.6c0-0.1,0-0.3-0.3-0.9L217.4,44.9z M235.2,68.6c2.1,4.1,2.8,4.6,6.5,5.6
		c0.5,0.1,0.6,0.3,0.6,0.9c0,0.6-0.3,0.8-0.7,0.8c-0.1,0-0.5-0.1-1.3-0.2c-1.4-0.3-5.7-0.6-8.1-0.6c-2.9,0-6.5,0.2-7.6,0.5
		c-0.4,0.1-0.6,0.1-0.8,0.1c-0.5,0-0.9-0.5-0.9-0.9c0-0.4,0.2-0.5,0.7-0.6c2.1-0.6,3.6-2.4,3.6-4.1c0-1.3-1.3-4.9-3.1-8.6
		c-0.7-1.7-1.5-1.8-5.4-1.8h-8.3c-3.1,0-3.9,0.6-5.2,3.8c-1.7,3.8-1.9,4.8-1.9,5.8c0,2.7,1.9,4.3,5.8,4.8c0.8,0.1,1.2,0.4,1.2,0.8
		c0,0.6-0.5,0.9-1.1,0.9c-0.5,0-1.1-0.1-1.7-0.2c-1.5-0.4-2.7-0.5-3.9-0.5c-1.1,0-2.4,0.1-6.8,0.6l-1.6,0.1c-0.6,0-0.8-0.3-0.8-0.8
		c0-0.5,0.2-0.7,0.9-0.9c2.4-0.8,3.1-1.7,6-8.3l8.9-20.6c0.7-1.7,1.3-2.8,1.6-3.3l3-6.3c2.7-5.4,2.7-5.4,2.9-5.4
		c0.5,0,1.4,1.7,2.6,4.5L235.2,68.6z"/>
	<path class="st0" d="M264.1,63.3c0.1,5,0.4,6,1.6,7.6c1.2,1.7,3.1,2.6,5.7,2.8c0.9,0,1.2,0.3,1.2,1c0,0.6-0.2,0.8-1,0.8
		c-0.2,0-0.2,0-3.3-0.1c-4.4-0.4-4.4-0.4-5.4-0.4c-1.7,0-2.1,0-6.1,0.3l-4.5,0.3c-0.7,0.1-1.4,0.1-1.7,0.1c-0.6,0-0.8-0.3-0.8-0.8
		c0-0.9,0.4-1.2,1.7-1.3c4.1-0.6,5.6-2.8,5.3-7.9V37.3c0-2.8-0.5-3.3-3.3-3.3c-4.6,0-7.5,0.5-9.2,1.4c-1.7,0.9-2.1,1.7-3.1,5.7
		c-0.5,1.8-0.7,2.3-1.4,2.3c-0.6,0-1-0.4-1-1c0-0.2,0-0.2,0.2-1.7c0.1-0.8,0.1-0.8,0.5-3.8c0.1-0.9,0.3-1.9,0.4-2.8
		c0.1-0.7,0.2-1.4,0.3-2c0.1-1,0.4-1.3,1.3-1.3c0.1,0,0.7,0,1.2,0.1c0.6,0.1,2,0.1,3.6,0.1l6.7,0.1c6.4,0.1,6.4,0.1,8.1,0.1
		c3.8,0,12.6-0.2,16.1-0.4l2.4-0.1c1.7,0,1.7,0,1.9,3.9c0.1,1.6,0.3,2.4,0.3,2.7c0.1,0.8,0.3,2.4,0.3,2.8c0,0.6-0.3,1-0.8,1
		c-0.6,0-0.8-0.3-1.1-1.2c-0.4-1.7-1.7-3.6-2.8-4.6c-1.2-0.8-2.6-1.1-5.6-1.1c-6.4,0-7.3,0.6-7.3,4.6L264.1,63.3L264.1,63.3z"/>
	<path class="st0" d="M312.5,63.3c0.1,5,0.4,6,1.6,7.6c1.2,1.7,3.1,2.6,5.7,2.8c0.9,0,1.2,0.3,1.2,1c0,0.6-0.2,0.8-1,0.8
		c-0.2,0-0.2,0-3.3-0.1c-4.4-0.4-4.4-0.4-5.4-0.4c-1.7,0-2.1,0-6.1,0.3l-4.5,0.3c-0.7,0.1-1.4,0.1-1.7,0.1c-0.6,0-0.8-0.3-0.8-0.8
		c0-0.9,0.4-1.2,1.7-1.3c4.1-0.6,5.6-2.8,5.3-7.9V37.3c0-2.8-0.5-3.3-3.3-3.3c-4.6,0-7.5,0.5-9.2,1.4c-1.7,0.9-2.1,1.7-3.1,5.7
		c-0.5,1.8-0.7,2.3-1.4,2.3s-1-0.4-1-1c0-0.2,0-0.2,0.2-1.7c0.1-0.8,0.1-0.8,0.5-3.8c0.1-0.9,0.3-1.9,0.4-2.8c0.1-0.7,0.2-1.4,0.3-2
		c0.1-1,0.4-1.3,1.3-1.3c0.1,0,0.7,0,1.2,0.1c0.6,0.1,2,0.1,3.6,0.1l6.7,0.1c6.4,0.1,6.4,0.1,8.1,0.1c3.8,0,12.6-0.2,16.1-0.4
		l2.4-0.1c1.7,0,1.7,0,1.9,3.9c0.1,1.6,0.3,2.4,0.3,2.7c0.1,0.8,0.3,2.4,0.3,2.8c0,0.6-0.3,1-0.8,1c-0.6,0-0.8-0.3-1.1-1.2
		c-0.4-1.7-1.7-3.6-2.8-4.6c-1.2-0.8-2.6-1.1-5.6-1.1c-6.4,0-7.3,0.6-7.3,4.6L312.5,63.3L312.5,63.3z"/>
	<path class="st0" d="M350.4,44.9c-0.9-2.2-1.8-3.6-2.2-3.6s-0.4,0-2.1,3.7l-3.9,8.7c-0.6,1.4-0.6,1.4-0.6,1.7
		c0,0.8,0.6,1.1,2.4,1.1h8.9c1.7,0,1.9-0.1,1.9-0.6c0-0.1,0-0.3-0.3-0.9L350.4,44.9z M368.2,68.6c2.1,4.1,2.8,4.6,6.5,5.6
		c0.5,0.1,0.6,0.3,0.6,0.9c0,0.6-0.3,0.8-0.7,0.8c-0.1,0-0.5-0.1-1.3-0.2c-1.4-0.3-5.7-0.6-8.1-0.6c-2.9,0-6.5,0.2-7.6,0.5
		c-0.4,0.1-0.6,0.1-0.8,0.1c-0.5,0-0.9-0.5-0.9-0.9c0-0.4,0.2-0.5,0.7-0.6c2.1-0.6,3.6-2.4,3.6-4.1c0-1.3-1.3-4.9-3.1-8.6
		c-0.7-1.7-1.5-1.8-5.4-1.8h-8.3c-3.1,0-3.9,0.6-5.2,3.8c-1.7,3.8-1.9,4.8-1.9,5.8c0,2.7,1.9,4.3,5.8,4.8c0.8,0.1,1.2,0.4,1.2,0.8
		c0,0.6-0.5,0.9-1.1,0.9c-0.5,0-1.1-0.1-1.7-0.2c-1.5-0.4-2.7-0.5-3.9-0.5c-1.1,0-2.4,0.1-6.8,0.6l-1.6,0.1c-0.6,0-0.8-0.3-0.8-0.8
		c0-0.5,0.2-0.7,0.9-0.9c2.4-0.8,3.1-1.7,6-8.3l8.9-20.6c0.7-1.7,1.3-2.8,1.6-3.3l3-6.3c2.7-5.4,2.7-5.4,2.9-5.4
		c0.5,0,1.4,1.7,2.6,4.5L368.2,68.6z"/>
	<path class="st0" d="M412.5,57.6c2.7,3,3.5,3.7,4,3.7c0.4,0,0.6-0.4,0.7-0.8c0.1-0.6,0.4-11.6,0.4-15.2c0-9.9-1.6-12.5-7.6-13
		c-0.8-0.1-1.1-0.3-1.1-0.7c0-0.6,0.3-0.8,0.9-0.8c1,0,1.5,0.1,3.9,0.4c1,0.1,2.1,0.2,2.8,0.2c1.5,0,4.1-0.2,7.2-0.6
		c0.4-0.1,0.8-0.1,1.1-0.1c0.6,0,0.9,0.3,0.9,0.8c0,0.6-0.3,0.8-1.1,1.1c-3.1,0.6-4.4,3.5-4.2,9l-0.5,20.4c-0.1,3.9-0.1,3.9-0.1,5
		c0,2.9,0.1,6.2,0.1,7.4v0.5c0,0.6-0.2,0.8-0.6,0.8c-0.4,0-0.8-0.4-1.2-0.7l-29.8-33c-0.7-0.8-0.8-0.8-1.1-0.8
		c-0.6,0-0.8,0.6-0.8,2.5V56c0.1,15.3,0.7,16.8,7.3,17.7c0.7,0.1,1,0.4,1,0.8c0,0.6-0.4,0.9-0.9,0.9c-0.2,0-0.8-0.1-1.4-0.1
		c-1.7-0.3-4.4-0.5-6.1-0.5c-1.7,0-4.6,0.2-6,0.5c-0.6,0.1-1.4,0.2-1.7,0.2c-0.6,0-0.8-0.3-0.8-0.8c0-0.5,0.2-0.6,0.9-0.8
		c4.3-1.8,4.5-2.5,4.9-16.7v-3.9V43.2c0.1-6.3-2.7-10.4-7.4-10.5c-0.7-0.1-1-0.3-1-0.8c0-0.6,0.4-0.9,1-0.9l2.2,0.1
		c2.7,0,4.9-0.1,7-0.3c0.6-0.1,1.4-0.1,1.8-0.1c1.2,0,1.5,0.2,3.3,2.4c0.4,0.4,0.4,0.4,2.5,2.9c1.4,1.7,1.8,2.2,2.1,2.4L412.5,57.6z
		"/>
	<path class="st0" d="M435.1,50.5c0,13.9,6.8,23.4,16.7,23.4c4.2,0,8.3-2,10.6-5c2.5-3.3,4.1-8.9,4.1-14.3c0-6.3-2.2-12.7-5.8-16.9
		c-2.8-3.2-7.3-5.2-11.7-5.2C440.5,32.4,435.1,39.2,435.1,50.5 M474.2,51.3c0,7.4-3,14.8-8,19.4c-3.9,3.6-9.5,5.6-15.9,5.6
		c-14.2,0-23.3-8.9-23.3-22.8c0-6.6,2.8-13.5,7.2-17.4c4.3-3.9,10.5-6.1,17.2-6.1C465.1,29.9,474.2,38.5,474.2,51.3"/>
	<path class="st0" d="M487,50.5c0,13.9,6.8,23.4,16.7,23.4c4.2,0,8.3-2,10.6-5c2.5-3.3,4.1-8.9,4.1-14.3c0-6.3-2.2-12.7-5.8-16.9
		c-2.8-3.2-7.3-5.2-11.7-5.2C492.3,32.4,487,39.2,487,50.5 M526.1,51.3c0,7.4-3,14.8-8,19.4c-3.9,3.6-9.5,5.6-15.9,5.6
		c-14.2,0-23.3-8.9-23.3-22.8c0-6.6,2.8-13.5,7.2-17.4c4.3-3.9,10.5-6.1,17.2-6.1C516.9,29.9,526.1,38.5,526.1,51.3"/>
	<path class="st0" d="M571.1,40.4c0,1.5,0.1,2.8,0.3,4.6c0.1,0.2,0.1,0.5,0.1,0.6c0,0.6-0.4,0.9-1,0.9c-0.5,0-0.6-0.4-0.9-1.4
		c-1.7-7.4-8.5-13-16.1-13c-8.9,0-14.7,7.5-14.7,19.3c0,12.3,6.3,22.1,14.1,22.1c2.9,0,7.6-1.5,9.5-2.9c1.3-0.9,1.8-3.1,1.8-7.2
		c0-5.1-1.7-6.9-6.7-7.2c-0.6,0-1-0.4-1-0.9s0.4-0.8,1.2-0.8c0.2,0,0.6,0,1.1,0.1c2.7,0.3,4.1,0.4,7.3,0.4c2.6,0,4.6-0.1,6.1-0.3
		c1-0.1,1.8-0.2,2.5-0.2c0.6,0,1.1,0.4,1.1,0.8c0,0.6-0.4,0.8-1.1,1c-2.6,0.6-3.3,2.3-3.3,7.8c0,0.6,0,1.4,0.1,1.8
		c0.1,1,0.1,1.8,0.1,2.4c0,1.3-0.5,1.7-2.1,2.4c-0.4,0.1-2.4,0.9-5.1,2.2c-5.4,2.3-9.6,3.3-13.5,3.3c-5.6,0-10.7-2.1-14.4-5.9
		c-3.9-3.9-5.8-9.1-5.8-15.8c0-13.9,9.9-24.7,22.6-24.7c3.9,0,7.4,0.8,12.8,3.2c1.4,0.6,2,0.8,2.4,0.8c0.5,0,0.6-0.1,1.1-0.6
		c0.3-0.2,0.6-0.4,0.8-0.4c0.7,0,1,0.4,1,1.1v2.3L571.1,40.4z"/>
	<path class="st0" d="M597.6,44.9c-0.9-2.2-1.8-3.6-2.2-3.6s-0.4,0-2.1,3.7l-3.9,8.7c-0.6,1.4-0.6,1.4-0.6,1.7
		c0,0.8,0.6,1.1,2.4,1.1h8.9c1.7,0,1.9-0.1,1.9-0.6c0-0.1,0-0.3-0.3-0.9L597.6,44.9z M615.5,68.6c2.1,4.1,2.8,4.6,6.5,5.6
		c0.5,0.1,0.6,0.3,0.6,0.9c0,0.6-0.3,0.8-0.7,0.8c-0.1,0-0.5-0.1-1.3-0.2c-1.4-0.3-5.7-0.6-8.1-0.6c-2.9,0-6.5,0.2-7.6,0.5
		c-0.4,0.1-0.6,0.1-0.8,0.1c-0.5,0-0.9-0.5-0.9-0.9c0-0.4,0.2-0.5,0.7-0.6c2.1-0.6,3.6-2.4,3.6-4.1c0-1.3-1.3-4.9-3.1-8.6
		c-0.7-1.7-1.5-1.8-5.4-1.8h-8.3c-3.1,0-3.9,0.6-5.2,3.8c-1.7,3.8-1.9,4.8-1.9,5.8c0,2.7,1.9,4.3,5.8,4.8c0.8,0.1,1.2,0.4,1.2,0.8
		c0,0.6-0.5,0.9-1.1,0.9c-0.5,0-1.1-0.1-1.7-0.2c-1.5-0.4-2.7-0.5-3.9-0.5c-1.1,0-2.4,0.1-6.8,0.6l-1.6,0.1c-0.6,0-0.8-0.3-0.8-0.8
		c0-0.5,0.2-0.7,0.9-0.9c2.4-0.8,3.1-1.7,6-8.3l8.9-20.6c0.7-1.7,1.3-2.8,1.6-3.3l3-6.3c2.7-5.4,2.7-5.4,2.9-5.4
		c0.5,0,1.4,1.7,2.6,4.5L615.5,68.6z"/>
	<path class="st0" d="M78.8,34l7.5-32.8h-45c-8.5,0-14.9,1.1-19.7,3.4c-6.1,2.9-10.3,8.1-11.8,14.9L2,54.2
		c-1.4,5.9-0.6,10.6,2.4,14.3C8.2,73.4,15,75.4,27,75.4h42.5l5.9-25.7H40.5l3.7-15.8L78.8,34L78.8,34z"/>
	<path class="st1" d="M35.6,53.5h34.9l-4.1,18.1H26.9c-10.7,0-16.6-1.7-19.6-5.5c-2.2-2.8-2.7-6.3-1.7-11l8-34.7
		c1.3-5.7,4.6-9.8,9.7-12.3c4.3-2,10.1-3,18.1-3h40.2l-5.8,25h-27l1.7-7.1h-7.9L35.6,53.5z"/>
	<path class="st2" d="M78.6,7.8l-4.5,19.8H52.5l1.7-7.1H40.9l-8.2,35.7h34.9L64.6,69H27.2c-14,0-21.1-2.7-18.7-13.3l8-34.7
		C18.8,10.7,27.8,7.7,41.7,7.7L78.6,7.8L78.6,7.8z"/>
</g>
</svg>
