<svg width="512px" height="78px" xmlns="http://www.w3.org/2000/svg" viewBox="0 0 229.01 33.5">
    <defs>
        <style>
            .cls-1 {
                fill: #112E51;
            }

            .cls-2 {
                fill: #FFFFFF;
            }

            .cls-3 {
                fill: #FDB736;
            }
        </style>
    </defs>
    <title>UTC Wordmark</title>
    <g id="Layer_2" data-name="Layer 2">
        <g id="Layer_1-2" data-name="Layer 1">
            <path class="cls-1" d="M17.4,21.6H32.9L30.3,33.1H11.4C6,33.1,3,32.2,1.3,30,0,28.4-.3,26.2.3,23.6L3.8,8.1A9.35,9.35,0,0,1,9.1,1.5,21.12,21.12,0,0,1,17.9,0h20L34.5,14.6H19Z" />
            <path class="cls-2" d="M17.8,1.7A19.52,19.52,0,0,0,9.7,3,7.38,7.38,0,0,0,5.4,8.5L1.9,24a5.63,5.63,0,0,0,.7,4.9c1.4,1.7,4,2.4,8.7,2.4H28.9l1.8-8H15.2L18.3,9.7h3.5l-.7,3.1h12L35.7,1.6l-17.9.1Z" />
            <path id="fullLogo" class="cls-3" d="M34.2,2.9l-2,8.8H22.6l.7-3.1H17.4L13.7,24.5H29.2l-1.3,5.7H11.3C5.1,30.2,1.9,29,3,24.3L6.5,8.8c1.1-4.6,5.1-5.9,11.3-5.9Z" />
            <path id="fullLogo-2" data-name="fullLogo" class="cls-1" d="M50.4,16.4A6.76,6.76,0,0,1,56,19.7c.5.8.5,1.5,1,1.5.2,0,.3-.1.3-.4v-.5l-.2-2.5c0-.3-.1-.5-.2-.5s-.4.2-.6.2-.8-.6-1.7-.9a9.46,9.46,0,0,0-4.1-.9A8.07,8.07,0,0,0,44.6,18a9.55,9.55,0,0,0-2.5,6.7c0,5.3,3.1,8.5,8.2,8.5a10,10,0,0,0,6.3-1.9l.5-2c0-.2.1-.3.1-.4s-.1-.3-.2-.3c-.4,0-.6,1-1.5,1.9a7.27,7.27,0,0,1-4.8,1.9c-3.8,0-6.6-3.5-6.6-8.7C44,19.4,46.7,16.4,50.4,16.4Z" />
            <path id="fullLogo-3" data-name="fullLogo" class="cls-1" d="M74.5,32c-.7-.5-.8-1.2-.8-2.3V19.3c0-1,0-1.6.6-2.1s1.4-.3,1.4-.8c0-.2-.1-.3-.4-.3s-1,.1-2.4.1c-1.1,0-2-.1-2.7-.1-.4,0-.5,0-.5.3,0,.5.8.2,1.5.7s.8,1.1.8,2.2V23c0,.6-.1.6-.7.6h-8c-.5,0-.6,0-.6-.6V19.3c0-1,0-1.6.6-2.1s1.4-.3,1.4-.8c0-.2-.1-.3-.4-.3s-1,.1-2.7.1c-1.2,0-2-.1-2.5-.1s-.5.1-.5.4c0,.5.8.2,1.5.7s.8,1.1.8,2.2V29.9c0,1,0,1.6-.7,2.1s-1.3.4-1.3.9c0,.2.1.3.4.3s1-.1,2.5-.1c1,0,1.8.1,2.6.1.4,0,.5,0,.5-.3,0-.5-.8-.2-1.4-.7s-.8-1.2-.8-2.3V25.2c0-.4.2-.5.6-.5h8c.5,0,.7.1.7.5v4.7c0,1,0,1.6-.7,2.1s-1.3.4-1.3.9c0,.2.1.3.4.3s1.1-.1,2.5-.1c1,0,1.8.1,2.6.1.4,0,.5,0,.5-.3C75.9,32.2,75.1,32.5,74.5,32Z" />
            <path id="fullLogo-4" data-name="fullLogo" class="cls-1" d="M93.6,32.2c-.8-.3-1.2-1.1-1.7-2.3l-5.5-14c-.1-.2-.1-.4-.3-.4s-.3.1-.4.3L79,30.1a4.41,4.41,0,0,1-1.3,1.8c-.4.3-1,.3-1,.6a.27.27,0,0,0,.3.3c.2,0,.7-.1,1.4-.1,1.4,0,2.3.1,2.8.1.3,0,.4-.1.4-.3,0-.4-.5-.3-.9-.4a1.15,1.15,0,0,1-.9-1.1,1.92,1.92,0,0,1,.4-1.2l1.2-2.6c.3-.6.4-.9,1.1-.9h5.4c.6,0,.8.2,1,.8l1.3,3.3a1.83,1.83,0,0,1,.2.9c0,.4-.3.7-.8.8-.3.1-.6.1-.6.4a.32.32,0,0,0,.3.3,14.54,14.54,0,0,1,2.3-.2c1.5,0,2.4.1,2.8.1a.27.27,0,0,0,.3-.3C94.7,32.3,94.1,32.5,93.6,32.2Zm-6-6.6H83q-.6,0-.6-.3a.6.6,0,0,1,.1-.4l2.6-5.6q.15-.3.3-.3t.3.3L87.9,25a.76.76,0,0,1,.1.4C88,25.5,87.9,25.6,87.6,25.6Z" />
            <path id="fullLogo-5" data-name="fullLogo" class="cls-1" d="M106.8,16c-.5,0-1.6.1-3.1.1H96.1c-1.4,0-2.3-.1-2.9-.1s-.8,0-.8.5l-.3,2.4v.4c0,.2,0,.3.2.3.4,0,.3-.5.6-1.2.4-.9.9-1.4,1.8-1.4h3.4c.5,0,.7.1.7.6V29.8c0,1.3,0,1.8-.9,2.2-.7.3-1.4.1-1.4.6,0,.2.2.3.5.3s1.3-.2,2.7-.2c1.1,0,2.1.2,2.8.2.4,0,.5-.1.5-.4s-.5-.2-1.3-.6-.9-.8-.9-2.1V17.5c0-.5.2-.6.8-.6h3.1a2.33,2.33,0,0,1,2,1c.3.5.1,1.1.5,1.1.2,0,.3-.2.3-.5v-.2l-.2-2.2C107.3,16.2,107.2,16,106.8,16Z" />
            <path id="fullLogo-6" data-name="fullLogo" class="cls-1" d="M117.5,17.1h3.1a2.33,2.33,0,0,1,2,1c.3.5.1,1.1.5,1.1.2,0,.3-.2.3-.5v-.2l-.2-2.2c0-.3-.2-.4-.5-.4-.5,0-1.6.1-3.1.1H112c-1.4,0-2.3-.1-2.9-.1s-.8,0-.8.5l-.3,2.4v.4c0,.2,0,.3.2.3.4,0,.3-.5.6-1.2.4-.9.9-1.4,1.8-1.4H114c.5,0,.7.1.7.6V29.7c0,1.3,0,1.8-.9,2.2-.7.3-1.4.1-1.4.6,0,.2.2.3.5.3s1.3-.2,2.7-.2c1.1,0,2.1.2,2.8.2.4,0,.5-.1.5-.4s-.5-.2-1.3-.6-.9-.8-.9-2.1V17.4A1,1,0,0,1,117.5,17.1Z" />
            <path id="fullLogo-7" data-name="fullLogo" class="cls-1" d="M137.6,32.2c-.8-.3-1.2-1.1-1.7-2.3l-5.5-14c-.1-.2-.1-.4-.3-.4s-.3.1-.4.3L123,30.1a4.41,4.41,0,0,1-1.3,1.8c-.4.3-1,.3-1,.6a.27.27,0,0,0,.3.3c.2,0,.7-.1,1.4-.1,1.4,0,2.3.1,2.8.1.3,0,.4-.1.4-.3,0-.4-.5-.3-.9-.4a1.15,1.15,0,0,1-.9-1.1,1.92,1.92,0,0,1,.4-1.2l1.2-2.6c.3-.6.4-.9,1.1-.9h5.4c.6,0,.8.2,1,.8l1.3,3.3a1.83,1.83,0,0,1,.2.9c0,.4-.3.7-.8.8-.3.1-.6.1-.6.4a.32.32,0,0,0,.3.3,14.54,14.54,0,0,1,2.3-.2c1.5,0,2.4.1,2.8.1a.27.27,0,0,0,.3-.3C138.7,32.3,138.2,32.5,137.6,32.2Zm-6-6.6H127q-.6,0-.6-.3a.6.6,0,0,1,.1-.4l2.6-5.6q.15-.3.3-.3t.3.3l2.2,5.7a.76.76,0,0,1,.1.4C132.1,25.5,131.9,25.6,131.6,25.6Z" />
            <path id="fullLogo-8" data-name="fullLogo" class="cls-1" d="M156.1,16.1c-.4,0-1.2.2-2.3.2s-1.6-.2-2-.2a.32.32,0,0,0-.3.3c0,.4.9.3,1.7.8s.9,1.7.9,3.7v8.3c0,.3,0,.4-.1.4s-.1-.1-.3-.2l-11.6-13c-.2-.3-.4-.3-.8-.3h-1.7c-.3,0-.4,0-.4.3,0,.5.9.3,1.7,1.1s1,2.1,1,4v1.2l-.2,6.3c0,1.8,0,2.6-1,3.2-.5.3-1,.2-1,.7a.27.27,0,0,0,.3.3c.3,0,.8-.1,1.5-.1,1.3,0,2.2.1,2.8.1.4,0,.6,0,.6-.3s-.6-.2-1.2-.5c-.8-.4-1-1-1-2.1v-1l.2-8.5a.44.44,0,0,1,.1-.3,1.24,1.24,0,0,0,.3.2L154.2,33c.2.2.3.3.4.3.3,0,.3-.2.3-.6V19.3a2.88,2.88,0,0,1,.7-2.3c.4-.3.8-.2.8-.6C156.5,16.2,156.3,16.1,156.1,16.1Z" />
            <path id="fullLogo-9" data-name="fullLogo" class="cls-1" d="M165.7,15.7a8.38,8.38,0,0,0-6.2,2.6,8.77,8.77,0,0,0-2.6,6.3c0,5.3,3.6,8.9,8.8,8.9a8.34,8.34,0,0,0,6.5-3,9.3,9.3,0,0,0,2.2-6.1,9,9,0,0,0-2.4-6.2A8.07,8.07,0,0,0,165.7,15.7Zm.2,16.9a6,6,0,0,1-5.5-3.3,11,11,0,0,1-1.6-5.5c0-4.5,2.7-7.3,6.7-7.3a6.36,6.36,0,0,1,5.4,2.9,10.11,10.11,0,0,1,1.8,5.7C172.6,29.8,170,32.6,165.9,32.6Z" />
            <path id="fullLogo-10" data-name="fullLogo" class="cls-1" d="M184.8,15.7a8.38,8.38,0,0,0-6.2,2.6,8.77,8.77,0,0,0-2.6,6.3c0,5.3,3.6,8.9,8.8,8.9a8.34,8.34,0,0,0,6.5-3,9.3,9.3,0,0,0,2.2-6.1,9,9,0,0,0-2.4-6.2A8.07,8.07,0,0,0,184.8,15.7Zm.2,16.9a6,6,0,0,1-5.5-3.3,11,11,0,0,1-1.6-5.5c0-4.5,2.7-7.3,6.7-7.3a6.36,6.36,0,0,1,5.4,2.9,10.11,10.11,0,0,1,1.8,5.7C191.7,29.8,189.1,32.6,185,32.6Z" />
            <path id="fullLogo-11" data-name="fullLogo" class="cls-1" d="M211.4,24.3c0-.2-.1-.2-.2-.2s-.8.1-1.8.1c-1.3,0-2.1-.1-2.5-.1s-.5,0-.5.3.6.3,1,.5a1.29,1.29,0,0,1,.8,1.3v2.9a2.59,2.59,0,0,1-.9,2.3,6.47,6.47,0,0,1-3.6,1.2c-3.8,0-6.7-3.5-6.7-8.7,0-4.4,2.7-7.4,6.4-7.4a6.88,6.88,0,0,1,5.4,2.6c.8,1.1.8,2,1.3,2,.2,0,.3-.1.3-.4v-.5l-.2-2.5c0-.3-.1-.5-.2-.5s-.4.2-.6.2a8.48,8.48,0,0,1-1.5-.7,10.7,10.7,0,0,0-4.3-.9,7.55,7.55,0,0,0-5.9,2.3,9.55,9.55,0,0,0-2.5,6.7c0,5.2,3.2,8.5,8.1,8.5a11.3,11.3,0,0,0,6.1-2c.7-.4,1.1-.3,1.1-.9V26.1a1.43,1.43,0,0,1,.5-1.3C211.1,24.7,211.4,24.7,211.4,24.3Z" />
            <path id="fullLogo-12" data-name="fullLogo" class="cls-1" d="M227.9,32.2c-.8-.3-1.2-1.1-1.7-2.3l-5.5-14c-.1-.2-.1-.4-.3-.4s-.3.1-.4.3l-6.7,14.3a4.41,4.41,0,0,1-1.3,1.8c-.4.3-1,.3-1,.6a.27.27,0,0,0,.3.3c.2,0,.7-.1,1.4-.1,1.4,0,2.3.1,2.8.1.3,0,.4-.1.4-.3,0-.4-.5-.3-.9-.4a1.15,1.15,0,0,1-.9-1.1,1.92,1.92,0,0,1,.4-1.2l1.2-2.6c.3-.6.4-.9,1.1-.9h5.4c.6,0,.8.2,1,.8l1.3,3.3a1.83,1.83,0,0,1,.2.9c0,.4-.3.7-.8.8-.3.1-.6.1-.6.4a.32.32,0,0,0,.3.3,14.54,14.54,0,0,1,2.3-.2c1.5,0,2.4.1,2.8.1a.27.27,0,0,0,.3-.3C229.1,32.3,228.5,32.5,227.9,32.2Zm-6-6.6h-4.6q-.6,0-.6-.3a.6.6,0,0,1,.1-.4l2.6-5.6q.15-.3.3-.3t.3.3l2.2,5.7a.76.76,0,0,1,.1.4C222.4,25.5,222.2,25.6,221.9,25.6Z" />
            <path id="fullLogo-13" data-name="fullLogo" class="cls-1" d="M42.1,2.4c.2,0,.2-.3.3-.6a.93.93,0,0,1,.9-.7H45c.3,0,.3.1.3.3V7.5c0,.6,0,.9-.4,1.1s-.7,0-.7.3a.22.22,0,0,0,.2.2c.2,0,.7-.1,1.3-.1s1,.1,1.4.1c.2,0,.3-.1.3-.2s-.3-.1-.7-.3-.5-.4-.5-1V1.5c0-.3.1-.3.4-.3h1.6a1.1,1.1,0,0,1,1,.5c.1.3,0,.6.3.6.1,0,.1-.1.1-.2V2L49.5.9c0-.1-.1-.2-.3-.2s-.8.1-1.5.1H43.9c-.7,0-1.2-.1-1.4-.1s-.4,0-.4.3L42,2.2c0,.1,0,.2.1.2C42,2.3,42,2.4,42.1,2.4Z" />
            <path id="fullLogo-14" data-name="fullLogo" class="cls-1" d="M50.8,1c.4.3.4.6.4,1.1V7.3c0,.5,0,.8-.3,1.1s-.7.2-.7.4a.22.22,0,0,0,.2.2,8.87,8.87,0,0,1,1.3-.1c.5,0,.9.1,1.3.1.2,0,.3,0,.3-.2s-.4-.1-.7-.4a1.37,1.37,0,0,1-.4-1.1V4.9a.27.27,0,0,1,.3-.3h4c.2,0,.3,0,.3.3V7.2c0,.5,0,.8-.3,1.1s-.7.2-.7.4a.22.22,0,0,0,.2.2,8.87,8.87,0,0,1,1.3-.1c.5,0,.9.1,1.3.1.2,0,.3,0,.3-.2s-.4-.1-.7-.4a1.37,1.37,0,0,1-.4-1.1V1.9c0-.5,0-.8.3-1s.7-.2.7-.4a.22.22,0,0,0-.2-.2,8.37,8.37,0,0,1-1.2.1c-.6,0-1-.1-1.3-.1s-.3,0-.3.2.4.1.7.4.4.6.4,1.1V3.8c0,.3-.1.3-.3.3h-4c-.3,0-.3,0-.3-.3V1.9c0-.5,0-.8.3-1s.7-.2.7-.4a.22.22,0,0,0-.2-.2,8.87,8.87,0,0,1-1.3.1c-.6,0-1-.1-1.2-.1s-.3,0-.3.2C50.1.9,50.5.8,50.8,1Z" />
            <path id="fullLogo-15" data-name="fullLogo" class="cls-1" d="M60.1,1a1.37,1.37,0,0,1,.4,1.1V7.3c0,.5,0,.8-.3,1.1s-.6.2-.6.5a.1.1,0,0,0,.1.1c.1,0,.8-.1,2.1-.1,1,0,1.7.1,2.1.1a1.37,1.37,0,0,0,1.3-.6,1.63,1.63,0,0,0,.4-.9c0-.1,0-.2-.1-.2s-.3.4-.7.7a5.07,5.07,0,0,1-2.5.6c-.8,0-1-.1-1-.8V5.3c0-.3,0-.4.4-.4h1.1c.6,0,1,.1,1.2.5s0,.6.3.6c.1,0,.2-.1.2-.3a5.38,5.38,0,0,1-.1-.8V3.8a.44.44,0,0,0-.1-.3c-.2,0-.1.3-.3.6s-.6.4-1.2.4h-1c-.4,0-.4-.1-.4-.5V1.5c0-.4.2-.5.9-.5h.8c1,0,1.5.2,1.5.8v.1a.22.22,0,0,0,.2.2c.1,0,.1-.1.1-.3l.1-1V.6c0-.2-.1-.2-.2-.2s-1.2.1-2.9.1C60.5.5,59.8.4,59.7.4s-.2,0-.2.2S59.8.8,60.1,1Z" />
            <path id="fullLogo-16" data-name="fullLogo" class="cls-1" d="M69.8,1c.3.3.3.6.3,1.1V5.2c0,1.3,0,2.3.7,3a3.42,3.42,0,0,0,2.6.9A3.31,3.31,0,0,0,76,8a5.09,5.09,0,0,0,.7-3.2V2.1c0-.5,0-.8.2-1s.6-.2.6-.4,0-.1-.2-.1-.5.1-1,.1-.7-.1-1-.1-.3,0-.3.2.4.1.7.3.4.5.4,1.1V5.3a4.2,4.2,0,0,1-.5,2.6,2.58,2.58,0,0,1-2.1.9,2.52,2.52,0,0,1-2.1-1A4.91,4.91,0,0,1,71,5.2v-3c0-.5,0-.9.2-1.1s.6-.1.6-.4c0-.1-.1-.1-.2-.1a8.37,8.37,0,0,1-1.2.1A8,8,0,0,1,69.3.6c-.2,0-.2,0-.2.1C69.1,1,69.5.8,69.8,1Z" />
            <path id="fullLogo-17" data-name="fullLogo" class="cls-1" d="M78.7,1.2a2.83,2.83,0,0,1,.5,2v.6l-.1,3.1c0,.9,0,1.3-.5,1.6-.3.2-.5.1-.5.3s0,.1.2.1a5.64,5.64,0,0,1,.7-.1c.6,0,1.1.1,1.4.1s.3,0,.3-.2-.3-.1-.6-.2-.5-.5-.5-1.1V6.9l.1-4.3c0-.1,0-.1.1-.1a.1.1,0,0,1,.1.1l5.4,6.1.2.2c.1,0,.1-.1.1-.3V1.9c0-.6.1-1,.3-1.1s.4-.1.4-.3-.1-.1-.2-.1-.6.1-1.2.1-.8-.1-1-.1-.1.1-.1.2.4.1.9.4.4.8.4,1.9V7.2a.1.1,0,0,1-.1-.1L79.2.6c-.1-.1-.2-.1-.4-.1H78c-.1,0-.2,0-.2.1C77.9,1,78.3.8,78.7,1.2Z" />
            <path id="fullLogo-18" data-name="fullLogo" class="cls-1" d="M88.1,1a1.37,1.37,0,0,1,.4,1.1V7.3c0,.5,0,.8-.3,1.1s-.7.2-.7.4a.22.22,0,0,0,.2.2A8.87,8.87,0,0,1,89,8.9c.5,0,.9.1,1.3.1.2,0,.3,0,.3-.2s-.4-.1-.7-.4a1.37,1.37,0,0,1-.4-1.1V2c0-.5,0-.8.3-1s.7-.2.7-.4a.22.22,0,0,0-.2-.2A8.87,8.87,0,0,1,89,.5c-.6,0-1-.1-1.2-.1s-.2,0-.2.2C87.4,1,87.8.8,88.1,1Z" />
            <path id="fullLogo-19" data-name="fullLogo" class="cls-1" d="M91.4,1a1.83,1.83,0,0,1,.6.8L95,9a.22.22,0,0,0,.2.2c.1,0,.1-.1.2-.2l2.8-6.6A11.25,11.25,0,0,1,98.9.9c.1-.1.4-.2.4-.3s-.1-.1-.2-.1H97.5c-.2,0-.3,0-.3.1s.2.2.4.2.3.2.3.4A4.83,4.83,0,0,1,97.4,3L95.6,7.3a.22.22,0,0,1-.2.2c-.1,0-.1-.1-.2-.2L92.9,1.9a2.54,2.54,0,0,1-.2-.7c0-.5.5-.4.5-.6S93.1.5,93,.5a5.53,5.53,0,0,1-.9.1,5.85,5.85,0,0,1-1-.1c-.1,0-.2,0-.2.2S91.2.8,91.4,1Z" />
            <path id="fullLogo-20" data-name="fullLogo" class="cls-1" d="M100.5,1a1.37,1.37,0,0,1,.4,1.1V7.3c0,.5,0,.8-.3,1.1s-.6.2-.6.5a.1.1,0,0,0,.1.1c.1,0,.8-.1,2.1-.1,1,0,1.7.1,2.1.1a1.37,1.37,0,0,0,1.3-.6,1.63,1.63,0,0,0,.4-.9c0-.1,0-.2-.1-.2s-.3.4-.7.7a5.07,5.07,0,0,1-2.5.6c-.8,0-1-.1-1-.8V5.3c0-.3,0-.4.4-.4h1.1c.6,0,1,.1,1.2.5s0,.6.3.6c.1,0,.2-.1.2-.3a5.38,5.38,0,0,1-.1-.8V3.8a.44.44,0,0,0-.1-.3c-.2,0-.1.3-.3.6s-.6.4-1.2.4h-1c-.4,0-.4-.1-.4-.5V1.5c0-.4.2-.5.9-.5h.8c1,0,1.5.2,1.5.8v.1a.22.22,0,0,0,.2.2c.1,0,.1-.1.1-.3l.1-1V.6c0-.2-.1-.2-.2-.2s-1.2.1-2.9.1c-1.4,0-2.1-.1-2.2-.1s-.2,0-.2.2S100.2.8,100.5,1Z" />
            <path id="fullLogo-21" data-name="fullLogo" class="cls-1" d="M107.3,1a1.37,1.37,0,0,1,.4,1.1V7.3c0,.5,0,.8-.3,1.1s-.7.2-.7.4a.22.22,0,0,0,.2.2,8.87,8.87,0,0,1,1.3-.1c.7,0,1.1.1,1.4.1s.2,0,.2-.2-.4-.1-.8-.4-.4-.6-.4-1.1v-2c0-.4.2-.4.6-.4.6,0,.9,0,1.2.5l1.3,2c.6,1,1.1,1.5,2,1.5.5,0,.7,0,.7-.2s-.3-.1-.5-.2a5.85,5.85,0,0,1-1.5-1.8L111,4.6a2.21,2.21,0,0,0,1.5-2.1c0-1.2-.9-2-2.6-2-.8,0-1.5.1-1.8.1-.6,0-1-.1-1.2-.1s-.2,0-.2.2S107,.8,107.3,1Zm1.3.4c0-.4.2-.4.7-.4,1.5,0,2.3.8,2.3,2s-.7,1.7-2.2,1.7h-.1c-.5,0-.7,0-.7-.3Z" />
            <path id="fullLogo-22" data-name="fullLogo" class="cls-1" d="M114.8,8.3c.1.4.9.8,2.1.8,1.9,0,3-1,3-2.5a2.24,2.24,0,0,0-.8-1.9,5.61,5.61,0,0,0-1.9-.9c-1.1-.4-1.8-.6-1.8-1.6A1.62,1.62,0,0,1,117.2.7a2,2,0,0,1,1.9,1.1c.3.4.2.7.4.7s.1-.1.1-.2V2.1L119.4.6c0-.1,0-.2-.1-.2s-.2.1-.3.1a5,5,0,0,0-1.7-.4c-1.6,0-2.7.9-2.7,2.2s.8,1.9,2.5,2.4c1.3.4,2,.8,2,1.8a1.79,1.79,0,0,1-2,1.8A2.44,2.44,0,0,1,115,7.1c-.3-.6-.3-.9-.5-.9s-.1.1-.1.2v.2Z" />
            <path id="fullLogo-23" data-name="fullLogo" class="cls-1" d="M121.6,1a1.37,1.37,0,0,1,.4,1.1V7.3c0,.5,0,.8-.3,1.1s-.7.2-.7.4a.22.22,0,0,0,.2.2,8.87,8.87,0,0,1,1.3-.1c.5,0,.9.1,1.3.1.2,0,.3,0,.3-.2s-.4-.1-.7-.4a1.37,1.37,0,0,1-.4-1.1V2c0-.5,0-.8.3-1s.7-.2.7-.4a.22.22,0,0,0-.2-.2,8.87,8.87,0,0,1-1.3.1c-.6,0-1-.1-1.2-.1s-.2,0-.2.2C120.9,1,121.3.8,121.6,1Z" />
            <path id="fullLogo-24" data-name="fullLogo" class="cls-1" d="M124.7,2.4c.2,0,.2-.3.3-.6a.93.93,0,0,1,.9-.7h1.7c.3,0,.3.1.3.3V7.5c0,.6,0,.9-.4,1.1s-.7,0-.7.3a.22.22,0,0,0,.2.2c.2,0,.7-.1,1.3-.1s1,.1,1.4.1c.2,0,.3-.1.3-.2s-.3-.1-.7-.3-.5-.4-.5-1V1.5c0-.3.1-.3.4-.3h1.6a1.1,1.1,0,0,1,1,.5c.1.3,0,.6.3.6.1,0,.1-.1.1-.2V2L132.1.9c0-.1-.1-.2-.3-.2s-.8.1-1.5.1h-3.8c-.7,0-1.2-.1-1.4-.1s-.4,0-.4.3l-.1,1.2c0,.1,0,.2.1.2C124.6,2.3,124.6,2.4,124.7,2.4Z" />
            <path id="fullLogo-25" data-name="fullLogo" class="cls-1" d="M132.8.9c.3.1.5.4.7.8l1.9,3a1.45,1.45,0,0,1,.2.7v2c0,.5,0,.8-.3,1.1s-.7.2-.7.4a.22.22,0,0,0,.2.2,8.87,8.87,0,0,1,1.3-.1c.5,0,.9.1,1.2.1s.2,0,.2-.2-.4-.1-.6-.3-.3-.6-.3-1.1V5.3a1.17,1.17,0,0,1,.2-.7l1.5-2.3c.4-.6.6-1,.8-1.1s.4-.1.4-.3,0-.2-.2-.2a5.85,5.85,0,0,1-1,.1c-.4,0-.7-.1-.9-.1s-.2,0-.2.2.3.1.5.2.4.2.4.4a2.71,2.71,0,0,1-.3.8l-1.3,2.1-.1.1a.1.1,0,0,1-.1-.1L134.8,2a1.69,1.69,0,0,1-.2-.5.27.27,0,0,1,.3-.3c.1,0,.2,0,.2-.2s0-.1-.2-.1a7.72,7.72,0,0,1-1,.1,8,8,0,0,1-1.1-.1c-.2,0-.2,0-.2.2C132.4.9,132.6.8,132.8.9Z" />
            <path id="fullLogo-26" data-name="fullLogo" class="cls-1" d="M147.5,9.2a4.27,4.27,0,0,0,3.3-1.5,4.62,4.62,0,0,0,1.1-3,4.3,4.3,0,0,0-1.2-3.1A4.45,4.45,0,0,0,147.5.3a4,4,0,0,0-3.1,1.3,4.82,4.82,0,0,0-1.3,3.2A4.2,4.2,0,0,0,147.5,9.2ZM147.3.8A3.32,3.32,0,0,1,150,2.2a5.21,5.21,0,0,1,.9,2.9c0,2.3-1.3,3.7-3.4,3.7a3.31,3.31,0,0,1-2.8-1.6,5.6,5.6,0,0,1-.8-2.7C144,2.2,145.3.8,147.3.8Z" />
            <path id="fullLogo-27" data-name="fullLogo" class="cls-1" d="M153.2,1a1.37,1.37,0,0,1,.4,1.1V7.3c0,.5,0,.8-.3,1.1s-.5.2-.5.4a.22.22,0,0,0,.2.2,6.27,6.27,0,0,1,1.1-.1c.5,0,1,.1,1.3.1s.3,0,.3-.2-.4-.1-.7-.4a1.37,1.37,0,0,1-.4-1.1v-2c0-.3,0-.4.4-.4h1.1c.6,0,1,.1,1.2.5s0,.6.3.6c.1,0,.2-.1.2-.3a5.38,5.38,0,0,1-.1-.8V3.8c0-.2,0-.3-.1-.3s-.2.3-.3.6-.6.4-1.2.4h-1c-.4,0-.4-.1-.4-.5V1.5c0-.4.2-.5.9-.5h.8c1,0,1.5.2,1.5.8v.1c0,.1,0,.2.1.2s.1-.1.2-.3l.1-1V.6c0-.2,0-.2-.2-.2-.4,0-1.2.1-2.5.1H155c-1.3,0-2-.1-2.1-.1s-.2,0-.2.2S152.9.8,153.2,1Z" />
            <path id="fullLogo-28" data-name="fullLogo" class="cls-1" d="M161.9,2.4c.2,0,.2-.3.3-.6a.93.93,0,0,1,.9-.7h1.7c.3,0,.3.1.3.3V7.5c0,.6,0,.9-.4,1.1s-.7,0-.7.3a.22.22,0,0,0,.2.2c.2,0,.7-.1,1.3-.1s1,.1,1.4.1c.2,0,.3-.1.3-.2s-.3-.1-.7-.3-.5-.4-.5-1V1.5c0-.3.1-.3.4-.3H168a1.1,1.1,0,0,1,1,.5c.1.3,0,.6.3.6.1,0,.1-.1.1-.2V2L169.3.9c0-.1-.1-.2-.3-.2s-.8.1-1.5.1h-3.8c-.7,0-1.2-.1-1.4-.1s-.4,0-.4.3l-.1,1.2c0,.1,0,.2.1.2C161.7,2.3,161.8,2.4,161.9,2.4Z" />
            <path id="fullLogo-29" data-name="fullLogo" class="cls-1" d="M170.5,1a1.37,1.37,0,0,1,.4,1.1V7.3c0,.5,0,.8-.3,1.1s-.6.2-.6.5a.1.1,0,0,0,.1.1c.1,0,.8-.1,2.1-.1,1,0,1.7.1,2.1.1a1.37,1.37,0,0,0,1.3-.6,1.63,1.63,0,0,0,.4-.9c0-.1,0-.2-.1-.2s-.3.4-.7.7a5.07,5.07,0,0,1-2.5.6c-.8,0-1-.1-1-.8V5.3c0-.3,0-.4.4-.4h1.1c.6,0,1,.1,1.2.5s0,.6.3.6c.1,0,.2-.1.2-.3a5.38,5.38,0,0,1-.1-.8V3.8a.44.44,0,0,0-.1-.3c-.2,0-.1.3-.3.6s-.6.4-1.2.4h-1c-.4,0-.4-.1-.4-.5V1.5c0-.4.2-.5.9-.5h.8c1,0,1.5.2,1.5.8v.1a.22.22,0,0,0,.2.2c.1,0,.1-.1.1-.3l.1-1V.6c0-.2-.1-.2-.2-.2s-1.2.1-2.9.1c-1.4,0-2.1-.1-2.2-.1s-.2,0-.2.2S170.2.8,170.5,1Z" />
            <path id="fullLogo-30" data-name="fullLogo" class="cls-1" d="M177.3,1.2a2.83,2.83,0,0,1,.5,2v.6l-.1,3.1c0,.9,0,1.3-.5,1.6-.3.2-.5.1-.5.3s0,.1.2.1a5.64,5.64,0,0,1,.7-.1c.6,0,1.1.1,1.4.1s.3,0,.3-.2-.3-.1-.6-.2-.5-.5-.5-1.1V6.9l.1-4.3c0-.1,0-.1.1-.1a.1.1,0,0,1,.1.1l5.4,6.1.2.2c.1,0,.1-.1.1-.3V1.9c0-.6.1-1,.3-1.1s.4-.1.4-.3-.1-.1-.2-.1-.6.1-1.2.1-.8-.1-1-.1-.1.1-.1.2.4.1.9.4.4.8.4,1.9V7.2a.1.1,0,0,1-.1-.1L177.8.6c-.1-.1-.2-.1-.4-.1h-.8c-.1,0-.2,0-.2.1C176.4,1,176.9.8,177.3,1.2Z" />
            <path id="fullLogo-31" data-name="fullLogo" class="cls-1" d="M186.5,1.2a2.83,2.83,0,0,1,.5,2v.6l-.1,3.1c0,.9,0,1.3-.5,1.6-.3.2-.5.1-.5.3s0,.1.2.1a5.64,5.64,0,0,1,.7-.1c.6,0,1.1.1,1.4.1s.3,0,.3-.2-.3-.1-.6-.2-.5-.5-.5-1.1V6.9l.1-4.3c0-.1,0-.1.1-.1a.1.1,0,0,1,.1.1l5.4,6.1.2.2c.1,0,.1-.1.1-.3V1.9c0-.6.1-1,.3-1.1s.4-.1.4-.3-.1-.1-.2-.1-.6.1-1.2.1-.8-.1-1-.1-.1.1-.1.2.4.1.9.4.4.8.4,1.9V7.2a.1.1,0,0,1-.1-.1L187,.6c-.1-.1-.2-.1-.4-.1h-.8c-.1,0-.2,0-.2.1C185.6,1,186.1.8,186.5,1.2Z" />
            <path id="fullLogo-32" data-name="fullLogo" class="cls-1" d="M195.7,1a1.37,1.37,0,0,1,.4,1.1V7.3c0,.5,0,.8-.3,1.1s-.6.2-.6.5a.1.1,0,0,0,.1.1c.1,0,.8-.1,2.1-.1,1,0,1.7.1,2.1.1a1.37,1.37,0,0,0,1.3-.6,1.63,1.63,0,0,0,.4-.9c0-.1,0-.2-.1-.2s-.3.4-.7.7a5.07,5.07,0,0,1-2.5.6c-.8,0-1-.1-1-.8V5.3c0-.3,0-.4.4-.4h1.1c.6,0,1,.1,1.2.5s0,.6.3.6c.1,0,.2-.1.2-.3a5.38,5.38,0,0,1-.1-.8V3.8a.44.44,0,0,0-.1-.3c-.2,0-.1.3-.3.6s-.6.4-1.2.4h-1c-.4,0-.4-.1-.4-.5V1.5c0-.4.2-.5.9-.5h.8c1,0,1.5.2,1.5.8v.1a.22.22,0,0,0,.2.2c.1,0,.1-.1.1-.3l.1-1V.6c0-.2-.1-.2-.2-.2s-1.2.1-2.9.1c-1.4,0-2.1-.1-2.2-.1s-.2,0-.2.2S195.4.8,195.7,1Z" />
            <path id="fullLogo-33" data-name="fullLogo" class="cls-1" d="M202.2,8.3c.1.4.9.8,2.1.8,1.9,0,3-1,3-2.5a2.24,2.24,0,0,0-.8-1.9,5.61,5.61,0,0,0-1.9-.9c-1.1-.4-1.8-.6-1.8-1.6A1.62,1.62,0,0,1,204.6.7a2,2,0,0,1,1.9,1.1c.3.4.2.7.4.7s.1-.1.1-.2V2.1L206.8.6c0-.1,0-.2-.1-.2s-.2.1-.3.1a5,5,0,0,0-1.7-.4c-1.6,0-2.7.9-2.7,2.2s.8,1.9,2.5,2.4c1.3.4,2,.8,2,1.8a1.79,1.79,0,0,1-2,1.8,2.44,2.44,0,0,1-2.1-1.2c-.3-.6-.3-.9-.5-.9s-.1.1-.1.2v.2Z" />
            <path id="fullLogo-34" data-name="fullLogo" class="cls-1" d="M208.7,8.3c.1.4.9.8,2.1.8,1.9,0,3-1,3-2.5a2.24,2.24,0,0,0-.8-1.9,5.61,5.61,0,0,0-1.9-.9c-1.1-.4-1.8-.6-1.8-1.6A1.62,1.62,0,0,1,211.1.7,2,2,0,0,1,213,1.8c.3.4.2.7.4.7s.1-.1.1-.2V2.1L213.3.6c0-.1,0-.2-.1-.2s-.2.1-.3.1a5,5,0,0,0-1.7-.4c-1.6,0-2.7.9-2.7,2.2s.8,1.9,2.5,2.4c1.3.4,2,.8,2,1.8a1.79,1.79,0,0,1-2,1.8,2.44,2.44,0,0,1-2.1-1.2c-.3-.6-.3-.9-.5-.9s-.1.1-.1.2v.2Z" />
            <path id="fullLogo-35" data-name="fullLogo" class="cls-1" d="M215.3,1a1.37,1.37,0,0,1,.4,1.1V7.3c0,.5,0,.8-.3,1.1s-.6.2-.6.5a.1.1,0,0,0,.1.1c.1,0,.8-.1,2.1-.1,1,0,1.7.1,2.1.1a1.37,1.37,0,0,0,1.3-.6,1.63,1.63,0,0,0,.4-.9c0-.1,0-.2-.1-.2s-.3.4-.7.7a5.07,5.07,0,0,1-2.5.6c-.8,0-1-.1-1-.8V5.3c0-.3,0-.4.4-.4H218c.6,0,1,.1,1.2.5s0,.6.3.6c.1,0,.2-.1.2-.3a5.38,5.38,0,0,1-.1-.8V3.8a.44.44,0,0,0-.1-.3c-.2,0-.1.3-.3.6s-.6.4-1.2.4h-1c-.4,0-.4-.1-.4-.5V1.5c0-.4.2-.5.9-.5h.8c1,0,1.5.2,1.5.8v.1a.22.22,0,0,0,.2.2c.1,0,.1-.1.1-.3l.1-1V.6c0-.2-.1-.2-.2-.2s-1.2.1-2.9.1c-1.4,0-2.1-.1-2.2-.1s-.2,0-.2.2S215,.8,215.3,1Z" />
            <path id="fullLogo-36" data-name="fullLogo" class="cls-1" d="M222.1,1a1.37,1.37,0,0,1,.4,1.1V7.3c0,.5,0,.8-.3,1.1s-.6.2-.6.5a.1.1,0,0,0,.1.1c.1,0,.8-.1,2.1-.1,1,0,1.7.1,2.1.1a1.37,1.37,0,0,0,1.3-.6,1.63,1.63,0,0,0,.4-.9c0-.1,0-.2-.1-.2s-.3.4-.7.7a5.07,5.07,0,0,1-2.5.6c-.8,0-1-.1-1-.8V5.3c0-.3,0-.4.4-.4h1.1c.6,0,1,.1,1.2.5s0,.6.3.6c.1,0,.2-.1.2-.3a5.38,5.38,0,0,1-.1-.8V3.8a.44.44,0,0,0-.1-.3c-.2,0-.1.3-.3.6s-.6.4-1.2.4h-1c-.4,0-.4-.1-.4-.5V1.5c0-.4.2-.5.9-.5h.8c1,0,1.5.2,1.5.8v.1a.22.22,0,0,0,.2.2c.1,0,.1-.1.1-.3l.1-1V.6c0-.2-.1-.2-.2-.2s-1.2.1-2.9.1c-1.4,0-2.1-.1-2.2-.1s-.2,0-.2.2S221.8.8,222.1,1Z" />
            <path id="fullLogo-37" data-name="fullLogo" class="cls-1" d="M228,12.6a.27.27,0,0,0-.3-.3H42a.3.3,0,0,0,0,.6H227.8C227.9,12.9,228,12.8,228,12.6Z" />
        </g>
    </g>
</svg>
