<?xml version="1.0" encoding="utf-8"?>
<!-- Generator: Adobe Illustrator 18.0.0, SVG Export Plug-In . SVG Version: 6.00 Build 0)  -->
<!DOCTYPE svg PUBLIC "-//W3C//DTD SVG 1.1//EN" "http://www.w3.org/Graphics/SVG/1.1/DTD/svg11.dtd">
<svg version="1.1" id="Capa_1" xmlns="http://www.w3.org/2000/svg" xmlns:xlink="http://www.w3.org/1999/xlink" x="0px" y="0px"
	 viewBox="0 0 612 792" enable-background="new 0 0 612 792" xml:space="preserve">
<path d="M606.3,303.1l-30.9-30.9c-3.8-3.8-9-6-14.3-6s-9.8,2.3-14.3,6L305.9,513.1L65,272.2c-3.8-3.8-9-6-14.3-6s-9.8,2.3-14.3,6
	L5.6,303.1c-3.8,3.8-6,9-6,14.3s2.3,9.8,6,14.3l286.1,286.1c3.8,3.8,9,6,14.3,6s9.8-2.3,14.3-6l286.1-286.1c3.8-3.8,6-9,6-14.3
	C613.1,311.4,610.8,306.8,606.3,303.1z"/>
</svg>
