<?xml version="1.0" encoding="utf-8"?>
<!-- Generator: Adobe Illustrator 18.0.0, SVG Export Plug-In . SVG Version: 6.00 Build 0)  -->
<!DOCTYPE svg PUBLIC "-//W3C//DTD SVG 1.1//EN" "http://www.w3.org/Graphics/SVG/1.1/DTD/svg11.dtd">
<svg version="1.1" id="Capa_1" xmlns="http://www.w3.org/2000/svg" xmlns:xlink="http://www.w3.org/1999/xlink" x="0px" y="0px"
	 viewBox="84.3 32.3 47.4 81.3" enable-background="new 84.3 32.3 47.4 81.3" xml:space="preserve">
<path d="M98.9,73l32-32c0.5-0.5,0.8-1.2,0.8-1.9s-0.3-1.3-0.8-1.9l-4.1-4.1c-0.5-0.5-1.2-0.8-1.9-0.8c-0.7,0-1.3,0.3-1.9,0.8l-38,38
	c-0.5,0.5-0.8,1.2-0.8,1.9s0.3,1.3,0.8,1.9l38,38c0.5,0.5,1.2,0.8,1.9,0.8c0.7,0,1.3-0.3,1.9-0.8l4.1-4.1c0.5-0.5,0.8-1.2,0.8-1.9
	c0-0.7-0.3-1.3-0.8-1.9L98.9,73z"/>
</svg>
