<?xml version="1.0" encoding="utf-8"?>
<!-- Generator: Adobe Illustrator 16.0.0, SVG Export Plug-In . SVG Version: 6.00 Build 0)  -->
<!DOCTYPE svg PUBLIC "-//W3C//DTD SVG 1.1//EN" "http://www.w3.org/Graphics/SVG/1.1/DTD/svg11.dtd">
<svg version="1.1" id="Layer_1" xmlns="http://www.w3.org/2000/svg" xmlns:xlink="http://www.w3.org/1999/xlink" x="0px" y="0px"
	 width="71.25px" height="69.5px" viewBox="0 0 71.25 69.5" enable-background="new 0 0 71.25 69.5" xml:space="preserve">
<path d="M1.74,0.801v67.382h67.518V0.801H1.74z M63.043,9.904v11.449H50.639V9.904H63.043z M44.119,34.675
	c0,4.82-3.926,8.746-8.746,8.746s-8.746-3.926-8.746-8.746c0-4.817,3.926-8.739,8.746-8.739S44.119,29.857,44.119,34.675z
	 M6.83,63.095V29.434h15.756c-0.664,1.614-1.047,3.383-1.047,5.241c0,7.629,6.207,13.834,13.834,13.834s13.834-6.205,13.834-13.834
	c0-1.858-0.383-3.627-1.049-5.241H64.17v33.661H6.83z"/>
</svg>
