<?xml version="1.0" encoding="utf-8"?>
<!-- Generator: Adobe Illustrator 16.0.0, SVG Export Plug-In . SVG Version: 6.00 Build 0)  -->
<!DOCTYPE svg PUBLIC "-//W3C//DTD SVG 1.1//EN" "http://www.w3.org/Graphics/SVG/1.1/DTD/svg11.dtd">
<svg version="1.1" id="Layer_1" xmlns="http://www.w3.org/2000/svg" xmlns:xlink="http://www.w3.org/1999/xlink" x="0px" y="0px"
	 width="49.123px" height="67.571px" viewBox="12.9 0 49.123 67.571" enable-background="new 12.9 0 49.123 67.571"
	 xml:space="preserve">
<path d="M37.527,0.4c-13.153,0-23.858,10.701-23.858,23.855c0,4.969,1.516,9.734,4.383,13.777l4.979-3.525
	c-2.131-3.01-3.258-6.555-3.258-10.252c0-9.787,7.965-17.748,17.754-17.748c9.785,0,17.75,7.961,17.75,17.748
	s-7.965,17.748-17.75,17.748c-2.327,0-4.522-0.561-6.624-1.416l3.309-19.115l-6.012-1.043l-7.928,45.766l6.014,1.043l3.543-20.443
	c2.469,0.84,5.074,1.311,7.698,1.311c13.154,0,23.854-10.697,23.854-23.85C61.381,11.102,50.682,0.4,37.527,0.4z"/>
</svg>
