<?xml version="1.0" encoding="utf-8"?>
<!-- Generator: Adobe Illustrator 18.0.0, SVG Export Plug-In . SVG Version: 6.00 Build 0)  -->
<!DOCTYPE svg PUBLIC "-//W3C//DTD SVG 1.1//EN" "http://www.w3.org/Graphics/SVG/1.1/DTD/svg11.dtd">
<svg version="1.1" id="Layer_1" xmlns="http://www.w3.org/2000/svg" xmlns:xlink="http://www.w3.org/1999/xlink" x="0px" y="0px"
	 viewBox="0 0 21.7 24.6" enable-background="new 0 0 21.7 24.6" xml:space="preserve">
<path fill="#020202" d="M21.7,23.2l-5-6.7c3.3-3.4,3.8-8.8,0.9-12.7C15.7,1.4,12.8,0,9.7,0C7.6,0,5.6,0.7,3.9,2
	C-0.4,5.2-1.3,11.3,2,15.6c1.9,2.5,4.7,3.9,7.8,3.9c1.8,0,3.6-0.5,5.1-1.5l5,6.6L21.7,23.2z M3.8,14.2C1.3,10.9,2,6.3,5.3,3.8
	c1.3-1,2.8-1.5,4.5-1.5c2.4,0,4.5,1.1,5.9,3c2.5,3.3,1.8,7.9-1.5,10.4c-1.3,1-2.8,1.5-4.5,1.5C7.4,17.2,5.2,16.1,3.8,14.2z"/>
</svg>
