<?xml version="1.0" encoding="utf-8"?>
<!-- Generator: Adobe Illustrator 16.0.0, SVG Export Plug-In . SVG Version: 6.00 Build 0)  -->
<!DOCTYPE svg PUBLIC "-//W3C//DTD SVG 1.1//EN" "http://www.w3.org/Graphics/SVG/1.1/DTD/svg11.dtd">
<svg version="1.1" id="Layer_1" xmlns="http://www.w3.org/2000/svg" xmlns:xlink="http://www.w3.org/1999/xlink" x="0px" y="0px"
	 width="69.663px" height="59.551px" viewBox="0 0 69.663 59.551" enable-background="new 0 0 69.663 59.551" xml:space="preserve">
<path d="M68.937,8.657c-2.534,1.123-5.263,1.883-8.127,2.226c2.922-1.749,5.165-4.522,6.224-7.831
	c-2.738,1.625-5.767,2.803-8.986,3.434c-2.585-2.748-6.26-4.467-10.332-4.467c-7.813,0-14.149,6.335-14.149,14.152
	c0,1.107,0.122,2.186,0.365,3.225C22.173,18.804,11.74,13.174,4.764,4.606c-1.221,2.092-1.919,4.522-1.919,7.116
	c0,4.909,2.5,9.243,6.297,11.782c-2.316-0.08-4.5-0.716-6.408-1.773c0,0.059,0,0.119,0,0.178c0,6.854,4.875,12.572,11.348,13.875
	c-1.186,0.322-2.438,0.502-3.725,0.502c-0.917,0-1.802-0.094-2.666-0.254c1.801,5.615,7.026,9.711,13.221,9.824
	c-4.845,3.797-10.947,6.059-17.576,6.059c-1.141,0-2.267-0.07-3.375-0.195c6.265,4.016,13.703,6.357,21.693,6.357
	c26.027,0,40.259-21.568,40.259-40.268c0-0.611-0.01-1.222-0.034-1.828C64.641,13.989,67.038,11.495,68.937,8.657"/>
</svg>
