<?xml version="1.0" encoding="utf-8"?>
<!-- Generator: Adobe Illustrator 16.0.0, SVG Export Plug-In . SVG Version: 6.00 Build 0)  -->
<!DOCTYPE svg PUBLIC "-//W3C//DTD SVG 1.1//EN" "http://www.w3.org/Graphics/SVG/1.1/DTD/svg11.dtd">
<svg version="1.1" id="Layer_1" xmlns="http://www.w3.org/2000/svg" xmlns:xlink="http://www.w3.org/1999/xlink" x="0px" y="0px"
	 width="71.25px" height="69.5px" viewBox="0 0 71.25 69.5" enable-background="new 0 0 71.25 69.5" xml:space="preserve">
<g>
	<path d="M59.309,52.949h-6.646v3.275c0,0.914,0.107,1.551,0.336,1.904c0.233,0.352,0.626,0.525,1.18,0.525
		c0.577,0,0.977-0.145,1.208-0.447c0.229-0.303,0.346-0.959,0.346-1.982v-0.791h3.577v0.891c0,1.785-0.432,3.125-1.314,4.029
		c-0.864,0.895-2.166,1.348-3.898,1.348c-1.556,0-2.782-0.482-3.672-1.436C49.531,59.314,49.08,58,49.08,56.324v-7.807
		c0-1.506,0.494-2.744,1.476-3.688s2.243-1.422,3.801-1.422c1.593,0,2.813,0.438,3.67,1.322c0.855,0.879,1.282,2.143,1.282,3.787
		V52.949z M47.259,57.631c0,1.227-0.271,2.178-0.82,2.832c-0.539,0.656-1.332,0.979-2.355,0.979c-0.686,0-1.292-0.119-1.821-0.371
		c-0.529-0.254-1.028-0.641-1.486-1.178v1.326h-3.51V37.664h3.51v7.588c0.473-0.531,0.972-0.934,1.491-1.207
		c0.529-0.277,1.063-0.418,1.603-0.418c1.099,0,1.938,0.369,2.52,1.113c0.579,0.74,0.87,1.824,0.87,3.25V57.631z M34.653,61.219
		h-3.476v-1.904c-0.641,0.707-1.307,1.244-2.005,1.611c-0.69,0.377-1.362,0.557-2.016,0.557c-0.808,0-1.403-0.264-1.816-0.781
		c-0.402-0.52-0.61-1.287-0.61-2.33V43.842h3.476v13.332c0,0.412,0.072,0.711,0.214,0.889c0.149,0.189,0.388,0.279,0.713,0.279
		c0.254,0,0.579-0.119,0.972-0.363c0.393-0.248,0.748-0.561,1.073-0.934V43.842h3.476V61.219z M23.204,41.088h-4.05v20.131h-3.913
		V41.088h-4.05v-3.424h12.013V41.088z M57.634,33.236H14.051c-6.932,0-12.545,5.625-12.545,12.553v10.078
		c0,6.932,5.613,12.547,12.545,12.547h43.583c6.925,0,12.543-5.615,12.543-12.547V45.789C70.177,38.861,64.559,33.236,57.634,33.236
		"/>
	<path d="M54.21,46.451c-0.554,0-0.946,0.158-1.189,0.477c-0.246,0.309-0.358,0.83-0.358,1.564v1.754h3.069v-1.754
		c0-0.734-0.122-1.256-0.366-1.564C55.132,46.609,54.739,46.451,54.21,46.451"/>
	<path d="M42.232,46.391c-0.252,0-0.495,0.051-0.738,0.17c-0.241,0.109-0.479,0.291-0.719,0.525V57.92
		c0.278,0.277,0.56,0.496,0.825,0.615c0.269,0.119,0.545,0.189,0.84,0.189c0.428,0,0.735-0.125,0.935-0.373
		c0.198-0.248,0.301-0.637,0.301-1.197V48.18c0-0.592-0.117-1.033-0.36-1.338C43.06,46.545,42.699,46.391,42.232,46.391"/>
	<polygon points="24.81,1.244 22.086,11.621 21.806,11.621 18.948,1.244 14.516,1.244 19.756,16.923 19.756,27.199 24.158,27.199 
		24.158,16.431 29.282,1.244 	"/>
	<path d="M33.625,12.286c0-0.417,0.154-0.755,0.444-1.019c0.304-0.254,0.691-0.383,1.171-0.383c0.512,0,0.929,0.129,1.25,0.383
		c0.32,0.264,0.479,0.602,0.479,1.019v10.431c0,0.518-0.159,0.92-0.468,1.213c-0.315,0.293-0.732,0.438-1.262,0.438
		c-0.52,0-0.917-0.14-1.198-0.434c-0.272-0.287-0.417-0.689-0.417-1.217V12.286z M35.25,27.686c1.774,0,3.171-0.471,4.187-1.4
		c1.014-0.935,1.519-2.211,1.519-3.852v-9.895c0-1.455-0.52-2.652-1.548-3.582c-1.034-0.92-2.361-1.387-3.98-1.387
		c-1.774,0-3.195,0.442-4.249,1.316c-1.049,0.881-1.578,2.059-1.578,3.549v9.918c0,1.631,0.515,2.918,1.543,3.887
		C32.167,27.199,33.541,27.686,35.25,27.686"/>
	<path d="M46.858,27.478c0.732,0,1.49-0.208,2.269-0.606c0.785-0.412,1.538-1.009,2.248-1.789v2.117h3.913V8.058h-3.913v14.53
		c-0.359,0.417-0.768,0.76-1.2,1.028c-0.441,0.273-0.81,0.403-1.093,0.403c-0.368,0-0.636-0.1-0.795-0.304
		c-0.161-0.204-0.254-0.532-0.254-0.983V8.058h-3.908v15.995c0,1.148,0.233,1.998,0.686,2.561
		C45.275,27.189,45.951,27.478,46.858,27.478"/>
</g>
</svg>
