<?xml version="1.0" encoding="iso-8859-1"?>
<!-- Generator: Adobe Illustrator 18.1.1, SVG Export Plug-In . SVG Version: 6.00 Build 0)  -->
<!DOCTYPE svg PUBLIC "-//W3C//DTD SVG 1.1//EN" "http://www.w3.org/Graphics/SVG/1.1/DTD/svg11.dtd">
<svg version="1.1" xmlns="http://www.w3.org/2000/svg" xmlns:xlink="http://www.w3.org/1999/xlink" x="0px" y="0px"
	 viewBox="0 0 512 512" style="enable-background:new 0 0 512 512;" xml:space="preserve">
<g id="all" style="display:none;">
	<g style="display:inline;">
		<g>
			<rect x="-0.002" y="0" style="fill:#0E6BAC;" width="141.74" height="140.68"/>
			<rect x="-0.002" y="185.66" style="fill:#0E6BAC;" width="141.74" height="140.68"/>
			<rect x="-0.002" y="371.32" style="fill:#0E6BAC;" width="141.74" height="140.68"/>
		</g>
		<g>
			<rect x="185.128" y="0" style="fill:#0E6BAC;" width="141.74" height="140.68"/>
			<rect x="185.128" y="185.66" style="fill:#0E6BAC;" width="141.74" height="140.68"/>
			<rect x="185.128" y="371.32" style="fill:#0E6BAC;" width="141.74" height="140.68"/>
		</g>
		<g>
			<rect x="370.258" y="0" style="fill:#0E6BAC;" width="141.74" height="140.68"/>
			<rect x="370.258" y="185.66" style="fill:#0E6BAC;" width="141.74" height="140.68"/>
			<rect x="370.258" y="371.32" style="fill:#0E6BAC;" width="141.74" height="140.68"/>
		</g>
	</g>
</g>
<g id="article" style="display:none;">
	<g style="display:inline;">
		<rect x="0" y="65.885" style="fill:#0E6BAC;" width="461.883" height="84.978"/>
		<rect x="0" y="361.137" style="fill:#0E6BAC;" width="383.063" height="84.978"/>
		<rect x="0" y="213.511" style="fill:#0E6BAC;" width="512" height="84.978"/>
	</g>
</g>
<g id="blog" style="display:none;">
	<path style="display:inline;fill:#0E6BAC;" d="M417.26,34.423H94.74C42.411,34.423,0,76.851,0,129.156v181.84
		c0,43.944,29.946,80.777,70.509,91.495c-6.693,19.691-21.726,41.181-50.666,62.999c-7.583,5.723,2.771,12.087,23.619,12.087
		c32.323,0,89.973-15.272,145.418-71.849h228.38c52.324,0,94.74-42.405,94.74-94.732v-181.84
		C512,76.851,469.585,34.423,417.26,34.423z M110.01,115.641h253.408v46.623H110.01V115.641z M320.174,324.251H110.01v-46.623
		h210.164V324.251z M390.914,243.257H110.01v-46.623h280.904V243.257z"/>
</g>
<g id="book" style="display:none;">
	<g id="_x39_61-book-32-toolbar-selected_x40_2x.png" style="display:inline;">
		<g>
			<path style="fill:#0E6BAC;" d="M432.766,94.33l0.102-0.204L179.5,2.02c-0.102,0-0.204-0.102-0.306-0.102l-1.326-0.51
				l-0.102,0.204C176.848,1.408,175.828,1,174.808,1c-2.652,0-4.896,1.02-6.834,2.448l-0.102-0.204L75.154,72.91l0.102,0.204
				c-2.856,2.142-4.794,5.304-4.794,9.078v324.564c0,5.406,3.672,9.69,8.67,11.016l-0.102,0.204L332.5,509.98
				c0.102,0,0.204,0.102,0.306,0.102l1.326,0.51l0.102-0.204c1.02,0.306,1.938,0.612,2.958,0.612
				c6.426,0,11.628-5.202,11.628-11.628V174.91c0-5.406-3.672-9.69-8.67-11.016l0.102-0.204l-234.09-85.068l70.686-53.04
				l241.434,87.822V429.91c0,6.426,5.202,11.628,11.628,11.628c6.426,0,11.628-5.202,11.628-11.628V105.346
				C441.436,99.94,437.764,95.656,432.766,94.33z"/>
		</g>
	</g>
</g>
<g id="commentary" style="display:none;">
	<g style="display:inline;">
		<path style="fill:#0E6BAC;" d="M212.865,124.825c-61.289,0-84.443,42.241-84.443,132.115l-2.587,0.683h56.798
			c16.577,0,30.154,13.577,30.154,30.181v175.398c0,16.603-13.577,30.181-30.154,30.181H30.182C13.553,493.382,0,479.805,0,463.202
			V287.803c0-1.558,0.232-3.05,0.477-4.53C1.506,150.128,31.16,29.288,212.865,18.618V124.825z"/>
		<path style="fill:#0E6BAC;" d="M512,124.825c-61.289,0-84.469,42.241-84.469,132.115l-2.561,0.683h56.771
			c16.59,0,30.168,13.577,30.168,30.181v175.398c0,16.603-13.577,30.181-30.168,30.181H329.304
			c-16.616,0-30.182-13.577-30.182-30.181V287.803c0-1.558,0.245-3.05,0.477-4.53C300.629,150.128,330.282,29.288,512,18.618
			V124.825z"/>
	</g>
</g>
<g id="policy-brief" style="display:none;">
	<g style="display:inline;">
		<g>
			<path style="fill-rule:evenodd;clip-rule:evenodd;fill:#0E6BAC;" d="M268.744,0H47.898v512h416.203V192.048L268.744,0z
				 M272.413,192.688V65.103l127.124,127.585H272.413z"/>
		</g>
	</g>
</g>
<g id="report" style="display:none;">
	<g style="display:inline;">
		<g>
			<path style="fill:#0E6BAC;" d="M317.987,357.333c0,8.088-6.556,14.644-14.644,14.644h-94.686
				c-8.088,0-14.644-6.556-14.644-14.644v-20.901L0,252.472v192.686c0,16.908,13.834,30.743,30.743,30.743h450.514
				c16.908,0,30.743-13.834,30.743-30.743V252.473l-194.014,83.96V357.333z"/>
			<path style="fill:#0E6BAC;" d="M481.257,122.861H388.56V84.409c0-26.638-21.672-48.31-48.31-48.31h-168.5
				c-26.638,0-48.31,21.672-48.31,48.31v38.452H30.743C13.834,122.861,0,136.696,0,153.604v60.585l194.014,83.96v-0.932
				c0-8.088,6.556-14.644,14.644-14.644h94.686c8.088,0,14.644,6.556,14.644,14.644v0.933L512,214.189v-60.585
				C512,136.696,498.166,122.861,481.257,122.861z M158.574,84.409c0-7.265,5.91-13.176,13.176-13.176h168.5
				c7.265,0,13.176,5.91,13.176,13.176v38.452H158.574V84.409z"/>
		</g>
	</g>
</g>
<g id="video" style="display:none;">
	<path style="display:inline;fill:#0E6BAC;" d="M512,393.977L367.999,326.48l-0.011-0.868v63.333
		c0,15.14-12.39,27.542-27.542,27.542H27.542C12.402,416.487,0,404.085,0,388.945V123.043c0-15.14,12.402-27.53,27.542-27.53
		h312.904c15.151,0,27.542,12.39,27.542,27.53v64.147L512,119.081V393.977z"/>
</g>
<g id="visualization" style="display:none;">
	<path style="display:inline;fill:#0E6BAC;" d="M0,495.531l0-224.58h114.428v224.58H0z M512,133.99v361.541H397.572V133.99H512z
		 M313.214,16.469v479.062H198.786V16.469H313.214z"/>
</g>
<g id="wilson-quarterly" style="display:none;">
	<g style="display:inline;">
		<g>
			<polygon points="0,141.97 104.846,366.908 140.818,290.452 176.754,366.908 281.6,141.97 238.591,141.979 170.872,303.729 
				140.621,231.775 110.406,302.484 42.973,141.97 			"/>
			<polygon points="110.654,255.424 64.924,141.966 102.839,141.966 130.207,206.9 			"/>
			<polygon points="170.591,255.424 216.322,141.975 178.407,141.966 151.038,206.9 			"/>
			<polygon points="140.619,181.029 124.818,141.969 156.412,141.969 			"/>
		</g>
		<g>
			<path d="M389.526,277.696c-11.983,0-21.697-9.713-21.697-21.696c0-11.983,9.714-21.697,21.697-21.697
				c11.983,0,21.697,9.714,21.697,21.697C411.223,267.983,401.509,277.696,389.526,277.696z"/>
			<path d="M512,256c0-67.668-54.856-122.524-122.523-122.524S266.953,188.332,266.953,256s54.856,122.524,122.523,122.524
				c12.88,0,25.286-2.012,36.948-5.697l-10.927-28.745c-8.26,2.444-16.979,3.81-26.021,3.81c-50.67,0-91.893-41.223-91.893-91.893
				s41.223-91.893,91.893-91.893S481.369,205.33,481.369,256c0,33.07-17.619,62.027-43.903,78.216l14.249,27.189
				C487.756,340.074,512,300.915,512,256z"/>
			<path d="M462.274,256c0-40.178-32.571-72.748-72.748-72.748S316.777,215.822,316.777,256s32.571,72.748,72.748,72.748
				c6.641,0,12.949-1.177,19.061-2.844l-10.316-27.14c-2.827,0.577-5.751,0.884-8.745,0.884c-24.069,0-43.65-19.581-43.65-43.649
				s19.581-43.649,43.65-43.649c24.068,0,43.649,19.581,43.649,43.649c0,14.547-7.223,27.369-18.196,35.305l13.579,25.911
				C448.78,304.295,462.274,281.778,462.274,256z"/>
			<circle cx="389.526" cy="256" r="21.697"/>
		</g>
	</g>
</g>
<g id="wilson-center-brief" style="display:none;">
	<g style="display:inline;">
		<polygon style="fill:#0E6BAC;" points="0,51.514 190.629,460.493 256.033,321.481 321.371,460.493 512,51.514 433.802,51.531 
			310.677,345.621 255.674,214.796 200.737,343.358 78.133,51.514 		"/>
		<polygon style="fill:#0E6BAC;" points="201.19,257.795 118.043,51.507 186.979,51.507 236.74,169.57 		"/>
		<polygon style="fill:#0E6BAC;" points="310.166,257.795 393.312,51.523 324.376,51.507 274.615,169.57 		"/>
		<polygon style="fill:#0E6BAC;" points="255.671,122.532 226.941,51.512 284.385,51.512 		"/>
	</g>
</g>
<g id="facebook" style="display:none;">
	<path style="display:inline;fill:#F27A22;" d="M295.394,512H189.491V255.99H136.55v-88.243h52.941v-52.961
		C189.491,42.81,219.373,0,304.255,0h70.685v88.243h-44.163c-33.054,0-35.248,12.336-35.248,35.342l-0.135,44.163h80.056
		l-9.371,88.243h-70.685V512z"/>
</g>
<g id="twitter" style="display:none;">
	<path style="display:inline;fill:#F27A22;" d="M512,97.209c-18.838,8.355-39.082,14.001-60.33,16.54
		c21.685-13,38.342-33.585,46.185-58.115c-20.297,12.039-42.778,20.78-66.705,25.49c-19.16-20.415-46.46-33.17-76.672-33.17
		c-58.01,0-105.044,47.03-105.044,105.04c0,8.233,0.929,16.25,2.72,23.939c-87.3-4.381-164.701-46.2-216.509-109.752
		c-9.042,15.514-14.222,33.558-14.222,52.809c0,36.444,18.544,68.595,46.73,87.432c-17.219-0.546-33.416-5.271-47.578-13.139
		c-0.01,0.439-0.01,0.877-0.01,1.321c0,50.894,36.209,93.347,84.261,103c-8.814,2.4-18.094,3.685-27.674,3.685
		c-6.769,0-13.349-0.66-19.764-1.885c13.368,41.73,52.16,72.102,98.126,72.947c-35.95,28.175-81.242,44.967-130.457,44.967
		c-8.479,0-16.84-0.497-25.058-1.47c46.486,29.805,101.701,47.197,161.021,47.197c193.211,0,298.868-160.062,298.868-298.872
		c0-4.554-0.102-9.084-0.305-13.59C480.11,136.774,497.917,118.274,512,97.209z"/>
</g>
<g id="linkedin" style="display:none;">
	<g style="display:inline;">
		<path style="fill:#F27A22;" d="M61.333,125.333h-0.667c-18,0-32.625-5.458-43.833-16.333S0,84.542,0,68.333
			C0,51.875,5.709,38.292,17.167,27.5S43.542,11.333,62,11.333c12.208,0,23,2.5,32.333,7.5s16.458,11.792,21.333,20.333
			c4.875,8.542,7.458,18.292,7.667,29.167c0,10.667-2.458,20.292-7.333,28.833c-4.875,8.542-12.125,15.375-21.667,20.5
			S73.792,125.333,61.333,125.333z M116.333,500.667h-110V170.333h110V500.667z M512,500.667H402.333V324
			c0-23.333-4.5-41.625-13.5-54.833c-9-13.208-23.042-19.833-42.167-19.833c-9.542,0-18.292,2.042-26.167,6.167
			c-7.875,4.125-14.167,9-18.833,14.667c-4.667,5.667-8.458,12.042-11.333,19.167c-2.458,6-3.667,15-3.667,27v184.333H177
			c0.875-199.542,0.875-309.667,0-330.333h109.667v47c2.458-3.792,4.833-7.208,7.167-10.333c2.333-3.125,5.292-6.625,8.833-10.5
			c3.542-3.875,7.167-7.333,10.833-10.333c3.667-3,8.125-6,13.333-9c5.208-3,10.667-5.542,16.333-7.667
			c5.667-2.125,12.167-3.792,19.5-5c7.333-1.208,15-1.833,23-1.833c18.208,0,34.958,3.042,50.167,9.167
			c15.208,6.125,28.542,15.125,40,27c11.458,11.875,20.333,27.458,26.667,46.667c6.333,19.208,9.5,41.167,9.5,65.833V500.667z"/>
	</g>
</g>
<g id="youtube">
	<g id="Lozenge">
		<g>
			<path d="M506.887,153.632c0,0-5.003-35.282-20.354-50.82c-19.469-20.393-41.293-20.494-51.301-21.687
				c-71.647-5.179-179.121-5.179-179.121-5.179h-0.223c0,0-107.472,0-179.121,5.179c-10.009,1.194-31.824,1.295-51.301,21.687
				c-15.351,15.537-20.346,50.82-20.346,50.82S0,195.065,0,236.497v38.843c0,41.432,5.12,82.865,5.12,82.865
				s4.995,35.283,20.346,50.82c19.477,20.393,45.06,19.748,56.455,21.885C122.883,434.839,256,436.054,256,436.054
				s107.585-0.162,179.232-5.341c10.008-1.194,31.831-1.295,51.301-21.687c15.351-15.537,20.354-50.82,20.354-50.82
				S512,316.773,512,275.341v-38.843C512,195.065,506.887,153.632,506.887,153.632z M203.142,322.412l-0.023-143.858l138.345,72.18
				L203.142,322.412z"/>
		</g>
	</g>
</g>
<g id="mail" style="display:none;">
	<g style="display:inline;">
		<g>
			<path d="M0,128.389v256.164l128.001-128.069L0,128.389z M256.003,392.444L159.331,287.99L12.994,444.631h485.01L351.667,286.914
				L256.003,392.444z M510.801,67.369H0l256.003,254.2L510.801,67.369z M512,382.589l-0.07-253.071L384.004,256.485L512,382.589z"/>
		</g>
	</g>
</g>
<g id="print" style="display:none;">
	<g style="display:inline;">
		<path d="M85.333,21.333C85.333,9.551,94.872,0,106.666,0h192c5.641,0,11.076,2.257,15.076,6.257l106.667,106.667
			c4,4,6.257,9.422,6.257,15.076v170.667H384V149.333h-85.333c-11.794,0-21.333-9.551-21.333-21.333V42.666H128v256H85.333V21.333z"
			/>
		<path d="M469.333,320H42.667C19.179,320,0,339.192,0,362.667v106.667C0,492.808,19.179,512,42.667,512h426.666
			C492.794,512,512,492.808,512,469.333V362.667C512,339.192,492.794,320,469.333,320z M456,435.999
			c0,11.039-8.937,20.001-20.001,20.001H396c-11.064,0-20.001-8.962-20.001-20.001V396c0-11.039,8.937-20.001,20.001-20.001h39.999
			c11.064,0,20.001,8.962,20.001,20.001V435.999z"/>
	</g>
</g>
<g id="rss" style="display:none;">
	<g style="display:inline;">
		<path d="M68.987,375.451c37.547,0,67.956,30.457,67.956,68.004c0,37.544-30.409,67.953-67.956,67.953
			c-37.532,0-67.953-30.409-67.953-67.953C1.034,405.908,31.456,375.451,68.987,375.451z"/>
		<path d="M1.107,272.115c63.698,0,123.546,24.899,168.571,70.12c45.049,45.271,69.838,105.55,69.838,169.714h98.118
			c0-186.395-150.955-338.003-336.526-338.003V272.115z"/>
		<path d="M1.231,98.118c226.968,0,411.652,185.707,411.652,413.882h98.083c0-282.301-228.653-512-509.735-512V98.118z"/>
	</g>
</g>
<g id="webcast" style="display:none;">
	<path style="display:inline;fill:#0E6BAC;" d="M417.26,34.423H94.74C42.413,34.423,0,76.851,0,129.156v181.84
		c0,43.944,29.947,80.777,70.509,91.495c-6.693,19.69-21.724,41.181-50.666,62.999c-7.581,5.722,2.771,12.087,23.62,12.087
		c32.323,0,89.971-15.272,145.418-71.849H417.26c52.325,0,94.74-42.405,94.74-94.732v-181.84
		C512,76.851,469.586,34.423,417.26,34.423z M429.16,312.201l-93.632-66.059l-0.007-0.564v63.351
		c0,9.844-8.057,17.908-17.909,17.908H114.154c-9.844,0-17.908-8.064-17.908-17.908V136.034c0-9.844,8.064-17.901,17.908-17.901
		h203.458c9.852,0,17.909,8.056,17.909,17.901v63.881l93.639-66.458V312.201z"/>
</g>
<g id="webcast-live" style="display:none;">
	<path style="display:inline;fill:#0E6BAC;" d="M417.26,34.423H94.74C42.413,34.423,0,76.851,0,129.156v181.84
		c0,43.944,29.947,80.777,70.509,91.495c-6.693,19.69-21.724,41.181-50.666,62.999c-7.581,5.722,2.771,12.087,23.62,12.087
		c32.323,0,89.971-15.272,145.418-71.849H417.26c52.325,0,94.74-42.405,94.74-94.732v-181.84
		C512,76.851,469.586,34.423,417.26,34.423z M345.771,286.327l-66.629-31.231l-0.005-0.401v29.304
		c0,7.005-5.733,12.744-12.744,12.744h-144.78c-7.005,0-12.744-5.738-12.744-12.744V160.966c0-7.005,5.738-12.738,12.744-12.738
		h144.78c7.011,0,12.744,5.733,12.744,12.738v29.681l66.635-31.514V286.327z M411.034,162.882c-18.497,0-33.491-14.994-33.491-33.49
		c0-18.494,14.994-33.488,33.491-33.488c18.494,0,33.491,14.993,33.491,33.488C444.524,147.888,429.527,162.882,411.034,162.882z"/>
</g>
<g id="register" style="display:none;">
	<g style="display:inline;">
		<g>
			<polygon style="fill:#0E6BAC;" points="215.962,432.026 215.962,368.026 135.987,368.026 135.987,287.949 71.987,287.949 
				71.987,368.026 0,368.026 0,432.026 71.987,432.026 71.987,512 135.987,512 135.987,432.026 			"/>
			<path style="fill:#0E6BAC;" d="M512,501.146V382.771c-13.824-54.477-46.49-104.96-105.472-128.614
				c19.456-18.739,33.382-45.056,33.382-78.131v-64C440.013,50.278,389.734,0,327.987,0S215.962,50.278,215.962,112.026v64
				c0,32.973,13.926,59.29,33.382,78.029c-36.762,14.746-63.283,40.038-81.408,70.144v11.776h30.003
				c23.04-35.738,62.771-64,130.048-64c0.512,0,1.024,0.102,1.536,0.102l0,0C465.306,272.998,488.038,389.53,488.038,448v31.949
				h-320V512h320C497.562,512,506.163,507.802,512,501.146z M327.987,256c-26.624,0-79.974-24.781-79.974-79.974v-64
				c0-44.134,35.84-79.974,79.974-79.974s79.974,35.84,79.974,79.974v64C407.962,231.219,354.611,256,327.987,256z"/>
		</g>
	</g>
</g>
<g id="calendar" style="display:none;">
	<g style="display:inline;">
		<g>
			<path style="fill:#0E6BAC;" d="M469.205,48.067h-69.311V16.022c0-8.805-7.167-15.971-15.971-15.971
				c-8.805,0-15.971,7.167-15.971,15.971v31.942H271.92V16.022c0-8.805-7.167-15.971-15.971-15.971s-15.971,7.167-15.971,15.971
				v31.942h-96.032V16.022c0-8.805-7.167-15.971-15.971-15.971s-15.971,7.167-15.971,15.971v31.942H42.692
				C19.145,48.067,0,67.11,0,90.657v378.599c0,23.547,19.145,42.692,42.692,42.692h426.616c23.547,0,42.692-19.145,42.692-42.692
				V90.657C511.898,67.11,492.855,48.067,469.205,48.067z M479.955,469.257c0,5.836-4.812,10.647-10.647,10.647H42.692
				c-5.836,0-10.647-4.812-10.647-10.647V90.657c0-5.836,4.812-10.647,10.647-10.647h69.311v31.942
				c0,8.805,7.167,15.971,15.971,15.971s15.971-7.167,15.971-15.971V80.01h96.032v31.942c0,8.805,7.167,15.971,15.971,15.971
				s15.971-7.167,15.971-15.971V80.01h96.032v31.942c0,8.805,7.167,15.971,15.971,15.971c8.805,0,15.971-7.167,15.971-15.971V80.01
				h69.311c5.836,0,10.647,4.812,10.647,10.647v378.599H479.955z"/>
			<rect x="112.003" y="192.013" style="fill:#0E6BAC;" width="63.987" height="48.016"/>
			<rect x="112.003" y="271.971" style="fill:#0E6BAC;" width="63.987" height="48.016"/>
			<rect x="112.003" y="352.032" style="fill:#0E6BAC;" width="63.987" height="48.016"/>
			<rect x="224.006" y="352.032" style="fill:#0E6BAC;" width="63.987" height="48.016"/>
			<rect x="224.006" y="271.971" style="fill:#0E6BAC;" width="63.987" height="48.016"/>
			<rect x="224.006" y="192.013" style="fill:#0E6BAC;" width="63.987" height="48.016"/>
			<rect x="335.907" y="352.032" style="fill:#0E6BAC;" width="63.987" height="48.016"/>
			<rect x="335.907" y="271.971" style="fill:#0E6BAC;" width="63.987" height="48.016"/>
			<rect x="335.907" y="192.013" style="fill:#0E6BAC;" width="63.987" height="48.016"/>
		</g>
	</g>
</g>
<g id="play" style="display:none;">
	<path style="display:inline;" d="M178.494,16.272c-27.788-28.303-50.503-18.732-50.503,21.322v436.812
		c0,40.054,22.715,49.629,50.503,21.322l184.646-188.27c27.824-28.303,27.824-74.607,0-102.914L178.494,16.272z"/>
</g>
<g id="arrow-left" style="display:none;">
	<g style="display:inline;">
		<path style="fill:#0B81C9;" d="M76.819,256.013h358.374H76.819z"/>
		<path style="fill:#0B81C9;" d="M25.606,256.013c0-28.275,22.925-51.2,51.2-51.2h358.4c28.275,0,51.2,22.925,51.2,51.2
			c0,28.275-22.925,51.2-51.2,51.2h-358.4C48.531,307.213,25.606,284.288,25.606,256.013z"/>
		<path style="fill:#0B81C9;" d="M25.594,256c0-13.1,5-26.212,14.999-36.201l179.2-204.8C239.781-5,272.206-5,292.194,14.999
			c19.999,19.976,19.999,52.426,0,72.402L149.206,256l142.989,168.599c19.999,19.976,19.999,52.426,0,72.402
			c-19.988,19.999-52.413,19.999-72.402,0l-179.2-204.8C30.593,282.212,25.594,269.1,25.594,256z"/>
	</g>
</g>
<g id="arrow-right" style="display:none;">
	<g style="display:inline;">
		<path style="fill:#0B81C9;" d="M435.181,255.987H76.806H435.181z"/>
		<path style="fill:#0B81C9;" d="M486.394,255.987c0,28.275-22.925,51.2-51.2,51.2h-358.4c-28.275,0-51.2-22.925-51.2-51.2
			c0-28.275,22.925-51.2,51.2-51.2h358.4C463.469,204.787,486.394,227.712,486.394,255.987z"/>
		<path style="fill:#0B81C9;" d="M486.406,256c0,13.1-5,26.212-14.999,36.201l-179.2,204.8c-19.988,19.999-52.413,19.999-72.402,0
			c-19.999-19.976-19.999-52.426,0-72.402L362.794,256L219.806,87.401c-19.999-19.976-19.999-52.426,0-72.402
			C239.794-5,272.219-5,292.207,14.999l179.2,204.8C481.407,229.788,486.406,242.9,486.406,256z"/>
	</g>
</g>
<g id="arrow-down" style="display:none;">
	<g style="display:inline;">
		<path style="fill:#F27A22;" d="M256.013,435.181V76.806V435.181z"/>
		<path style="fill:#F27A22;" d="M256.013,486.394c-28.275,0-51.2-22.925-51.2-51.2v-358.4c0-28.275,22.925-51.2,51.2-51.2
			c28.275,0,51.2,22.925,51.2,51.2v358.4C307.213,463.469,284.288,486.394,256.013,486.394z"/>
		<path style="fill:#F27A22;" d="M256,486.406c-13.1,0-26.212-5-36.201-14.999l-204.8-179.2C-5,272.219-5,239.794,14.999,219.806
			c19.976-19.999,52.426-19.999,72.402,0L256,362.794l168.599-142.989c19.976-19.999,52.426-19.999,72.402,0
			c19.999,19.988,19.999,52.413,0,72.402l-204.8,179.2C282.212,481.407,269.1,486.406,256,486.406z"/>
	</g>
</g>
<g id="search" style="display:none;">
	<path style="display:inline;fill:#0B81C9;" d="M12.735,499.262c8.552,8.5,19.704,12.755,30.853,12.755
		c11.106,0,22.257-4.255,30.809-12.766L188.573,385.02c1.405-1.425,2.512-3.011,3.704-4.565
		c32.469,21.12,71.153,33.502,112.73,33.502C419.313,413.958,512,321.314,512,206.976C512,92.651,419.313-0.017,305.007-0.017
		c-114.349,0-206.982,92.667-206.982,206.993c0,41.599,12.363,80.241,33.492,112.678c-1.532,1.192-3.148,2.32-4.597,3.745
		L12.735,437.628C-4.245,454.651-4.245,482.238,12.735,499.262z M155.21,206.976c0-82.594,67.247-149.797,149.797-149.797
		c82.596,0,149.797,67.204,149.797,149.797c0,82.584-67.201,149.786-149.797,149.786C222.458,356.762,155.21,289.561,155.21,206.976
		z"/>
</g>
<g id="trending" style="display:none;">
	<g style="display:inline;">
		<path style="fill:#F27A22;" d="M23.663,321.623c4.405,0,8.298,1.54,11.84,3.636l89.008-111.851
			c-0.258-1.399-0.84-2.705-0.84-4.242c0-13.055,10.606-23.64,23.662-23.64s23.662,10.585,23.662,23.64
			c0,2.098-0.676,4.008-1.213,5.968l100.92,147.006c4.149-3.683,9.51-6.109,15.478-6.109c5.479,0,10.258,2.146,14.245,5.268
			L465.47,140.595c-0.747-1.99-1.605-3.875-1.813-6.105c-1.217-12.999,8.359-24.524,21.358-25.74
			c12.996-1.217,24.545,8.331,25.762,21.329s-8.355,24.571-21.351,25.788c-4.272,0.4-8.166-0.686-11.766-2.363L309.307,376.967
			c0.093,0.931,0.535,1.771,0.535,2.75c0,13.055-10.606,23.638-23.662,23.638c-13.055,0-23.661-10.582-23.661-23.638
			c0-0.42,0.234-0.793,0.234-1.213L159.107,229.261c-3.521,2.051-7.415,3.59-11.773,3.59c-4.989,0-9.372-1.912-13.17-4.524
			L46.158,339.434c0.513,1.912,1.167,3.776,1.167,5.875c0,13.055-10.609,23.638-23.662,23.638C10.608,368.946,0,358.364,0,345.309
			C0,332.208,10.608,321.623,23.663,321.623z"/>
		<rect x="393.637" y="108.645" style="fill:#F27A22;" width="118.364" height="19.768"/>
		<rect x="492.232" y="108.645" style="fill:#F27A22;" width="19.768" height="118.363"/>
	</g>
</g>
<g id="download" style="display:none;">
	<g style="display:inline;">
		<g>
			<path style="fill:#DADAD7;" d="M248.175,376.386c4.754,5.415,12.358,5.282,16.925-0.32l154.436-190.012
				c4.567-5.602,2.376-10.181-4.833-10.181h-67.368c-7.22,0-13.128-5.908-13.128-13.128V42.822c0-7.221-5.921-13.128-13.13-13.128
				H179.426c-7.222,0-13.141,5.908-13.141,13.128v119.923c0,7.207-5.895,13.115-13.117,13.115H85.8
				c-7.208,0-9.227,4.448-4.472,9.877L248.175,376.386z"/>
		</g>
		<g>
			<path style="fill:#DADAD7;" d="M512,482.306H0V271.612c0-11.257,9.133-20.39,20.39-20.39s20.39,9.133,20.39,20.39v169.914
				h430.442V271.612c0-11.257,9.133-20.39,20.39-20.39s20.39,9.133,20.39,20.39V482.306z"/>
		</g>
	</g>
</g>
<g id="sort" style="display:none;">
	<g style="display:inline;">
		<rect x="0" y="183.677" style="fill:#212323;" width="512" height="64.674"/>
		<rect x="0" y="313.024" style="fill:#212323;" width="512" height="64.674"/>
		<rect x="0" y="442.372" style="fill:#212323;" width="512" height="64.674"/>
		<polygon style="fill:#212323;" points="256,114.483 374.569,4.955 137.431,4.955 		"/>
	</g>
</g>
<g id="sort-close" style="display:none;">
	<g style="display:inline;">
		<rect x="0" y="263.649" style="fill:#9F9F9D;" width="512" height="64.674"/>
		<rect x="0" y="134.302" style="fill:#9F9F9D;" width="512" height="64.674"/>
		<rect x="0" y="4.955" style="fill:#9F9F9D;" width="512" height="64.674"/>
		<polygon style="fill:#9F9F9D;" points="256,397.517 137.431,507.045 374.569,507.045 		"/>
	</g>
</g>
</svg>
