<?xml version="1.0" standalone="no"?> 
<!DOCTYPE svg PUBLIC "-//W3C//DTD SVG 1.1//EN" "http://www.w3.org/Graphics/SVG/1.1/DTD/svg11.dtd" >
<svg xmlns="http://www.w3.org/2000/svg">
<defs>
  <font id="icons" horiz-adv-x="2048">
    <font-face font-family="icons"
      units-per-em="512" ascent="448"
      descent="64" />
    <missing-glyph horiz-adv-x="0" />
    <glyph glyph-name="arrow--down"
      unicode="&#xF101;"
      horiz-adv-x="395.6363636363637" d=" M391.95151515151514 252.05656565656562L371.9757575757576 272.03232323232317C369.51919191919194 274.4888888888888 366.1575757575758 275.91111111111104 362.7313131313132 275.91111111111104S356.39595959595965 274.4242424242424 353.4868686868688 272.03232323232317L197.75353535353537 116.29898989898987L42.02020202020202 272.0323232323232C39.56363636363637 274.4888888888889 36.20202020202021 275.9111111111111 32.77575757575758 275.9111111111111S26.440404040404047 274.4242424242424 23.531313131313137 272.0323232323232L3.6202020202020204 252.05656565656562C1.1636363636363636 249.59999999999997 -0.25858585858585886 246.2383838383838 -0.25858585858585886 242.81212121212118S1.228282828282828 236.47676767676762 3.6202020202020204 233.56767676767672L188.57373737373743 48.61414141414133C191.0303030303031 46.15757575757573 194.39191919191924 44.735353535353454 197.81818181818187 44.735353535353454S204.1535353535354 46.222222222222115 207.06262626262634 48.61414141414133L392.0161616161617 233.56767676767672C394.47272727272735 236.02424242424237 395.89494949494957 239.38585858585853 395.89494949494957 242.81212121212118C396.3474747474748 246.6909090909091 394.8606060606061 249.66464646464644 391.95151515151514 252.05656565656562z" />
    <glyph glyph-name="arrow--left"
      unicode="&#xF102;"
      horiz-adv-x="298.5092250922509" d=" M91.94587945879464 191.68511685116852L293.47109471094717 393.21033210332104C296.61992619926207 396.3591635916359 298.50922509225103 400.76752767527677 298.50922509225103 405.17589175891754S296.61992619926207 413.36285362853624 293.47109471094717 417.1414514145141L267.65067650676514 442.96186961869614C264.5018450184503 446.11070110701104 260.0934809348094 447.99999999999994 255.68511685116857 447.99999999999994C251.2767527675277 447.99999999999994 247.49815498154987 446.11070110701104 243.71955719557198 442.96186961869614L4.408364083640854 203.65067650676508C1.259532595325971 200.5018450184502 -0.6297662976629408 196.09348093480935 -0.6297662976629408 191.68511685116852S1.259532595325971 183.49815498154982 4.408364083640854 179.7195571955719L243.71955719557198 -59.59163591635922C246.86838868388685 -62.74046740467412 251.2767527675277 -64.62976629766297 255.68511685116857 -64.62976629766297C260.0934809348094 -64.62976629766297 263.8720787207872 -62.74046740467412 267.65067650676514 -59.59163591635922L293.47109471094717 -33.77121771217719C296.61992619926207 -30.62238622386235 298.50922509225103 -26.21402214022146 298.50922509225103 -21.805658056580626C298.50922509225103 -17.397293972939735 296.61992619926207 -13.618696186961927 293.47109471094717 -9.840098400984004L91.94587945879464 191.68511685116852z" />
    <glyph glyph-name="arrow--right"
      unicode="&#xF103;"
      horiz-adv-x="298.5092250922509" d=" M293.47109471094717 203.65067650676508L54.159901599016045 442.9618696186962C51.01107011070116 446.1107011070111 46.60270602706031 448 42.19434194341945 448S34.007380073800775 446.1107011070111 30.22878228782286 442.9618696186962L4.408364083640854 417.14145141451417C1.259532595325971 413.99261992619927 -0.6297662976629408 409.58425584255843 -0.6297662976629408 405.1758917589176S1.259532595325971 396.9889298892989 4.408364083640854 393.21033210332104L205.93357933579338 191.68511685116852L4.408364083640854 -9.840098400984004C1.259532595325971 -12.988929889298902 -0.6297662976629408 -17.397293972939735 -0.6297662976629408 -21.805658056580626C-0.6297662976629408 -26.21402214022146 1.259532595325971 -29.992619926199268 4.408364083640854 -33.77121771217719L30.22878228782286 -59.59163591635922C33.37761377613774 -62.74046740467412 37.7859778597786 -64.62976629766297 42.19434194341945 -64.62976629766297S50.38130381303813 -62.74046740467412 54.159901599016045 -59.59163591635922L293.47109471094717 179.7195571955719C296.61992619926207 182.8683886838868 298.50922509225103 187.27675276752763 298.50922509225103 191.68511685116852S296.61992619926207 199.8720787207872 293.47109471094717 203.65067650676508z" />
    <glyph glyph-name="arrow--up"
      unicode="&#xF104;"
      horiz-adv-x="395.6363636363637" d=" M392.01616161616164 87.07878787878786L207.06262626262628 272.0323232323232C204.60606060606062 274.4888888888889 201.24444444444447 275.9111111111111 197.81818181818184 275.9111111111111S191.48282828282828 274.4242424242424 188.57373737373737 272.0323232323232L3.6202020202020204 87.07878787878786C1.1636363636363636 84.62222222222226 -0.25858585858585886 81.26060606060605 -0.25858585858585886 77.83434343434345C-0.25858585858585886 74.40808080808085 1.228282828282828 71.49898989898998 3.6202020202020204 68.58989898989904L23.5959595959596 48.6141414141415C26.052525252525253 46.15757575757584 29.414141414141415 44.735353535353624 32.84040404040404 44.735353535353624S39.17575757575757 46.222222222222285 42.084848484848486 48.6141414141415L197.81818181818184 204.34747474747473L353.55151515151516 48.614141414141386C356.0080808080808 46.157575757575785 359.369696969697 44.73535353535351 362.7959595959596 44.73535353535351S369.1313131313131 46.22222222222217 372.040404040404 48.614141414141386L392.0161616161616 68.58989898989898C394.4727272727272 71.04646464646459 395.89494949494946 74.4080808080808 395.89494949494946 77.8343434343434C395.8949494949495 81.26060606060605 394.9252525252525 84.62222222222215 392.01616161616164 87.07878787878786z" />
    <glyph glyph-name="bars"
      unicode="&#xF105;"
      horiz-adv-x="512" d=" M64 48V80Q64 86.5 68.75 91.25T80 96H432Q438.5 96 443.25 91.25T448 80V48Q448 41.5 443.25 36.75T432 32H80Q73.5 32 68.75 36.75T64 48zM64 176V208Q64 214.5 68.75 219.25T80 224H432Q438.5 224 443.25 219.25T448 208V176Q448 169.5 443.25 164.75T432 160H80Q73.5 160 68.75 164.75T64 176zM64 304V336Q64 342.5 68.75 347.25T80 352H432Q438.5 352 443.25 347.25T448 336V304Q448 297.5 443.25 292.75T432 288H80Q73.5 288 68.75 292.75T64 304z" />
    <glyph glyph-name="caret-down"
      unicode="&#xF106;"
      horiz-adv-x="512" d=" M128 240Q128 246.5 132.75 251.25T144 256H368Q374.5 256 379.25 251.25T384 240T379.25 228.75L267.25 116.75Q262.5 112 256 112T244.75 116.75L132.75 228.75Q128 233.5 128 240z" />
    <glyph glyph-name="caret-right"
      unicode="&#xF107;"
      horiz-adv-x="512" d=" M176 80V304Q176 310.5 180.75 315.25T192 320T203.25 315.25L315.25 203.25Q320 198.5 320 192T315.25 180.75L203.25 68.75Q198.5 64 192 64T180.75 68.75T176 80z" />
    <glyph glyph-name="caret-up"
      unicode="&#xF108;"
      horiz-adv-x="512" d=" M128 112Q128 118.5 132.75 123.25L244.75 235.25Q249.5 240 256 240T267.25 235.25L379.25 123.25Q384 118.5 384 112T379.25 100.75T368 96H144Q137.5 96 132.75 100.75T128 112z" />
    <glyph glyph-name="check"
      unicode="&#xF109;"
      horiz-adv-x="512" d=" M62.25 184Q62.25 194 69.25 201L103.25 235Q110.25 242 120.25 242T137.25 235L210.75 161.25L374.75 325.5Q381.75 332.5 391.75 332.5T408.75 325.5L442.75 291.5Q449.75 284.5 449.75 274.5T442.75 257.5L261.75 76.5L227.75 42.5Q220.75 35.5 210.75 35.5T193.75 42.5L159.75 76.5L69.25 167Q62.25 174 62.25 184z" />
    <glyph glyph-name="envelope"
      unicode="&#xF10A;"
      horiz-adv-x="682.6666666666666" d=" M0 448V-64H682.6666666666666V448H0zM608.463768115942 403.47826086956525L341.3333333333333 177.15942028985506L74.20289855072464 403.47826086956525C74.20289855072464 403.47826086956525 608.463768115942 403.47826086956525 608.463768115942 403.47826086956525zM44.52173913043478 -23.18840579710144V377.5072463768116L345.04347826086956 121.50724637681157L645.5652173913044 377.50724637681157V-23.188405797101495C641.8550724637681 -23.18840579710144 44.52173913043478 -23.18840579710144 44.52173913043478 -23.18840579710144z" />
    <glyph glyph-name="facebook"
      unicode="&#xF10B;"
      horiz-adv-x="199.99399249061327" d=" M179.22492003893757 249.04552913363926H106.8215269086358V306.06969823390347C106.8215269086358 382.4887776387151 123.80275344180224 388.206146572104 149.68399388124044 388.206146572104H178.43459880406064V435.290780141844H149.68399388124044C59.72977332777082 435.290780141844 59.72977332777082 348.0136837713809 59.72977332777082 306.06969823390347V249.04552913363926H23.830677235433182V201.96089556389927H59.72977332777082V-53.191823112223574H106.8215269086358V201.9537755527743H179.22492003893757V249.04552913363926z" />
    <glyph glyph-name="instagram"
      unicode="&#xF10C;"
      horiz-adv-x="524.8920863309353" d=" M12.818417266187051 442.09910791366906V-54.29778417266192H510.2172086330935V442.09910791366906H12.818417266187051zM464.4318848920864 375.03815827338127V290.69444604316544H373.0527769784173V375.03815827338127H464.4318848920864zM325.02054676258996 192.55251798561153C325.02054676258996 157.0440287769784 296.09807194244604 128.12155395683453 260.58958273381296 128.12155395683453S196.15861870503593 157.0440287769784 196.15861870503593 192.55251798561153C196.15861870503593 228.03890647482015 225.08109352517985 256.9319136690648 260.58958273381296 256.9319136690648S325.02054676258996 228.04627338129495 325.02054676258996 192.55251798561153zM50.315971223021585 -16.814964028777013V231.16247482014387H166.38894964028776C161.4973237410072 219.27228776978416 158.67579856115108 206.24023021582732 158.67579856115108 192.55251798561153C158.67579856115108 136.35038848920863 204.40218705035971 90.63873381294962 260.58958273381296 90.63873381294962S362.5033669064748 136.35038848920863 362.5033669064748 192.55251798561153C362.5033669064748 206.24023021582732 359.68184172661864 219.27228776978419 354.77548201438844 231.1624748201439H472.7343884892087V-16.814964028777013H50.315971223021585z" />
    <glyph glyph-name="pinterest"
      unicode="&#xF10D;"
      horiz-adv-x="372.2155362507584" d=" M186.6040757129538 444.9691139690104C86.94096579893743 444.9691139690104 5.826878394577556 363.88533542496043 5.826878394577556 264.2146482958666C5.826878394577556 226.56346657589793 17.313936452028237 190.45803673173407 39.03781207914637 159.8233561735064L76.76476594988974 186.53303932160247C60.6177206197925 209.3404567047994 52.07819922747924 236.20168415444496 52.07819922747924 264.2146482958666C52.07819922747924 338.3728522591053 112.43071731956016 398.6950614908763 186.6040757129538 398.6950614908763C260.7471252460375 398.6950614908763 321.0996433381184 338.3728522591053 321.0996433381184 264.2146482958666S260.7471252460375 129.7342351008569 186.6040757129538 129.7342351008569C168.97189622767166 129.7342351008569 152.3399091326161 133.98505275931984 136.41260303976557 140.46357165056014L161.4856077311273 285.3020378564769L115.93139068535321 293.20507318228226L55.85922955113882 -53.573752053395765L101.42860102706783 -61.476787379201255L128.27467404655846 93.42422044960102C146.98281807284192 87.05935978452283 166.72146334966183 83.49049148303254 186.6040757129538 83.49049148303254C286.2747628420476 83.49049148303254 367.3509641710201 164.5439611667726 367.3509641710201 264.207071080789C367.3509641710201 363.8777582098829 286.2823400571251 444.9691139690104 186.6040757129538 444.9691139690104z" />
    <glyph glyph-name="play-circle"
      unicode="&#xF10E;"
      horiz-adv-x="512" d=" M64 192Q64 244.25 89.75 288.375T159.625 358.25T256 384T352.375 358.25T422.25 288.375T448 192T422.25 95.625T352.375 25.75T256 0T159.625 25.75T89.75 95.625T64 192zM192 112Q192 102.75 200 98Q204 96 208 96Q212.25 96 216 98.25L352 178.25Q360 182.75 360 192T352 205.75L216 285.75Q208.25 290.5 200 286Q192 281.25 192 272V112z" />
    <glyph glyph-name="play"
      unicode="&#xF10F;"
      horiz-adv-x="486.9059288537549" d=" M479.21581027667986 201.91620553359687L41.28379446640317 445.5715415019763C36.42687747035573 448.40474308300395 31.974703557312246 448.40474308300395 28.33201581027668 446.3810276679842S23.070355731225305 440.3098814229249 23.070355731225305 434.6434782608696V-51.04822134387348C23.070355731225305 -56.71462450592884 24.68932806324111 -60.76205533596834 28.33201581027668 -62.78577075098809S36.42687747035573 -64.8094861660079 41.28379446640317 -61.97628458498025L479.21581027667986 181.2743083003952C484.0727272727272 184.10750988142286 486.905928853755 187.7501976284584 486.905928853755 191.39288537549402C486.905928853755 195.84505928853758 484.47747035573116 199.0830039525692 479.21581027667986 201.91620553359687z" />
    <glyph glyph-name="remove"
      unicode="&#xF110;"
      horiz-adv-x="507.50505217823417" d=" M507.5050521782342 437.568328640053L501.4835183037933 443.5050521782342L256.0424051681298 198.0639390425708L6.021533874440947 448L0 442.06327646181876L250.02087129368888 192.04240516812993L0 -57.97846612555901L6.021533874440947 -64L256.0424051681298 186.02087129368897L501.4835183037933 -59.42024184197447L507.5050521782342 -53.48351830379329L261.97912870631103 192.04240516812993z" />
    <glyph glyph-name="search"
      unicode="&#xF111;"
      horiz-adv-x="451.6422764227642" d=" M451.6422764227642 -34.861788617886134L347.5772357723577 104.58536585365857C416.260162601626 175.34959349593498 426.66666666666663 287.739837398374 366.30894308943084 368.910569105691C326.7642276422764 418.8617886178862 266.4065040650407 448 201.8861788617886 448C158.17886178861787 448 116.55284552845528 433.4308943089431 81.17073170731707 406.3739837398374C-8.325203252032521 339.7723577235772 -27.056910569105693 212.8130081300813 41.6260162601626 123.3170731707317C81.17073170731707 71.28455284552842 139.4471544715447 42.146341463414615 203.96747967479675 42.146341463414615C241.43089430894312 42.146341463414615 278.8943089430894 52.55284552845529 310.1138211382114 73.3658536585366L414.17886178861784 -64L451.6422764227642 -34.861788617886134zM79.08943089430893 152.45528455284557C27.056910569105693 221.1382113821138 41.6260162601626 316.8780487804878 110.30894308943088 368.9105691056911C137.36585365853657 389.7235772357724 168.58536585365852 400.130081300813 203.96747967479675 400.130081300813C253.9186991869919 400.130081300813 297.6260162601626 377.2357723577236 326.7642276422764 337.6910569105691C378.79674796747975 269.0081300813008 364.2276422764228 173.26829268292687 295.5447154471545 121.23577235772359C268.4878048780488 100.42276422764229 237.26829268292687 90.01626016260167 201.88617886178864 90.01626016260167C154.01626016260164 90.01626016260167 108.22764227642277 112.91056910569102 79.08943089430893 152.45528455284557z" />
    <glyph glyph-name="tumblr"
      unicode="&#xF112;"
      horiz-adv-x="512" d=" M147.5 226.75V281Q170.25 288.5 186.25 302Q202.25 315.75 212 335Q221.75 354.5 225.5 384H280.25V287H371.25V226.75H280.25V128.25Q280.25 94.25 283.75 85.25Q287 76 296.75 70.25Q309.25 62.5 326 62.5Q355.25 62.5 384 81.5V21Q358.5 9 339.5 4.75Q320.25 0 296.25 0Q270 0 249.75 6.75Q230.25 13 215.25 25.5Q200.75 38.25 195.5 51.75Q190 65.25 190 92V226.75H147.5z" />
    <glyph glyph-name="twitter"
      unicode="&#xF113;"
      horiz-adv-x="517.0287852374676" d=" M358.1757727794549 311.20688237878596V359.2089232818856H250.76440324843745V441.83919384327567H202.73333616792098V359.2089232818856H166.1676091670564V311.20688237878596H202.73333616792098V75.39096050002127C202.73333616792098 32.62814462066132 202.73333616792098 -56.32983261759995 294.43428717207365 -56.32983261759995H358.1830293238091V-8.298765537083455H294.43428717207365C268.0422353558116 -8.298765537083455 250.76440324843745 -2.486273509361183 250.76440324843745 75.39096050002127V311.20688237878596H358.1757727794549z" />
    <glyph glyph-name="youtube"
      unicode="&#xF114;"
      horiz-adv-x="524.8920863309353" d=" M436.9238561151079 57.92966906474817H387.96339568345326V33.803050359712245C387.96339568345326 27.069697841726622 388.75165467625897 22.376978417266173 390.4386762589928 19.77646043165464C392.15516546762586 17.183309352517995 395.0503597122302 15.908834532374101 399.13162589928055 15.908834532374101C403.3823309352518 15.908834532374101 406.3290935251798 16.977035971223017 408.03084892086326 19.20184172661874C409.7178705035971 21.434014388489175 410.57979856115105 26.266705035971256 410.57979856115105 33.803050359712245V39.630273381294955H436.9312230215827V33.06635971223022C436.9312230215827 19.916431654676273 433.7487194244604 10.044776978417246 427.251107913669 3.3850935251798546C420.8861007194244 -3.2082877697841923 411.2943884892086 -6.5454964028776885 398.53490647482005 -6.5454964028776885C387.07199999999995 -6.5454964028776885 378.04017266187043 -2.9946474820143862 371.4836258992805 4.033381294964045C364.89024460431654 11.03930935251799 361.56776978417264 20.71942446043164 361.56776978417264 33.06635971223022V90.57979856115111C361.56776978417264 101.67435971223023 365.20702158273383 110.79458992805758 372.4413237410072 117.74894964028778S388.96529496402877 128.22469064748202 400.4429352517986 128.22469064748202C412.17841726618707 128.22469064748202 421.16604316546767 124.99798561151079 427.4794820143885 118.4856402877698C433.77818705035975 112.0101294964029 436.9238561151079 102.69835971223017 436.9238561151079 90.58716546762588V57.92966906474817zM348.1526330935252 23.43781294964026C348.1526330935252 14.398618705035972 346.15620143884894 7.392690647482027 342.1117697841727 2.574733812949603C338.1410071942446 -2.257956834532422 332.2990503597122 -4.637467625899319 324.76270503597124 -4.637467625899319C319.70900719424463 -4.637467625899319 315.24466187050365 -3.7608057553957224 311.3475683453238 -1.9043453237410404C307.45047482014394 -0.0331510791367009 303.7743884892087 2.817841726618667 300.4003453237411 6.773870503597095V-2.994647482014443H274.5425035971224V170.53283453237407H300.4003453237411V114.6327482014388C303.884892086331 118.54457553956831 307.56097841726626 121.51343884892083 311.38440287769794 123.52460431654674C315.2814964028778 125.56523741007192 319.21542446043173 126.60397122302157 323.1935539568346 126.60397122302157C331.28978417266194 126.60397122302157 337.4706187050361 123.8855827338129 341.7581582733814 118.40460431654674C346.02359712230225 112.95309352517978 348.1673669064749 104.96736690647481 348.1673669064749 94.46215827338125V23.43781294964026zM255.28541007194244 -2.994647482014443H229.67804316546764V11.03194244604316C224.95585611510793 5.823539568345325 220.0494964028777 1.8675107913668967 214.90739568345325 -0.836143884892067C209.82423021582736 -3.6134676258992613 204.87366906474824 -4.939510791366899 200.05571223021582 -4.939510791366899C194.10325179856116 -4.939510791366899 189.71994244604318 -2.9946474820143862 186.67741007194246 0.8140431654676377C183.71591366906475 4.644834532374091 182.18359712230216 10.29525179856114 182.18359712230216 17.978935251798532V125.02008633093527H207.79096402877698V26.804489208633072C207.79096402877698 23.769323741007156 208.32138129496403 21.566618705035978 209.3674820143885 20.25530935251794C210.4651510791367 18.862964028776958 212.2258417266187 18.19994244604311 214.62008633093527 18.19994244604311C216.49128057553958 18.19994244604311 218.88552517985613 19.076604316546707 221.78071942446044 20.874129496402816C224.67591366906476 22.701122302158183 227.29116546762592 25.006964028776906 229.68541007194247 27.754820143884785V125.02008633093527H255.2927769784173V-2.994647482014443zM170.94169784172664 145.3085467625899H141.10572661870503V-2.994647482014443H112.27902158273382V145.3085467625899H82.44305035971223V170.53283453237407H170.94169784172664V145.3085467625899zM424.5842877697842 203.1534964028777H103.51240287769785C52.4450071942446 203.1534964028777 11.094561151079139 161.7146474820144 11.094561151079139 110.67671942446043V36.43303597122298C11.094561151079139 -14.634359712230264 52.44500719424461 -55.99953956834537 103.51240287769785 -55.99953956834537H424.5842877697842C475.60011510791367 -55.99953956834537 516.9873956834532 -14.634359712230264 516.9873956834532 36.43303597122298V110.67671942446043C516.9873956834533 161.7146474820144 475.60011510791367 203.1534964028777 424.5842877697842 203.1534964028777 M399.36 105.79982733812949C395.27873381294967 105.79982733812949 392.3909064748202 104.63585611510786 390.6007482014389 102.28581294964027C388.7884892086331 100.00943884892087 387.9633956834533 96.17128057553958 387.9633956834533 90.7639712230216V77.84241726618706H410.57243165467634V90.7639712230216C410.57243165467634 96.17128057553958 409.67366906474825 100.0168057553957 407.87614388489214 102.28581294964027C406.15228776978415 104.63585611510786 403.25709352517987 105.79982733812949 399.36 105.79982733812949 M311.11919424460433 106.2418417266187C309.26273381294965 106.2418417266187 307.47257553956837 105.86612949640283 305.6824172661871 104.98946762589924C303.9069928057554 104.18647482014387 302.1536690647482 102.84569784172663 300.38561151079136 101.1218417266187V21.308776978417256C302.43361151079137 19.268143884892027 304.5110791366907 17.65479136690641 306.463309352518 16.778129496402812C308.4450071942446 15.901467625899215 310.478273381295 15.385784172661829 312.65151079136695 15.385784172661829C315.80454676258995 15.385784172661829 318.06618705035976 16.30664748201434 319.5395683453238 18.13364028776971C320.9982158273382 19.960633093525075 321.7570071942447 22.826359712230158 321.7570071942447 26.951827338129476V93.06244604316544C321.7570071942447 97.42365467625899 320.89507913669075 100.67246043165466 319.1049208633094 102.9193669064748C317.2189928057554 105.10733812949638 314.5595395683453 106.2418417266187 311.11919424460433 106.2418417266187 M182.77294964028778 438.83556834532374L162.70549640287769 362.3891798561151L160.64276258992808 362.3891798561151L139.5881438848921 438.83556834532374L106.93801438848921 438.83556834532374L145.54060431654676 323.3298417266187L145.54060431654676 247.6275107913669L177.96972661870507 247.6275107913669L177.96972661870507 326.9543597122302L215.71775539568347 438.83556834532374z M247.71223021582736 357.49018705035974C247.71223021582736 360.56218705035974 248.84673381294968 363.0522014388489 250.9831366906475 364.9970647482014C253.22267625899286 366.86825899280575 256.07366906474823 367.8185899280576 259.6097841726619 367.8185899280576C263.3816402877698 367.8185899280576 266.4536402877698 366.86825899280575 268.81841726618705 364.9970647482014C271.1758273381295 363.0522014388489 272.3471654676259 360.56218705035974 272.3471654676259 357.49018705035974V280.6459856115108C272.3471654676259 276.82992805755396 271.1758273381295 273.8684316546762 268.89945323741006 271.70992805755395C266.57887769784173 269.5514244604317 263.50687769784173 268.4832230215827 259.60241726618705 268.4832230215827C255.77162589928054 268.4832230215827 252.84696402877697 269.51458992805755 250.7768633093525 271.6804604316547C248.77306474820145 273.79476258992804 247.7048633093525 276.7562589928058 247.7048633093525 280.6459856115108V357.49018705035974zM259.6834532374101 244.0398273381295C272.75234532374105 244.0398273381295 283.04391366906475 247.50964028776977 290.528690647482 254.35349640287768C297.99873381294964 261.24155395683454 301.7190215827338 270.641726618705 301.7190215827338 282.7308201438849V355.62635971223017C301.7190215827338 366.34520863309353 297.8882302158273 375.16339568345325 290.3150503597122 382.01461870503596C282.6976690647482 388.7921726618705 272.9217841726619 392.2325179856115 260.99476258992803 392.2325179856115C247.9258705035971 392.2325179856115 237.4574964028777 388.976345323741 229.69277697841727 382.5376690647482C221.96489208633093 376.04742446043167 218.06779856115108 367.36920863309354 218.06779856115108 356.3925179856115V283.3275395683453C218.06779856115108 271.31211510791366 221.86175539568347 261.83090647482015 229.43493525179855 254.6923741007194C236.9712805755396 247.6275107913669 247.09341007194243 244.0398273381295 259.6834532374101 244.0398273381295 M345.1985035971223 245.57214388489206C350.59107913669067 245.57214388489206 356.1751942446043 247.10446043165464 361.9140143884892 250.03648920863307C367.697035971223 253.071654676259 373.24431654676255 257.4696978417266 378.47482014388487 263.21588489208636V247.6201438848921H407.30152517985607V388.63746762589926H378.47482014388487V281.5963165467626C375.8301007194244 278.5243165467625 372.817035971223 275.9974676258993 369.6345323741007 274.02313669064745C366.38572661870495 272.0119712230216 363.66733812949633 271.05427338129493 361.5825035971223 271.05427338129493C358.87148201438845 271.05427338129493 356.8971510791366 271.790964028777 355.7258129496403 273.29381294964026C354.5397410071942 274.7966618705036 353.85461870503593 277.2130071942446 353.85461870503593 280.5354820143885V388.63746762589926H325.0647482014388V270.8037985611511C325.0647482014388 262.3465899280576 326.78123741007187 256.08471942446045 330.1184460431654 251.9371510791367C333.53669064748203 247.7011798561151 338.51671942446046 245.57214388489206 345.1985035971223 245.57214388489206" />
  </font>
</defs>
</svg>
