<svg xmlns="http://www.w3.org/2000/svg"><symbol id="sprite-chevron-down" viewBox="0 0 500 500"><title>chevron-down</title><path d="M250 455.7L-2.1 203.6 73.5 128 250 317.1 426.5 128l75.6 75.6L250 455.7z"/></symbol><symbol id="sprite-chevron-left" viewBox="0 0 500 500"><title>chevron-left</title><path d="M82.1 250.6L330.5 2.3 405 76.8 218.7 250.6 405 424.5 330.5 499 82.1 250.6z"/></symbol><symbol id="sprite-chevron-right" viewBox="0 0 500 500"><title>chevron-right</title><path d="M166.6 499l-74.5-74.5 186.3-173.9L92.1 76.8l74.5-74.5L415 250.6 166.6 499z"/></symbol><symbol id="sprite-chevron-up" viewBox="0 0 500 500"><title>chevron-up</title><path d="M250 68l252.1 252.1-75.6 75.6-176.5-189-176.5 189-75.6-75.6L250 68z"/></symbol><symbol id="sprite-close" viewBox="0 0 500 500"><title>close</title><path d="M250 179.9L70-.1l-70 70 180 180-180 180 70 70 180-180 180 180 70-70-180-180 180-180-70-70-180 180z"/></symbol><symbol id="sprite-menu" viewBox="0 0 500 500"><title>menu</title><path d="M0 0h500v103.4H0zm0 197.6h500V301H0zm0 199h500V500H0z"/></symbol><symbol id="sprite-person" viewBox="0 0 500 500"><title>person</title><path d="M460 463.6c0 19.6-15.9 35.4-35.4 35.4H69.8c-19.6 0-35.5-15.8-35.6-35.4V428c0-93.4 141.9-141.9 141.9-141.9s8.2-14.5 0-35.5c-29.8-22-33.5-56.4-35.5-141.9C146.8 23.1 206.9 2.3 247.1 2.3S347.4 23 353.6 108.7c-2 85.5-5.7 119.9-35.5 141.9-8.2 20.9 0 35.5 0 35.5S460 334.6 460 428v35.6z"/></symbol><symbol id="sprite-search" viewBox="0 0 500 500"><title>search</title><path class="st0" d="M470.5 471.5L368.9 335.4c67.1-69.1 77.2-178.9 18.3-258.1C348.5 28.5 289.6 0 226.6 0c-42.7 0-83.3 14.2-117.9 40.7-87.4 65-105.7 189-38.6 276.4 38.6 50.8 95.5 79.3 158.5 79.3 36.6 0 73.2-10.2 103.7-30.5L433.9 500l36.6-28.5zM106.7 288.6C55.9 221.5 70.1 128 137.2 77.2c26.4-20.3 56.9-30.5 91.5-30.5 48.8 0 91.5 22.4 119.9 61 50.8 67.1 36.6 160.6-30.5 211.4-26.4 20.3-56.9 30.5-91.5 30.5-46.8 0-91.5-22.4-119.9-61z"/></symbol></svg>