<svg xmlns="http://www.w3.org/2000/svg" viewBox="0 0 500 500"><path var:color.fill="#000" class="st0" d="M470.5 471.5L368.9 335.4c67.1-69.1 77.2-178.9 18.3-258.1C348.5 28.5 289.6 0 226.6 0c-42.7 0-83.3 14.2-117.9 40.7-87.4 65-105.7 189-38.6 276.4 38.6 50.8 95.5 79.3 158.5 79.3 36.6 0 73.2-10.2 103.7-30.5L433.9 500l36.6-28.5zM106.7 288.6C55.9 221.5 70.1 128 137.2 77.2c26.4-20.3 56.9-30.5 91.5-30.5 48.8 0 91.5 22.4 119.9 61 50.8 67.1 36.6 160.6-30.5 211.4-26.4 20.3-56.9 30.5-91.5 30.5-46.8 0-91.5-22.4-119.9-61z"/></svg>
